<mxfile host="app.diagrams.net" modified="2022-07-07T10:37:11.170Z" agent="5.0 (X11)" etag="6XegpbRldiP7pwJNmPrf" version="20.0.4" type="github">
  <diagram id="NjaDl5oMlJuM4JUvn9aB" name="Page-1">
    <mxGraphModel dx="2385" dy="259" grid="0" gridSize="10" guides="1" tooltips="1" connect="1" arrows="1" fold="1" page="0" pageScale="1" pageWidth="850" pageHeight="1100" math="0" shadow="0">
      <root>
        <mxCell id="0" />
        <mxCell id="1" parent="0" />
        <mxCell id="_mz8Om-OODLQYlZUzOBS-83" value="" style="rounded=0.5&#xa;;whiteSpace=wrap;html=1;glass=0;labelBackgroundColor=none;fillColor=#647687;opacity=40;strokeColor=#314354;fontColor=#ffffff;" parent="1" vertex="1">
          <mxGeometry x="-815" y="490" width="615" height="480" as="geometry" />
        </mxCell>
        <mxCell id="_mz8Om-OODLQYlZUzOBS-127" value="" style="rounded=1;whiteSpace=wrap;html=1;glass=0;labelBackgroundColor=none;fontColor=none;strokeColor=default;fillColor=default;gradientColor=none;opacity=50;dashed=1;strokeWidth=1;" parent="1" vertex="1">
          <mxGeometry x="-624" y="494" width="410" height="471" as="geometry" />
        </mxCell>
        <mxCell id="_mz8Om-OODLQYlZUzOBS-97" value="" style="rounded=1;whiteSpace=wrap;html=1;glass=0;labelBackgroundColor=none;fillColor=#cce5ff;strokeColor=#36393d;" parent="1" vertex="1">
          <mxGeometry x="-155" y="545" width="95" height="75" as="geometry" />
        </mxCell>
        <mxCell id="g9vQ7g-nkQoQMRCDzfDm-5" value="" style="shape=cube;whiteSpace=wrap;html=1;boundedLbl=1;backgroundOutline=1;darkOpacity=0.05;darkOpacity2=0.1;rotation=0;size=30;fillColor=#ffe6cc;strokeColor=#d79b00;fontFamily=Verdana;direction=east;" parent="1" vertex="1">
          <mxGeometry x="-260" y="758" width="36" height="200" as="geometry" />
        </mxCell>
        <mxCell id="_mz8Om-OODLQYlZUzOBS-80" value="" style="group;labelBackgroundColor=none;" parent="1" vertex="1" connectable="0">
          <mxGeometry x="-815" y="490" width="630" height="480" as="geometry" />
        </mxCell>
        <mxCell id="BQqJ0CVYMRjZI5g4xNkV-2" value="" style="group" vertex="1" connectable="0" parent="_mz8Om-OODLQYlZUzOBS-80">
          <mxGeometry width="188" height="258" as="geometry" />
        </mxCell>
        <mxCell id="_mz8Om-OODLQYlZUzOBS-81" value="" style="rounded=0;whiteSpace=wrap;html=1;glass=0;labelBackgroundColor=none;fontColor=#FF7221;fillColor=#9AC7BF;gradientColor=none;" parent="BQqJ0CVYMRjZI5g4xNkV-2" vertex="1">
          <mxGeometry x="2.7829590483937257e-15" width="188" height="258" as="geometry" />
        </mxCell>
        <mxCell id="_mz8Om-OODLQYlZUzOBS-64" value="Camera Array" style="rounded=1;whiteSpace=wrap;html=1;rotation=-90;" parent="BQqJ0CVYMRjZI5g4xNkV-2" vertex="1">
          <mxGeometry x="-35.25" y="120.39999999999999" width="94" height="25.8" as="geometry" />
        </mxCell>
        <mxCell id="_mz8Om-OODLQYlZUzOBS-69" value="" style="shape=image;imageAspect=0;aspect=fixed;verticalLabelPosition=bottom;verticalAlign=top;image=data:image/png,iVBORw0KGgoAAAANSUhEUgAAA4kAAAJfCAYAAADSPpPTAAAABHNCSVQICAgIfAhkiAAAABl0RVh0U29mdHdhcmUAZ25vbWUtc2NyZWVuc2hvdO8Dvz4AACAASURBVHic7J15dJXVuf+/Zx5zck4SMpAQYoAgMxJAxAkBmRRErlUUh9s6ULW1c12rXbf3d7vuvaur7a13dRZbbS1ttV5ciuJURVREQRCVeR7CGBIynZz5nPf3B+vZPO/Oe05OSEJOwv6slZXknHfY7/vud+9n3iZN0zQoFAqFQqFQKBQKhUIBwMr/ufXWW3H48GE4HA4AAOmPJpPp4rdM0efQ89c0DRaLBZqm4T/+4z8wa9YsAIDVak27DwAcOnQIy5cvx9mzZ2G325FKpVRfuoThfcNsNiOVSqGkpAT/8R//gQkTJojPOf/1X/+F1atXX9R2Ki5tNE1DWVkZvvvd7+Lqq6+Gpmkwm80dxi7en+vq6vCtb30LBw8ehMPhgLK9KmQsFgtCoRAef/xxLF26FKlUChaLxXBb6j/JZBJLly7F/v37hVwmo+ZUBcdisSAajWLSpEn49re/jREjRsBkMol+Qr/lMWr16tX41a9+hdbWVpjN5g7fZxr/FAMLTdOwadMmAJKSyB+6pmlIpVIA1CB0qSIrdTTQGA0gMkYDCvUp1Z8uTbjRSR5rFAqFQtF1SE5TKDRNQzKZRCKRQDKZ7FTRk/flP0bfyShZbuCjUxK5tZQUgnRWB8XAhzyFmqYJwZ73ic7IpGCq/nTpQX2AP3vqEwqFQqFQKC4cmk+TyaShnEYyXKb9083TF1tm64qCOxCQ73euoFMSU6mU+MmlRir6BrJQciUxlUp1ScnjfUr1q0sbbnCivkQ/CoVCoVAouofs4OkKXE7ra0P+QJcVuRx9oc/rYqBTErm3h3/WmfVBMTDhz508gNQ3OusPtC95p41i4hWXHrwvmM1mw1wvhUKhUGSHGj8VHFL0LkTJ646C2R1khYm3h74fSJD8IxvIc0E5l+lYeQT6giW51mBF38H7Qzb9wigmPtt9FQMPbmTgn6n+oFAoFBdGro+fF+JkyHXHRC4XdeyO4TWdfJeuj/Xk9WdyIuTife4uch9Ppyj3NYZKIpFLDVX0LV2diIwqaan+dGmT7vmrfqFQKBQXRi6Nn53lVWXT1nSyQm9eZzrh3Oh65PYZebty6ZlwOmtXLszRuW706AnoGkmhz0XlkMioJCoUCoVCoVAoFJ0h553z9KXOhH95iSSq1Akg7VIh3SVTm/g18P+pfZ3tr8ieXFSOehM5pDeXr18piQqFQqFQKBSKbmOkVNH/nVXW5EXNzGZzrymH6c5PyAVF5Krs6ZZzkr2KuSz85xJ8yT3g0rhvshGE+nquRd0pJVGhUCj6GelCm0iQkS3d3Z105ONkE1pFVfKMwmlybSIcqBjlvch09nwuZE3cbJ8t99bQj1G140whWbQP9Xu1nlvf0dn4k6kvcWWMiq/w/3tjqaTOwivlau4UHphKpYSAb6REqv7WEeoXdN/oniUSCVgsFuTn56OwsBAejwcOhwPAhRdyMZlMSCaTF2V5LSODQbZh1ZFIBK2trWhqakIwGARwbuk5GgOpuA0fIy/23KmURIVCochxZKWMTxZGE1NvhEEZ5RnL5+Ntkyshy+Fbit5HVvrS5VxxL066fpRufyPhmAvQ6drVWShiujbJ5zaqnp2u8Ibqe70PHwPk/pXJMxiPx3XeQ1LE+qLaJnCuzRaLRbSdGyJ4ZW4S6LliSYqP6m/noXvF565YLIaKigpMmjQJY8eORUVFBQKBANxud8b5TUYeJ/i5uvMMMp3byKsMnHv+nXnAqb3hcBinT5/GoUOH8Pnnn+Pzzz9HW1sbrFYrotEonE6nOPaFKszdRSmJCoVCkePIgns6Dx0XsPgk29OTi2z1J4EpmUzqrP7cs0DfK0Xx4sEFF7KsWywW8dzkPiQLOtyTIq9rypc3IqHZYrHoqivK5+fHSiQSHQRsTdNgtVrFb14mnvqUbFmn65At8EZGDMXFQRbaY7GYUALTYbPZhGeJ+hM9W6PlAnqqnYRRmGwsFhP9jI9tfFyl8c1ms8FqtYrQQbX+rx7+nkajUZjNZtxwww2YO3cuJk2ahMLCQp33GOj4HhuRznsN9Nz6g9m2gcjWg5lMJjFixAhMnz4dM2bMwObNm/Hiiy9i3759Yhzkx+stj3omlJKoUCgUOQ4X5I1Cm1KpFOLxuJhEZKH9QpHzhCiPgudS0GQmK3+pVEoI7rQ9t8Qrwb334c/F4XB0CJMD0EGhp+cbDodhtVpht9vhcDjgdrvh9/sRCATg8/ng8Xjg8Xjg9XrhdrvhdDpht9thsVhgs9l0fSGRSIifWCyGSCSCUCiEYDCItrY2tLS0oKWlBe3t7WhtbUUwGEQ0GhWKpc1mg81m0ymgdF2k9NJ18e8UFxd6FpFIBIlEAi6XC4MGDYLf79cJvUa0traioaEB7e3t4nlf6Hp/XYUrE9wgUlpaCr/fD4fD0SHslfqY2WxGKBRCQ0MDmpqakEwm4XA41BrAEnSP4/E4TCYT7r77bixevBhlZWWG94mHkWdzH7kCz+lO/8k2OsHIm9iZ51NWYCsrK1FZWYnLL78cv/nNb/DJJ590OBcZSy6monhJKYnZxMUrBjbys+fW6M62N7JK8QHCyCopIw82ssAv7y9/Jw9I6cIQM11HpvYpcgf+zCwWCxKJhBCYSRBLJpOw2Wzw+XwoKSlBWVkZioqKUFBQAJ/PJ4SVC4W8T9RPI5EIzp49i6amJtTX1+PUqVM4c+YMmpubkUwmYbfbYbVahfBObSZllf5XY/DFgY8HXODinhry6NEYmJ+fj+LiYgwZMgSDBg3CkCFDUFJSAp/PB5fLBafTCYfDAbvdLoR5m81m6EWUjQz8R1YaI5EIotEo2tracPbsWZw8eRLHjx/HyZMnUV9fj9OnT6O9vR0AhCJqlPtmFAamxrueg/pQIpGA0+lELBYTxqBEIoFIJILq6mrcfPPNuPbaa1FVVQWn09mpsJ9MJrF582b8v//3/9DY2Cg8imQA6I1nKM+zFotFGEmWLFmCRx55BIWFhWLbdOGHyWQSjY2N2L17N9atW4fVq1cjEonA5XLpFAYu4F+KfVLTNMTjcdx5551YtmwZvF6v8Lomk0lYredUEq4gZqNsyxEs5PntCUWdh8caXY9R7n1n5zUKw6Zrvvzyy/HYY4/hpz/9KbZu3Qqn05m18tkbXFJKopEwb0Q2D/dC9lX0PbLAQC85fSdvy7fjf3NBl4ddpfs+nSLJrd+cTP1MDuXiZApxUX2z/2BktSShPhQKQdM0FBUVYcKECZg4cSJqamoQCARE0j8J8D2RkyGHVsXjcSHYt7e3o76+HgcOHMDnn3+OL774Ag0NDTCbzXC73TohnvJ0gL6Z7C5F4vE4bDYbAOi8v+Qp1DQNHo8HpaWlGDlyJMaMGYPhw4fD7/cL76DH44HT6TT0YMvhzLy/yWOinKfDx0R5XCRlIxQKIRwOo7m5GSdPnsS+ffuwb98+HDhwAPX19UKRsNvtsNvtSCQSvRZirTgH996Gw2HYbDZEo1FomoaCggLcf//9uP322+H3+8X2FGqa6Z03m82YMmUK/v3f/x2PP/44YrEYEokEgHOhqOnmyu5A/cRqtQqDhcViwdy5c3HPPffA7/d3CMvm+5HyarVaMWjQIAwaNAiTJ0/G0qVL8cQTT+DTTz8VodukSMfj8YtatTVXsFgsaGtrw/Tp03HbbbchEAjoIh1oXCJDqFHRFiP49/zd59v3hKIon5PgRliu1GY6J41xZLCjuZGONWLECHz961/H448/joaGBp1B7GJH4VwSSqLRDb3QTqMEm/6LrAzyZylbpHl4ndELLw8MnExKXFe2kb/n1n46Lx8c+Q8P75O3z+a8itwimUwiEonAZrNh3LhxmDlzJiZPnozi4mKhGHIhniyTiURCePYuBJrIAP07wq28I0aMwBVXXIG5c+fi9OnT+Oijj7Bu3Trs2bNHKCFWqxWRSERMioqLg91uFwK6w+FAJBJBMBiE1+vFqFGjUFtbi8mTJ2Po0KEifNTlcok+lEkp5ONNOtIpa/xYvE/Q9mRkcLvdoh2jR4/G9OnTEYlE0NjYiC+++AIbN27E9u3b0dDQgFAoBJfLZdiudB4gRdchDzBFDcTjcVitVgwbNgwPPfQQpk+fDpvNJsYeHv2QSbglz8+VV16J0aNHY8OGDaIvdpbP2B24AcxsNsPlcmHq1KmorKzUbWcUuUPXxYvVuFwuVFdX44knnsCTTz6J559/XhjVLBYL7HY7gMwG3YFIIpFAfn4+lixZgoqKCt37r2kampqasG7dOuzevRvt7e0i2qEzSEmvrKzEzJkzUV5eLryK3Z3/OjtvIpHAnj178P777+PMmTOwWCyIRqOdjot0XU6nE1deeSWmTJkCp9MJi8UijAjDhg3DggUL8OyzzwovI/99sbgklESFAkAHoYcLKLJCyAUX2ZMiewyNyOSVzJZ0FjEjCxkpkOm8m3Q8Rf8kHA5jypQpWLx4MaZOnSpyfAB0mEz5c6ZtLvTZG1m8uSeBoNy00tJS1NTUYPHixfjggw/wj3/8A7t374bX6xXegEtNOOpLKBw5FouhubkZBQUFmDlzJubPn49Ro0YJAwMJ8/RsKATMSKnPRjHk1u5sjGX8byOlkQRyKpVfUlKCyy67DPPnz8fZs2exbt06vPvuu9i+fXuHAjpq3OtZyKsRDoeFwlNVVYXHHnsMtbW1ACBCBymCgJY0yCT0m0wmRCIR2O12VFdX4/333wcAUeikN+DzP3n6PB4PfD6frtATbSsjh2/z+dfhcODRRx9FIBDAb37zG11hHiPP+kAnFoth3LhxGDNmjPA+2+12JJNJHD9+HD/5yU/wySef6IpmdQWr1YqPPvoIjzzyCMaOHSuO0xMKlVEkWCwWw+uvv44//vGPOHPmDJLJJGKxGJxOZ6debzqO1WrFK6+8gkWLFuHBBx+Ex+MRkR95eXm44YYb8MYbb6CxsbHPclwvCSXRyFXcGxOHslLmNnIcOKD3LvLJgCtdcggVYaSEGfWrbEJH5c/SfW4UhmgkyBklfCuBqW+RLdZWq1UoTdTneBUzi8WCcDiMQYMG4Rvf+AYWLFiAvLw8IfjLFSj5eWQDR3fgRhH+mZFnPpVKwW63o7S0FIsXL8a8efPw17/+FX/5y18QjUbhcDiE8JVIJITglEwmxbXwKpWKzMheXflZmM1mnD17FsXFxVi6dCkWLVqEyspKITzJ+5BRAYCuD2U6v0y20QpyfzL6Wz4eH+dcLhdcLhd8Ph+WLVuGJUuW4NNPP8WqVauwYcMGaJomCo5QxUmy8nMBnfqh6nPZQ97BZDKJQYMG4Utf+hJqa2tFf+IFNvg73xl2ux1msxnxeBzA+Vyz3qoWKo9tVFQFgBDWjbaXkWULarOmaViwYAFOnDiB559/XuTSDuS+ZlTch+7JNddcA5/PJ95B8rA++eSTeP/994Uxkd5ZbmxIB5eBPv74Y/j9fjz66KOoqKjocXmHorRMJhN27dqFlStX4tSpU8JY4nK5sgo3JSj8+G9/+xsuu+wyLFq0SHfNZWVlGDt2LN566y14PJ4evZZsuSSUxItJOkGevlP0HdwyLucJ0iDGFUSekCwnJ8shWPIPfce3ob9lZVL2bnKh3+hcRmXejUKsjPqbqirZd3CrJuW/cC+g3W7XCQ/hcBjXX389vvrVr2L48OFC8CLBlz9fXhSGh0BlExKYLfIxSNCmSVO23FI42vLlyzFv3jz8+Mc/xqZNm5Cfn99BGaR7QIK8kYCm6IjJZBJemlgspvtc087ljN1333246667MHToUOHJoBAso7mpK32lO/0qnSEsm+PL/Z9yEmfNmoXp06dj7dq1WLlyJfbs2SOUDlIQ8/LyEAwGhaBKxho1P2cH97CZTCZMmjQJN954Y4cIHIIrTZ0hz00UIm2323vt+ZBCQmMSzZE8rE9WJo2Mw9zgQgqixWJBIBDAwoUL8cUXX2D37t2driE6UPH7/aiqqoLb7RbFjux2O44cOYINGzaIAi10f+h+dvZuciOjyWTC9u3bcfToURQXF4vneaHIkWPU70OhEHbs2IGjR4+KUGOaA+VICiMo95L6dSgUwttvv43rrrsOJSUlAM7Jq06nE+Xl5WK8Tlc/ozcZkEpiponPSEjvaZTHJjeh5xKPxztYsfkERwMLDWJWqxU2m00IIvL/FH5D6yTR/nwZAi6o8/5HFlMa6Cjfg/6mIiHxeNzwf/43VQgjZYF7Q7lHlIfQKC4ePNSSh8TRs6fnlEwmUVhYiOXLl2Px4sUoKCjQHSMWi+mKkZjNZl0lNzpWb4en8D5GfYvycng+ktVqxZAhQ/Dzn/8cf//73/Hiiy8iEomINpL3kfqx2+0W74UiM8lkUlcIg97zVCqFMWPG4Fvf+haGDx8urNBkRKDnlimULpcxaq+macLwsmDBAlxxxRV44YUX8MYbb6ClpUUoi8FgUIzvVNgnWyVGcX7sikajKCoqwo033oi8vDzxHd+O4B7qbCAPSywWQyqVQiQS6ZnGdwLJB/z/dEpGOuO/UWhiZWUlZs+ejX379g14+ZAb04Hz8wQVwaJ3Dzhn2KKqxWTcJOS/041RZOyhAlbNzc1obm7WKfzdGd+MDPaxWAxnzpyBpmmigi2ADr/TnZeUPpq3HQ4H6uvrde0lJbKsrKxPjfs5ryRytz2/eXIYIJDeygOcT7amz6hjdUdppPPwgiJc0eCTDv+ed9q+WBxzoMKfv7xmTigUgsViwaBBg+D1euFwOJCXlwePxwO32w2v1yuKNtDfDodDKH5Op1OnHHIFkgYormDyUK101khAn7xOSh71JyrFHY/HdUqirCDGYjHEYjFEo1GEQiHxQ0Uq2tvbxWfhcBjhcBgtLS0IhUIdFqzuKa+ToiM8z4v+5uFNJJAMHz4c9957L2bMmAGbzSaMGhR+2tzcrCso43a74fP5xCRrZM3vKYw84PF4HK2traLCYSKREDmKXq9XKIp+vx//+q//ipKSEqxcuRInT54U7097e7swutD6fIrOkYUNMhjMnz8fX//61+Hz+XR5qSRsZBNK2l/gAinPgystLcUjjzyCUaNG4emnn8b+/ft1Hmp+vzoLaVPooTn28ssvR21traEyZTTfZYLLekVFRRg1apQI4+ttxYrLY0VFRXC73QA6hlx31ftN47HT6URtbS3KyspQV1cnrmsgw59/KpWCzWaD1+vV1YDgS6cQcgXszp491wuSyaQoXsW/6841kCwpr8dK5ySjPsmbFJmQCV4x12QyCc8q/4xHGPXEtVwoOT8TG1lp+IvL11ehzmexWBCJRMSD8Hg8yM/Ph9/vh9/vR35+vk7Ap+NmIyDLSiUJevF4HO3t7WhqakJLSwuamprQ2toq2sa9Bkbhg0o47z70/OmlphdY0zSMGzcON9xwAyorK+Hz+WC32+F2u4Vg6nQ6dWt+ccGqu4p8Z6ESmehscKTjcy9pPB4XHsVIJKJTIqPRKMLhME6cOIENGzZg69atIkxN9b/ehcr1k2DKFUa69yNGjMD999+PadOmCaXParWipaUFBw4cwCeffIJPPvlELNrsdDpx+eWXY9q0aZg8eTIGDRqU1iDVXYz64qlTp/Dhhx9i8+bNqKurQ2trK9xuN4qLizFx4kRcc801GDJkCDweDywWCzweD2655RYEAgE8/fTTOHDggKj4x5UdRXZwyzVZtW+//XbccccdyMvLE32LvMtyIaOB9M5zQZGET4vFgtmzZ6OwsBBPPfUUPvvsMxHCSIIZF1AV2WM2mzFs2DB4vV6dsTPbkGEZLgvNnz8fkyZN0sl0va0k0jXYbDZUVFTovku3T6a/5bDDwsJCVFRU4OjRowPam5jOy09jlFEaDzfoX+h96Q0lysgrnO658326Mr7K/YTuERmS+XqhSkmUIOsDrwZFNxA4b5mnG5pMJkXp3LKyMlRVVaGmpgYjRoxAaWmp8A5Rqdl0lY+6ItTzkCtKwg2Hw2hsbMTBgwexb98+7N27F8ePHxfWckrk5tZfRffhxVooR8tsNmPx4sVYsGABqqurhbBK25HwxL3KdCwenplp4MrUX7r7Umd7bGonhS4YJcbzQSYajWLq1Kl455138MILL6CpqUlMyANJcMwlKKySBn4q0kBK+pgxY/DQQw/hqquuAnB+Xbtjx47h9ddfx+uvv46DBw8KhYomo127duGDDz7AY489hsWLF+uMUb05scTjcbz33ntYsWIFzp49K8Zjh8OB3bt3Y+PGjXj99dexcOFCzJo1S5Q9t9lsuP766xGPx/GnP/0JdXV1ACDuiSJ76NlS6f1FixZhyZIlyM/PB3B+vuLG0GwNov0JPnbza6PxbOLEiXjggQfwy1/+Ert37xZrKlIeGs0ViuygYj9VVVXis56Y62jeKi8vF4oahbD3dn+lvLaego/DJpMJbrcbgwcPHtAKImGkVPE5iT7XtHPFpUgmBjp6EDtTuOTPKcqLlK/u9hueo8qjxmj+JkMvGX+zWc9TbhOlK3GvKG3XU9dxoeS0kggYJwXTQEIhVw6HA8FgEKlUClOmTMGsWbMwYcIEFBYWwuv1CqUQMLauG1WxzNQejvwC8M+mT5+OUCiExsZGHD16FK+99ho+++wznD59WnixuEdhIE3afQEpShSiSWFXX/7yl1FUVCTuMYX48Qp/QMeBjT+T7oYs9AZynzXqm+nO7XQ6UVFRgdtvvx0ulwu//e1vL4rF9lKGTyQUmkwRD5dddhm+8pWv4Morr9QZMPbs2YOVK1fi3XffRSqVgs/n00VP0HZFRUUIBAK6MBagdz1FZrMZ+fn5yM/PF6HLNDZ7vV4kk0kcPnwYK1aswP79+3Hvvfdi2LBhYkKcNWsWNE3DU089hZMnT4qcMSWsZw8P27r22mtx6623ori4WKxdR3BhlVvvZfrTHJSuj1PoqDw2Tpo0CXfddRd+/etf48yZM7qwsP503bmC2WwWkQs9kTZDxlrgfL+maqC9iZFnqCciGqh/kpJhtVrh8/kumfGNy9ncWyhHfJWVlWHIkCHYvXs3XC6XzojP3+Nsoq7i8TgGDx6MQYMG6aLAeuL95kqrw+FAZWUlPB4PWltbxdxH5+L6QLq28qjIRCKBUaNGwWaz6a6Xy7SUO32xx6qcVhKpRC6Fa5LFnar7URGHZDKJyZMnY+nSpSJEgV5GWSPngxm3wnYHPhjw49psNhQUFCAQCGDIkCGora3FkSNH8Morr+Dtt99GS0uLWKNqIJdEvlhwS1UqlcKwYcNw++23o7i4WPeMjaqvpROY5Je5p7nQF74zL5HcF3koA+1H+ZULFizAxo0bsWHDhl5beFZxDsovJAGVSsjfeeeduPrqq4UQn0ql8Omnn+LZZ5/F5s2bhVLJhSfgnDDl9/tx880344orrhDPzsjw0dNYrVZcddVVOHLkCP7v//4PbW1t4vyUvwuc64NvvvkmotEo7rnnHowfPx6apglFsbGxEStXrsTZs2czLrqt+mVHSICoqqrCnDlzUF5eDiB9oRCTyTRg8++Mwhx5vrWmabj++uuxfft2rFy5UuQuqboAXYOPPz3peaP5lgxgdK7efu+5l4ig83fn3DyMUDY6D0RkWZs+49dM//OlmwYNGoQlS5bgySefRFNTk+4+8Vy/dGMWbU/5pJRW1BPKId+f6xN2ux3jxo3DtGnT8N5774l8fACicFtnUWBmsxmRSAQWiwWjRo3CnDlzRA4/jevcMabCTdNArl3u/YlGo8JbVFNTg/vuuw8zZ86E2+3WlVbn8c80CciDWldvulwWOZ0Hkgs6ZrNZlPcdO3YsampqcOONN+L555/H+++/LyqsDeQB5GJBXopgMIipU6eKcsIAOggEspXKKFyJ/s9EZwJXpv27I6xxwUZuP/V/2o73WX690WgUPp8P06ZNw9atW8Ukreh55DUNqQLoggULMH/+fADn+8q2bdvw7LPPYsuWLbo1wsiiSPuazWbccMMNmDt3LjweT4eohJ4cU4zGOFJQT506hbVr14pxmqcBUGja+vXrkUqlsHz5ctTU1Ijw25tvvhmHDx/GmjVrxHHTnS9dWy5VKCVj8uTJGD16tE4p4uNDV8e0/oDRNRj1e7oPlMM7b948rFmzBu3t7R08ForO4R6OTF7pC0Hup71dgZdfC3B+OR9KX+qOosEVHaP+ONAxUuyMqt+azWbMnz8fmqbhnXfeEQvTy+G6mbBYLCgoKMB1112HefPmwefz9eg7LctPAFBRUYF77rkHhYWF+PTTT9HW1talKqRk+L3ssstw0003YcKECR1kNb5tX5HTSiINECbTudLqVGpW0zQEAgEsXrwYd911FwoLCxEOh4VCGYvFhMWUW9wB/UOWLdbZhGjJCqIsuPBBhyzp5AanuGun04lp06ZhzJgxIqfn9OnTPXjnLk1IOE0kEsjLy8OECRNQVFQkhGw5lIWHMXcmWHdHEeyN/XjfM+q3RtULuZcVgK5gyJQpU/DHP/4R7e3tSljqJXiREZvNhnA4jBtuuAF33323WOsulUph//79ePbZZ7F169YOhgDeX+PxOKZOnYp77rkHgwYNEvsbGUF6C5PJhCFDhmDZsmVobGzEpk2bYLfbEYvFOoT4p1IpbNy4EU6nEw899BCGDBkCACgoKMC9996Luro6bNmyReTUKsG9c5LJJIqLizF27FixSDW3RKtlHc5DAtzw4cMxYcIE/POf/0R+fr6uwrCic/gi5515eboCX3+Rn6u34WMmz93t7rm5UVoZXjOTl5eHxYsXY8qUKaJ6N3D+2XT2fppMJni9XgwZMkTMHxSt01t9yGQyYeTIkSgrK8OcOXMQDodhsVjEeJJJsSNZzOl0oqSkBPn5+XA6nQD0hpFcIKeVRLJCAxDewXg8jmHDhuH+++/HddddJxLQnU6n8IzQZ5TwnI27mn53ZbCTBTAu1JBQREV3uIWBiqq43W7MmzcP1dXVeOKJJ7Bnzx6xcG+zBQAAIABJREFU4K+RgCQfn7ddcX5gJ4OC3+8XCqKRBYvgBoTOji9vZxROYXQsIy9IZ0JwZ8cyGoRkjyKH+qtcXZNCFv1+P9rb27vcHkX2UJhlJBJBQUEBli9fLkLjU6kUTp06hRdffBGbNm0CoBc0uHEjHo+juroaDz74IMrKysTEwsMMs+1n3YH6UHV1Ne68804cPXoU9fX1YrzmkzVdw/r161FaWoply5YhEAggmUxi6NChuPPOO7Fv3z4Eg0EREsktyarfdcRkMqGwsBClpaU6BZG+U+ihUO8JEybgjTfe0MkG6n5lBxniqa/1VKoMT7uRjV296UnhIX29Mc7w6B06z6XiTcwEvyf0XlZVVYkoGZr7gMyeNDmNjEew9Ha/0TQNeXl5GDt2rHBm0bV0Bo+24Z/lWt/IrdZIcOsLdaarrroKP/jBD3DjjTeKjkT5iuFwGGfOnMHmzZuxevVqfPDBB2hsbARgrAgYDQjcq5TpxwhqI6/S9MUXX2DVqlVYu3YtDh48iLa2NrH4MR1n9OjR+NnPfob58+eLqkx0jHSTV7Zu+EsJGlQ0TYPb7Rb9I5OCSJ9xD418zGwUOdm4wAXcTIaHdNvIHm7Zc5jpmNn0U7LY0vvj8/ng9XpVlb9ehC95EY1Gcdddd6GmpgbAuWcWCoWwbt06vPPOO0KJp3GAwkypj7tcLnz1q1/FmDFjRLEX2YBE5+wt+LtltVoxZcoULF26VNcOnp9BhrtIJILXX38d69evF8ImcG5snzVrljCU8UIHCmNMJpMoHsTfd7WUSEdovkylUiJniXKE1b3KnmQyKao0cxmkJxQsXi2SGzV7Cz7OcIdCT8lV3GDT08ceKPDnbDKZ0q4XmGl/WUG8GO8zL75DMhkZarN5xiR3UjhyZ3JbX5HTnkR6+KlUCk6nE1dccQUeeeQR1NTUiAeiaRpisRiOHz+ODz74AO+99x527tyJSCSCwsJCPPzww1iyZIm4+b1ZSZR3Fk3T0NTUhB/+8Ieor6+HzWbD4MGDMW3aNFx//fW4/PLLdeFBfr8f3/3udxEIBPDXv/5VDMCdTWJqyYLzcI+Dy+USCjfQ/QR0fgyuoMvhgPJ+Rs9OFuKNPNKZyHQtXblOrmzabDZROVPRO9C73tbWhrFjx+KOO+4Q+XrJZBKHDh3Cyy+/jNbWVp2CRJMIRUw0NDTge9/7Hq699lqYTCbdkhiyEaw3J0vZw2ez2XDLLbfg+PHjWLlyJbxer1BgyYNK/f3MmTN46aWXMHz4cIwZM0aM5/feey/eeecdBINB0X7u7VGVoDtCBahkgZ3/VpyHh0ny96YnQiYVCkXXoXGKjKK84E+2RhyaL8jJ0tvLpsg53/xv8oZmgua8XI9myFklkVv9LBYLZsyYgfvvv1/ksQDnHgYph6+++iq2b98Os/ncOnEul0t0GB5n3pvxvtw1rmnnFjaORCLCSlVXV4djx47hww8/xOzZszF79mxUV1fr8pG++tWvwuv14qmnnkJ7e7uuCA+nKwmylxoUAuB0OrN6WbNBropLL7UcAswFZ/5jFAZqpGTKymImL3JP9mNK/FZKYu9BuXqapmHJkiVimQiT6dwyFrt378ahQ4dgtVpFXgM9f1rX9eTJk7j99tuxdOlSYbHk/Yv3p+4WXsgGUtroXG63G4888gj279+PTz75RORlc2WX3oO6ujocOXIENTU1sNlsMJvNGDJkCJYsWYJnnnnGMAIgFyfRvsYoLJfPD+qenYP6KeXUUVgYCZXKm6hQ9C1cpqFxq7Oxn49zfAzs7Wg7ksuNnADZVMdN50TItZDT3GkJQw61u/rqq/Hggw9iyJAhunLWO3bswJ///GesWLECu3btgsvl0hW3KSkpwahRo8T/vS00ybliHo9HLBpNhWxI0Pv73/+O3/3ud/jwww8RDod18f1Lly7Fgw8+CLfbLT43CiVTFvWOkGEhLy9PLMx9ofeJK3byYtQ89JMbB2SvB+WlysoX9Ue+Hf3IAp/cFjm5v6vwQZQf2+/3K8NDLxKJRBCNRjF8+HDMmzcPgH5NN6fTKSqX2u123TpuZrMZZ8+exdVXX40f/OAHsNvtHSZUGj+yzbHtLrxv8tBur9eLH/7whygqKhJGGgo55UqM2WyGy+XSLZVhNptxyy23wO12w+FwZCw8poAuNI/n8eSqVbovoXuVTCbhdruRSCQQi8VySiBTKC5FjNJr5PFLTuGR026ofomRQb43oDmMy1F0Ti7Hpfvh0Y1yMcVcok9bIz9k+btoNIqJEyfi/vvvR3l5uS6G9/PPP8fvf/97vPTSS2hvb9fl8pFCNm7cOFRXV+ssEpnO2V2MvEILFy6Ex+MRCa18Mv/444/x1FNP4Z133kEoFBICEQlKd9xxhxD8eMy2EuTTQ/cmLy8PDofjggcJedBKJ3hzJc9osEh3bCNlX96ectKMBtB0A2VXr48rtH6/XwmWPQA3CPA+QQUf5s2bB5fLpZvUbDYbqqurMWTIEMTjcVGki55HLBZDaWkp/u3f/g0ej0dYKnn4JY0RpDT0thcROO/hlL3ilZWV+O///m9d9AaNzeQpraqqEkV3yDNuMplQWVmJmTNnijB9OUJDebvPIUco8PuUTbhptuMHzavcQJtpn0zjVWdomibeC/rfKJLmQiErfTweF9XPc81yr1AMVNK9x0YGRD6HdfZD8wrfv7dzQDO1Vc5v7aztcpuN7ltfyf05F27Kb0ZpaSkefvhhjBw5UlQq1TQNW7ZswdNPP41t27aJz0gBowIPgwYNwuzZs0XVU+Diht2QhWD8+PG45ppr8OabbyIvL09MgpQXceDAAaxYsQLhcBiLFi0SxSm8Xi+WLFmCEydO4M033wSgd8WrUKL0mM1m+Hw+2O32Hpv8ZQVQjiM3mUzCMh0KhdDe3o729naEw2FEo1HE43HhUeQDg81mg8PhgNPphMvlgsfjgdfrFeHShByGms1nncE9QWazGYWFhUpY6gHkZ0D/p1IplJSUYNq0aR28wZqmYcSIEbj77rvxv//7v2hra4PD4dCNh9/73vdQVVUlFEir1arzROYaU6ZMwXe+8x389Kc/hdfrFaHzsVgMgwcPxp133omRI0eKtlPEhcViwY033oh//vOfiMVi4hrJG6n6aM/QWZ/hIZh8nuUYCS7pPAH8Ozq/rOjyc9H21AY15ykUCsXFJeeURM6DDz6I8ePHCyuzpp0PMf3iiy8MvTpUTa+2thajR4/WTThA704wfMIjq7fdbseSJUuwYcMGncWcrLJWqxWnTp3C008/DY/Hg7lz54o2FxUVYfHixThy5Ah27tzZwSqiJktjrFYr3G63LnG5O4K00T2PxWJobGzEyZMnUVdXh6amJjQ0NKCxsRFtbW0IhUIIh8NCOSRLvNwXqRqW3W6H3W6H2+0W1QoLCwtRVFSEsrIylJeXo6SkBE6n01Cw6sp1Ggl2JpNJLMWg6D5kJOL/x2IxTJkyReRVk1GLxgqr1Yo5c+bA5XLh2WefxaFDh0QO1fLly3HdddeJyoKUx5yrCiJd/+233476+nqsWrVKhNTW1NRg2bJluPLKK3UKBRXw0TQNEydORFVVFXbu3AmPx6MbV1U0xcVBnjuBjhEIRhjNy/xz2bglh7/L1f64wpiLfV2hUCgGKn2qJPLYXb6uSTwex4IFCzB37lxhOdY0DadOncILL7yATz/9VIRhAhB/03Hy8vKwcOFCkevCz8d/9zR8EqMQlkQigdGjR2PGjBl49dVX4fV6O4QmWq1WNDY24sknn0RVVRXGjBkjrnv06NG49dZbcfLkSbS3t3eYpNWkqYf6AHkS6TOuRAF6hZ7HhtPflAtGCr2maWhsbMTBgwexa9cuHDhwAMeOHUNTUxOCwSDi8bgIE8zk6UuH7NWj8Amr1Qqn04lAIIDS0lJUVVVh9OjRGD58OMrLy3WFF6jPyBUg+XdyO3gb/X6/rgIlD7FVVvzsSPecqa9NnjxZFGnh2/OQGap+vHXrVpw8eRJVVVW4+uqr4XK5AOhDTHPtucjCvs1mw0MPPYThw4eLa5k4cSIGDRokQvBpPwBiMWKHw4ExY8Zg586dYhueF6zofdIZk9J9z5+lHJ4vK3v8OxqD6R2R861lz6NCoVAoLg59qiTKuQsk4BYWFuLuu++G0+kUn4VCIaxduxZr167VhfzxnC2r1YpgMIiFCxeipqbGsMJQbwtVvG2Ez+fDl770JWzYsAHBYFAIiaREAufKmB88eBC//vWv8cQTT4jCFC6XC1OmTMGVV16JN998U+Re8vDa3qrW2t8g4cRms4l1EjmxWEwoQbzEMi8OQs+DvJDt7e3YsmULNm7ciD179uDIkSMIhUK6AiFyUQ3Z85ipr8mKPj1b8kACQHt7O86ePYu9e/fi/fffh9frRVFREUaMGIHa2lpcddVVKCsrE/sDEP2Ch2tRyLbRfTOZTKLYD61Tp+g6RsYI4Fwf8Xg8GDt2LGw2m07xof5Iyp/VasXgwYNRUVFhaHTg738ue36pmqvX68XChQt17xutFStXruP9ddKkSVi9enUH45tSFnoPPifLxggjpZB7dwmuGMp9lhvBeIGdTM80k2Kq+oFCoVD0Hn0ebkrCOq0XFovFsHTpUgwbNkwogRaLBceOHcOqVatE3goph7TMhKadS3CvqKjAQw89pLO60yR2MdYUlL03dN7LL78c//Iv/4IVK1bolrWw2WyIRqPC+/XRRx9h1apVWLZsmbjW8vJyzJ49G1u3bkVjY6PuGnJZSOwLNE2Dw+FAXl6eUPRIsOBeMp7jyoUcEmCamprw8ssv4+WXX8axY8cQjUZhtVqFgs9LqMteIf53Z14Po/wdCkOlv+k39aVwOIy6ujocPHgQ7777LvLz8zFjxgzcfPPNGDFihKgKKS9PkM6YQO3Pz8/XvU+KC8PIw59MJlFaWoqioiI4HA4RNQHoS33LHhcav+Sy/WTY4EpVriArdMB5owUZVCj3mhtsaB9SHocNGwav14vW1laxeLdSEHuHzkJHZc9gIpFANBpFNBpFLBZDLBYTf1NkA1csKaye8rDtdjucTiecTiccDoeI+pGNH0bhrUbhqgqFQqHoefo83JQLSLFYDBUVFbjllluQSCSEMBWJRPD555/j6NGjopoeeVvC4bBOsP/Zz36GQCDQIa9Btlr2BrwoCXA+lDQWi8Fut2PBggX45JNPsHPnTlgsFsRiMaRSKVitVkQiEbHkxbvvvoulS5cKwSiZTGLChAmYNGkS3nrrLZ11V02QeigP1Ol0is+4NZv6Dg+/pJxBm82G9vZ2vPjii/jDH/6As2fPioIb5P2hfkReymg0amhJ58fPpHB19vy4BR7Qh9w5nU4kk0k0NjbiL3/5C1566SXMmzcPDzzwAAYPHoxQKASv16sTzmlfrlhQO71eL9xuNxobGw0VD9XXskcWaElJdLlcuoIg3ONrJAQbGbioH/YHhYnCoel66XpIiZBDSHm/CwQCGDRoEJqbm3s9VeBSxsi4xf+ORCJobm5GU1MTmpub0dLSIv5vbW1Fe3u7KNYViUREYSXep2kMtVqtcDgccLvd8Hq98Pl8CAQC8Pv9CAQCcLvdCAQCKCgoQF5eXgdDikKhUCguHn0ebspDrOLxOObNmyeqO1LooMlkQmFhIex2uwjDs9lscDqdiMVicLvdOHXqFJYtW4YZM2YgHA6LcE0jT01vKVfpBD+ykpaXl+Pee+/FT37yE7S2tiI/Px/hcBgmkwlutxvJZBJWqxU+n08ojmSBLSwsxOTJk7FlyxY0NzcD0C8OrDhvbXY4HCIslz4Hzj2faDQqqp7K1RLXr1+Pp556Ctu3bxfFbyj8kqAyy2Qxp35qtOxBd0v1k6FDfr7JZFJXkj6VSqGgoACJRAIvvfQS1q9fj0cffRQ33ngjAAgjRSYjSSqVgt1uh8fjEf2QW+/pupSw1nVoHCgpKTF8DkbPhe49NzjxXK9crmpK8JBuWcnj0RTyd3SddrsdpaWl2LNnjy5vjW+ryB7uoTYKcedew8bGRhw7dgynT5/GkSNHcPz4cTQ0NKChoQHNzc2IRCJIJBIiD5sfyyj3WYY/a0oPyMvLg8fjQXFxMUpKSlBRUYEhQ4aIol1ut7vDHEvtVf1BoVAoep6c8CRqmoZIJIKysjJcddVVHTwwmqZh5MiRmDVrFt5++23hdSRLdH19Pa6++mp885vfRCKRgMvl6uCBuZghp7zwB7UxlUrB6XSitrYWS5YswbPPPou2tjah+FKOjtfrxX333Sc8YpqmiVy6KVOm4N1338VHH30kws/4OmKKc33F4/GI5QPkZ033lJYh0TRNhJb+9a9/RWNjo6gcabfbEQwG4XA4RA4NX+/SZDLp1rJLZ5G/0P5G3koyptCxyJtOoXkWi0XkETqdTjQ3N+NHP/oRNm3ahG984xsoLi5GNBoV1yXfL8JsNsPv9xsuxi0rjIqOpMsdpM/8fr8oRiQXRurMc8uVK6Pvc5VMbUy3xAtw3usfCAQ69cYrMkPzh6xoyzQ1NWHv3r3YvXs39u/fj8OHD6OxsRFNTU0dwpvl/ij31a7MSclkEq2trWhpaYGmadi9ezfMZjM8Hg8KCgpQUlKC6upqjBw5EiNHjsTQoUPFvEkG2HTG0p4YhxUKheJSpc9zEnmOQ21tLcrKykSYJXkXbTYbysvLcc899yAWi2Hz5s1CYLdarRg1ahS+/vWvw+fzAYBO6DKyQPf2ZEGTFQ+loonT5/PhpptuwokTJ7Bu3TrEYjGhhAwZMkQs+xGPx2G324WlNZlMoqysDOPHj8fWrVtVcZE0kFeWPNBAxz7AvbvNzc144YUXsHLlShHyC0Dk/pGHl9ZrIwMGD5uTDQ9GSmNXkPfjHiUKP+bvDQ9/pXfC5XJh9erVaG9vx/e//32Ul5eLPDijd4DnJSqBvHsY3T+TySRCl+l/ggwQuZZb2NdQpWq17MWFE4vFxDzEIwS4IfPEiRP48MMPsWnTJhw6dAhnzpwRIfgUaUGe33RhzheiyMu5uPQZRWrQOrNHjx7Fp59+Cq/Xi9LSUowbNw7Tp0/H1KlTYbPZEIlEdEZB7hlVaRkKhUJx4fR5uCkN4G63GxMmTIDP5xOTGXDeUmk2m1FTU4PvfOc72LBhA7Zt24bm5mb4fD7MmjUL48aNE4IWz2PgitrFmiz48hzA+WIMdP6Kigrce++9KCkpwZEjR2C1WlFdXY2ZM2eiuroaqVRKTHp8XwAYO3YsCgsLUVdXB6fTKQqqKM4rgy6Xy1BJ5EWMkskkIpEIXnvtNbzwwgvCk0tKGAA4HA5EIhFRZZc+515iOR+xN66J4KGxXPgx8lqHQiH4/X6888478Hq9+P73vw+v12so3NHxACAvL0/kzMneACVwZSZdeC49N16tWX6Oio6YTCaxRqL8uSI7yGtNxY94FEV9fT3++c9/4q233kJdXR3C4bCYJ81mMxwOhxgP6RgUfWEUspotXHkzysWVjV40xra1tSEYDOLAgQNYt24damtrsXDhQkyZMkVX5A6A7v3i51UoFApF9vR5uCkAxONxVFRUoLq6WnhyjPJ2AKC4uBiLFy/GvHnzhDLJ1x2jbWWr/MXwIMreAYIrcaT0jRgxAkOHDhUVTEmA5PtyJZcm1eHDh2PIkCE4ceKEOJbiPKQkOhyODn2HP5NUKoVt27bhlVdeQXNzsy6HkVveyYtLx+bn6aw/XWh/SyfYZCowwdvDFWGfz4c33ngD48ePx5e+9CXD/YHzIdKBQEAIkZSLyZdnUHQNWVE08hIDSoCVoXvGq/QCao3ErsKX9QEg3umPPvoIzz33HLZt2yZSN8jIBJy7z1R1Wza08lDpdHTWn9Mp/jwvUjby0hxoNpvR1taGt99+G5s2bcJNN92Eu+66C8XFxbrCYqTgcsOxQqFQKLKnT0dOPlEMHToUgUAga4GUKqRREZL+knvAvTE2mw0ul0uXkG8EbW82m+Hz+TB06FDdcg4KPS6XS6f0ydA9O3nyJI4dOyas4wMJrjBqmoaNGzd2+F42wphMJl3INm030O7NxaIzxUYOi1N0RHkRuwcVf6O/k8kkVq9ejR//+MfYtGmTWO6GVw2nPsmXEOJ5ylSllMPHk2wURCMPIt+Pxh9qk7ykFHk329ra8Mwzz+Dxxx/Hzp07xTwp544rFAqFouvkhHnNZDKhqqrqgvKhjCaYXJwUjHIiuXehs+umidpms6GqqkpXiEChx+v1inBdo7AosjQXFRWhoKBgwCrbtMwAAIwaNUq3LmQ6/H6/zlAzEO/LxUBWwDMphKowS0dIKeHrKKp71HW4YhUMBrFq1Sr89Kc/RTAYFEWUaH1iwHj9Sr60E4WrkjcxHbzPyz9GbeT72Gw2WCwWJBIJxGIxmM1mXVVgGp+sVissFgucTie2b9+O733ve9iyZYtQcLkHkfqTQqFQKLKnT5VEslJarVaUlZWJdQKNwrJkwcpI2Mp1oVYWEuW/CaNr4BNpeXk5nE6nykWUoL5DHmag4z3muTDV1dUYO3ZspwJPf4UEvEAggBkzZoiwM64Aytb//Pz8Dssr9BcvfS5g9D7LyIJ3ro9bfQH1OT4fKEWx61C/SiaT+OCDD/CLX/xCt24q5Wa7XC4AQDAYFNE5tA2vDE7KY2dpDkbji9EPHZsrdBQSS8oiL9ZlMplEETEACIVCQlmsr6/Hf/7nf+LAgQPiHaO29HbuuEKhUAxE+tyTmEql4Ha7UVRUJKp50oQkk2my6Q/IQrfc/nTXIgueJSUl8Pl8MJlMA1bBuRAobMrtdosqfoA+z4V70oqKijB58mSRhzeQMJlMsNvtaGtrw7Rp0zB06FAA+kqCRkJ3Xl6eLlRXCeUXhqxYy+82r76s6AhXnrmnv7+M9bkCveOnT5/G//zP/+iWzwHOr1MYj8ehaefWmI3H4+I7ORy9p/ut7GUkLyA/B28HeRDpO6vVKsZum82Guro6/PGPf0QsFtO1na8rq1AoFIrsyAkl0eVywev16gSDbBPNuaCbywIX92IRRnkZ2RwnPz8feXl5Iu9CcQ6uJFI+DUf21lqtVowYMQIVFRVCMBooJJNJITzNmTMHDocDFovFcF1Hfl+8Xq9hPqcSzhWK/gfNEevWrcPZs2fhdDqRSCREniLNSdzblsseWxrjKZSeK4zxeBxOpxO7d+/Gzp07AZyTL7jSq1AoFIrs6XMlETi3aDlVI+NJ6hdCrk9w3cVkMomiPWRVVZzHarXqKpsCxuGSJBRVVlZi/PjxoqruQIEUwpEjR+LKK68UVnTKZU0XTupyuVSfUigGCGQsmz17NmbMmKFTmMi7RvNufwgrN5vNwtBFSiJw3ujndDoxZ84cjB49WlQ2JYVYoVAoFF2jz3MSgXOCK3kvKBywK561/hJ+2t1wWdrWbrfD5XJ18ExeKsjeY34PbDabWFuNFCG+rRxqmZeXhwkTJqCwsFB43qgPUgl4Xt0PMBagLsQrLBfV4W3jwhv9zSsM8oIMJAwB+jU6I5EIbr75ZjgcDvEd7SO3k6zz+fn5uvtndL8VCkX/gNYPLCwsxOOPP47rrrtOhJtScRcK7+TjS67OoVTYhucvWiwWxGIxOJ1O3HXXXbjvvvvgcDh0XsZcvR6FQqHIZXLCk6hQ9BSUc2MkFJDABOjzXGpqajB8+HDxPwkXTqdTWN6tVmvaSnlyYYR01fzkz0ih44qgfDyyhNvtdlF5MJFIIBKJiHVCqZgDL/AQj8cxaNAgzJw5U7Q7kUgI4VC+P6QYkyeW2qFQKPovqVRKrHtaUlKCRx99FNddd50u799oHcFczXWnqqc09gHnxjW/34+7774bS5cuhdPp1FV25n8rFAqFIntUXJliQGGz2bIKL+JCQ3l5OcaPH48tW7YgHA4LjyIJIXzdLaBjbiMXqNIVITISUii/Jl3lRk3TOpzXYrEIpZGEPLngg9lsRiQSwfjx41FVVaXzPsqhphwqYuHxeIQyqej/dFdAVsaC/oumaWKsMJlMqKysxAMPPIBUKoUPP/wQ8XhcV2mX9slVaPyiyAeTyQSn04m7774bd9xxh6jSStvyOgeqHysUCkXXUEqiYsBAAhGtkciLMtD3pJQBeuF3/PjxKC4uxvHjx8V6lLFYTAgj3Psmewflgg9G+T1GCiAAQwWTIKGNK56Us0vnJWWOchDpmHa7HXPmzBFt59cgVw2UFUefz9ehuIV83QqFIvehd58wmUyorq7Gl7/8ZZhMJmzYsEEsOUFhqPI4mUtQmywWC0KhEAKBAL7yla/g1ltvFeM+eUZpbOsPyq9CoVDkIkpJVAwo7Ha7WCNR9pgZKW70e9iwYRg2bBiOHTsGALpQLB7GKSuBcm4peev4Z3IeIbVFVlbpM7mYhHwuggt01Ean04lYLIaqqipMmjRJ5xHMlG/E84Hz8vJ0YbnyvVP0PEZFQ7jyzvue3I/ot1Ff555uoz4on1Nuk/zc03nIjQwOvE1GhhLl2ekZOsuVBs4rgLRdTU0N7r77bqRSKWzYsKHDWoS8X9GYRmsk0ufyM5X7KpGpXUb9hkJhjfoZjXfRaBSBQAAPPPAAbrvtNt3arkZ53gqFYuDAx49sxj8jOSbT9px0Y0hn5zWqOdEfc6SVkqgYUJCSaCQokMAsW5ZNJhP8fj9qa2uxefNmBINBsc5WLBYTxR3IS+lwOGC32+F0OuFwOOB0OsV56YfCXimXUbZu0/mpwiAtWRGPxxGLxRCPxxGNRhGLxRCJRMQPfRaPx5FIJBCNRnWexWQyiVgshqlTpyIQCAgBT1YU+d+yMObz+QyFQEXvQ8K4HCLHPwOgE+iB8xOQUSixXOSI70fby4WZMoXnycqfXPCEf0fn5e1QXFxoXOCKosViwejRo/HQQw/B4XBg7dq1Is+PjFTycyQy9S8gvUHJyOghQ/2JR3LwschqtSIej8Pn8+Gxxx7D3Llz4XA4kEgTZfNZAAAgAElEQVQkOhTg4bnYRnmXCoWi/0ByDk+DkY1U3JAqzz/pjOxG38nH5NvI41Zn8x9tYzTv9geUkqgYMJhMJqGg0f8yZA038nbU1taipKQE7e3tKCwshN/vR0FBAYqLi1FUVASv14v8/Hx4vV54vV643W643W64XC6dUkg/vHKgPIBwRZEUg2QyKZRFUvZIWYxEIggGg+InHA6jqakJjY2NaGpqwunTp9HS0oKzZ8+ioKAAV199NZxOpziHfK2ELLSZTCZ4vd4OFv10+yt6DllplxVEEt65wJsutDkYDKKhoQGNjY1oaGhAKBRCW1sbgsGgMDTEYrEOOa9Wq1UYQKxWq6h2S+9Cfn4+CgoKxLq2Rp4maisVGeGTOk2oapmViwd/Rnz8sVgsGDZsGO677z7E43F8+OGHIh+bFC9N04SSRQqkbGjj4azUNzN5oeW+QsfhURTRaFQU5QIgiu9EIhEUFBTg4Ycfxo033qjLzabjpDOCqbFLoei/8HFFjqgh+LvPlUP+Px93MhlD+fG44cxIWeTjIY1tvLYFnyM7O2euMSBnaiNXNP0vfy/vI2/L4eE2mc5J2wLnO3a6Yyp6Dk3ThHdPVmhk4droRa+srMRtt92G5uZmDB06FPn5+SguLobf7xcl1Y2efyblyUgpM9qG8gq7cq2pVAqhUAihUAhnz57FmTNncPz4ccRiMYwaNUoIdUZ90Ki/02f5+fkdwhiVR7H3kYVoWcjlRTiA8wJ6W1sbDh8+jKNHj+LgwYM4fvw4Ghsb0dLSgnA4jEgkIrzUXDiXQ0Pl6ro859Vms8HhcMDr9aKwsBAFBQUoLS1FdXU1qqurUVlZKYwLBCkXwLmFzun94cquovtkmle4QMWfNf+sqqoKjzzyCEwmE9577z0RQcHX4SUrPimXZAgwMlhQn8m0/iJvB8H7t91uF4YMMr7FYjGhIM6dO1cshZHJQi97FRQKRf+DDFN8iS85CsYo4oG+p//5nMMN8jQOkTGMV5JPF4VAxyYjGRm1qB18+TTuLOC/+wMDUkkEjAV3ORyLWyDTuZqNvucCNP9ODqdR9A783sr3mXsSCf4cZUWM9wWr1YqZM2fCYrEgLy8P0WhUtyZXOkWpMyHtQvtCZxYuk8kkvJklJSUYNWoU4vE4IpEIvF4vAHRQivn+6a6H9lVcXPj4IU9KpBCSd66urg6bNm3CZ599hsOHD+PUqVNCGQQ6roFJnxmt+0nfce8e9+oA596PSCSCpqYmHD58GACEp9ztdqO0tBQjRozAFVdcgYkTJ6KyslLXDpvNltECrOgd6L2PxWLC68a9ffTMhw4diq997WuIxWJ47733YLfbYTabYbfbhUcxXS5sPB4XghJ9zvshD7U3+kyeP5PJJNrb24WwRv0wPz8f999/P+bMmQOn0yn6Mh2LBMl4PC7WgJTDxRQKRf+D3m8KRad3mdIn+PJmZKA6e/Ys6uvrcfr0aTQ3N+PUqVNoaGhAS0sLIpGIiNSKx+M6JZGqx1utVgQCAXi9XgQCARQVFaG4uBhlZWUoLi6Gy+US28ueSh7WL7dT1kNynQGrJBp5EfmDMbI6dOYtSeeZNPo/nWVT0TuQsEAev3QhR5n2N5lM8Pl8Os8NpzeeY2fHTPc9tVeu1soL91wobrdbLX/RBxiFyvBn29jYiI8//hivvfYatm/fjkgkIrajtS3JyyN79IyMBDyHi//mYxwVBOHWWpqkyZIaDodx4MAB7NixAy+99BLKyspw2WWXYdGiRaitrUVxcbE4PrfsqpDTi0M4HBah59xoxD26yWQS5eXl+N73voeWlhbs2LEDqVRKCFC0PQlVtB/laDudThF6b7VakZeXp/MsxmIxEeZM3u1QKIRwOCyMH6TY+Xw+RKNR0dZkMon8/HwsX74cN998M9xut64v8bxxukZSXrNZDkmhUOQesjxOY0QsFoOmnatkTwpha2srjh07hu3bt2PXrl04ePAg6uvrRZoFGa1onOCRFXIYK9AxIpCnSeTl5cHv96O4uBijRo3CuHHjcPnll6O4uFjIXtQu0hn4WEbt6C/021k6G2WNb8Mfvryguhz6kk5hlBVNOq6RBzGdt1HRe5hMJp2SyJ9jZ/dfztkBIAQMHhqXS88xnQLcXcMEzzfj5NK1D0R4OCB5R6LRKBoaGvC3v/0Na9euxe7du+FyuRAIBIQFk3t76Dh8MjLKCZTPx+HjolFlVDo+/R+LxcTkmUql0NjYiPr6erz99tuoqanBggULsHDhQgwdOrSDhVXR++zevRvhcBhTp07VeeasVquuGEQqlcLgwYPxs5/9DA8//DCOHDmCUCgkxj+3241hw4aJEOPy8nJhXac8VRp74/G4zmMInM/rIQWxra0Np0+fxpEjR3Dw4EHs378fJ0+exLFjxxCNRuF2u2E2m5Gfn4977rkHN910E5xOp1AqgfPCGDdmtLS0YM+ePRg+fDgKCwsBZGcEVigUuYH8rnKjEBkpg8EgNmzYgPXr12P79u04deoUmpqaYDab4XK5hAHd7XZ3kPG53M5D0o1ke750WDKZFHUhjhw5gvXr1yOVSsHn82HYsGGYMmUKrr32WowbN07Mz6SgUrvlys25Tr9VEjNhJPRw4UjW4nnMMt/fKMTUSKHkColcyY9v35+sB/0BWRniSmJXkV9aqvSXyzkt6bzh3W2rx+MRIRPp3gFFzyHfVxqvjh07hrfeegvPPfccTpw4AZfLhcGDByOZTCIej4t+GYvFxLHkSAnZUGY0EfLt5XYZbQvoQ2rImELrdJJiWlZWhhMnTuB3v/sd1qxZg2XLlmHu3Lnw+/1iu3RKqqL70PNrbm7Gr3/9azz77LNCaeOL0csG1IKCAqxYsQIPPfQQUqkUhg8fjmuuuQbjxo1DSUmJ8FrTPjI8l5HPieS99ng88Hg8KCwsxNChQ3HVVVcBODfmhkIhHDx4EJ9++ik2b96Muro6LFmyBHfccYfOG8rbzIWxZDKJHTt2YPXq1XjsscfUnKtQ9DOMnDs0hiQSCWzbtg2vvfYaPvjgA5w+fVoYo6xWK/x+vxjHuPErndMm3XzIt5PT0mhss9lscLlcYvtdu3Zh69ateP7551FRUYEbbrgB8+fPR0VFhZinjdKXuuLM6Av6vZJoJAxxjLx8JFTRZNmV0FPZGkFx0uSK5iFcsvU9k/dT0TXkZ0QWJllJ7Mp95v2kM+GirwXbTN7ynvIk8vMouo+RwkZwI1MoFMLGjRvx5z//GTt27IDJdL7iLM/1yjSxdOezbOksHDsUColCUg0NDfj5z3+O9evX495778WECRPgdDp1x6AKlsrjc2HwPsXvocfjwfbt2/GrX/0KX/va14SHThaUeFEjn8+H3/72tyKUlIdt8tBjoxSOrhZrI2WVcsHHjRuHCRMm4M4770Q4HBZLD8l9nv6mfgMAhw4dwu9//3v4/X5ddeds26JQKPoGI+8ehY03NTVh8+bNWLNmDT7++GPE43G43W54vd4O8yqX4y5UTstmO9lZRPUhkskkjhw5ghUrVuC5557DDTfcgAULFqCmpgY+nw8AREQHoF+iKBfnvn6rJKZ7iEYxxdxlTBZ4sjzSenjUGWn9Odm7SJMYVfrjIY28EACvJplIJHRJtnI71aTVdYzuGxdOKCdG/i6b4wLnq2jxASbTOfsK6l/U/3h7ums993q9uvXJFL0HF7ZTqRSCwSDefPNN/OlPf8LJkyeF5TEXJ4/OoLXuHA4HkskkXC4XNm3ahDNnzuArX/kKrr32Wng8ng6Gmf54rbkKGSttNhvefPNNjBo1CjfddJMuUoD6l3z/CwoKOsyjZFiVBST+Oxv4eel/OUqH1p+VI3W4wZeMg6lUCk1NTXjuueewc+dOzJ49W4Rg8zFdoVDkJiTTcPk5GAzi888/x6pVq7BlyxY0NTXB5/PB6/WKCsx9PT8aOaJMJhM8Hg+i0ShefvllrF+/HrNnz8aiRYtQXV2t0xl4+Dw3eOUKudUaA7J5+LLFgE8mpAjG43EEg0GcPXsWdXV1aGhowKlTp1BfX4+2tjaxlEA0GhXV2vgERpOj0+mEy+USVoxAIIDS0lJR9ai0tBQ+nw8OhwM2m00ollQG18gSSv9ne70K4/tE1fh4KBwnk5DAw4bpf1rjLRdDlkjwI7rSbzrb1uFwiCqaXT224sLQNA2hUAjvvfce/vznP6O+vl4IyLLBqr+gaefzJW02mygkcvjwYTzzzDNwOBy45pprRLJ/f7u+/gBZqR0OB9ra2vD8889jxIgRGDVqFAB9KgbNU9xIxsdDbtCgY6cjm2cph3oRfJ7k56BQL/I88uq7yWQSa9euxVtvvSX6Gq9+qvqWQpG70NhCkSSapuHkyZNYs2YNXnrpJZw5cwYOhwOBQACJRELIJn29lJLsTKDPqMoyVdtva2vDK6+8gm3btmHp0qW49tprRWgsjU88xSmXxqucVhLJmsBDOI08HFwbp3XDgsEg6uvrcfDgQezduxeHDh3CiRMn0NzcLJLx5YeazWTCJyd5LTO73S7W1hs6dChqamowYsQIVFRUiAXYyeope7t4JSRuUc1FBaUvkYUU+RmQ4sStz7LA09nxiVyz6GTiQgYVOdyR3i2qkBqLxXSCo1IWewd61w8ePIgXXnhB5B/y4h/98d6TcghAN77ZbDYcPHgQr776KoYOHYrq6mqdZ4j6nKL78AgJn8+HvXv3YuXKlfj2t7+NQCDQITTLaJkLo6JevY1RqBi1iRtUaQ7YsWMHVq5ciXA4LPKE6DjpjqVQKHIHcu4AwPHjx/GXv/wFb7zxhli+h3QBq9UqoqjIaJSLcjK1mdYHNplM2Lt3L1asWIH29nYsWrQIbre7QyparpHTUjApUySk8op4XMGjhPfGxkYcOHAA27Ztw2effYaTJ0/izJkzopORwOJyuTqEttCx+LGNyLT2kqZpaGlpQVNTE3bs2IFXX30VXq8XQ4cOxWWXXYbJkyeLUrn5+fm6UrxGVgSaAHPxBchFKBTYiFyyzOQ6fBmNTPH9ip4jEolgy5Yt2Lt3LxwOh1DQc30CyQSF+NNC6Hy8M5vN2Lp1K7744guUl5fD6XTq8lAUPQPPNaRQro0bN+Ltt9/GokWLOoRz0jPjC0AbHTMd2eT/ZbONkZdRfhfo7+bmZqxYsQLHjh2D0+lEJBLRGXPJAKZQKHIXbqhuamrCoUOHdEvhkHzMHUJ9ncuXyXhGbaPq35p2rm5Jc3Mz9uzZg3A4DK/Xqwvlz0VyWknkypKRYqZpGhoaGrB371589tln+Oijj7B3716xthMVMuEJ7EbuYSKbjsZLwsv70MRqs9l0C2zu27cPu3btwrp161BcXIzx48dj2rRpGD16NMrLyzsov7x9udpx+hKjUF269+nWCFRK4nnS3Qu6p3a7HU6ns4M3R93D3qO9vR3bt29HNBoVRTq4ASldaF6uw/M1eAizzWZDa2srdu3ahWuuucaw6pui50ilUkJoCQaDeOWVV1BdXY3a2lrDeZZHtwDpK333FkYhXPw7/n4899xz2LhxI+x2u8hRpGvmuYxqLlUochcy6lgsFtTU1GDp0qWi2jF9T3CDYi4uKcFlUr58h9VqxfTp03HbbbehoKBAFw6fq/NeTiuJlE9hVGkxGAxi165dePfdd/HRRx/h6NGjIlTO5XLpJhkekkifXWj4jNHDlPMM5XUYqdBNMpnEsWPHUFdXh48//hgTJ07Eddddh+nTp4vqhTycloec5moHyiVIQe/O81VALJLNc+FU/+tdotEoTp8+DeC8EEzKYX99//nYm25JldOnTyMYDKKwsLDfXmcuo2kaHA4HEokEXC6XeB4HDx7EK6+8gpKSElRUVOjyYoyUqUzKGqerIf1G32XqA/x7i8WCtWvX4h//+IdORqBr4Okj/dkjr1BcKpDM7HK5cO211wIAnnnmGRw4cEBEOgDncxH5PNnXyGMktQ0471WcNm0avvzlL2P06NEd9s2FazAip5VEgudEaZqG+vp6rF27FmvWrMG+fft0nYfilQnqdEaeP6PcRtonHUYhMPw83GpJ1gNu+bTZbEgkEmhpacF7772HnTt3Yu/evVi0aBGqqqrEdnQMnjupMF7ygVvC5XBT/txz9SXMNUymc+tNGhlDLvV7yN9lWv6Gr9PGQ0RpO/oN6L0bdDzuuQEgQmnoe6B/enG5Z5BPnPK107b0P/c4ElarFdFotEN+MRUoydXy4bmA7EWjvvvhhx+isrISd9xxB7xer/hODjeV7+vFMhqlC3OnefHw4cP47W9/i2Aw2KGKOL/m/vjuKBT9CT6/GS2BQw4Q+Tt5biBoXr3++uvhdrvxy1/+UngUuSGI0rTkqCejMaunMZrXKIKR0iuonalUCtdccw2WL1+O6upqXZXmTDIqvy6+XJ8cokrXy4uQ8f27E5WY00qi7FLWNA0nTpzA3//+d7zxxhtoa2sTOS8Enxx4TkI24VpGeYqdIXdsehn4w6L2AxBLcNC+9fX1WLVqFfbu3YuHH34Y48ePF7kjQN8UDehv8HwaEtjl7xSZke8RKYn8nVB98PyYREVlHA4HIpEI7Ha7GJi5oB2JRMREQZV3jRQlWmR8IPZdo/UU6bo8Ho94Z/kYLa+f2NraqgvDpbGdwlQpnBKAyj+TkIuiAeeeQVtbG9asWYMRI0bguuuu0xkq5KqiMr05Fhh5J/l7kEwmEQ6H8Yc//AGHDh2Cy+USBhu+REdvt1OhuJShuTAWiyEUCsFut+tkdq6YxONxRKNRhMPhDsqNPDbRfEjje21tLb75zW/iF7/4Bfbv3y9qiqRSKdjtdkQikT4pMiinwZGcT4ZLKloTi8UwY8YMPPbYYygvLxf7GjmVAL3TgxRiKsjJ7xHXcwAIQ5nD4RBrFFMuJM2XF6Io5rSSCOiF15aWFrz44otYs2YNwuGwLpFV1qiNFMPOwliy2a6zdsqTEw895YIQX6MqmUxi8+bN+N3vfocf/ehHKC0t7XSSVnRELlwzEATsvoBCpAmuJA4UxeVCofeV8p9IOOUJ9DQhulwuDBs2DOPHj8f48eMxadIkXfVdOp6mnUtoDwQCunPJRquBNA7QJBcIBHRFa+g74JyhYuHChSgoKMBnn32G7du34+TJk2ISJsU8Go1C0zQ4nU6YTKYOXkiFMVarFcePH8eaNWtQVVWlCzvNVSi07IMPPsD69eths9kQjUaVN1mh6AP+P3tfHiVXVef/qX1funrf0t1Jk62zh8QYw+ZIMAmrUWQTBBfwDOgcOegZOTPHmZ8cx5nRI+NxRHE0wCijgIwMCooIBDEkQAiEBNLZekt3Or1UV1XXvv3+6PO9+b5br6q7k+50VeV9zunTtbz36r777v3uSzgcxsqVK7F27VpUV1fntM0imp5Op2G1WtHU1CTeU9VPOp6iF3gOfiaTgcViwapVq/DVr34V3/nOd3D8+HHY7XYAQCKRyHEMAOfGwCrnSJKimkwmAUzUdohGo9i0aRO++tWvor6+PmdssvGLp5dQdfBVq1bhnnvuETIHcLryPlV51el0OHr0KHbv3o3+/n5RNZWeBzmvzmROzomSmE/YkbVwfgMkCNBCSafT2L9/P5577jmEw2HFwlDLZckXSsp/Xz6+0PeFILvP83ld8rmVSSjfs2cPHnvsMXz961/PuS6AnHwRmpt81oFyFC455DVjNBoVhWvK9b7PFoXWBSk7lNertmfPZ9DepeJYVBjLZDLh1KlT0Ov1aG9vx7p167Bp0yZccMEFsNvtsFqtsFgsqiFwtP+pJUE5ehNlcMXYarUq5oWH6jY0NOCaa67Bxz/+cfj9fhw6dAivvvoq3nrrLZw4cUJ4YDOZjAhH1TyJUwPN9eDgIEKhkOC3xdjQmUDGhL6+PuFBoLZSxVoKX4OGcsWdd96JG264QRjs5BY6soxhsVgU+5TkfH4er8vB23KtW7cO999/P+677z6EQiEh6/E2eRyzzTvVPJ+pVEooc2NjY/joRz+Kb37zm/B4PELp4wZRPj+yN5GiItrb29HU1KQohsmN9vSXTCYxMjKCH/7wh/jTn/4Eo9GoKJxzpnMx65xATYmRBQEaPO+PRQyLtOtAIIC//vWvGBoaEjHIsqBVCOcqPEYtVKbQOfy/TqfDiy++iFtuuQVNTU05ZchpEZErO5VKwW63I5FIiGP44jnfCkFQDx0gd37Pp3k4E8hERPZ4AVpOIjBhiIjFYrBarUgkEshkMohGo/D7/diwYQOuuuoqbNiwAT6fD3q9XlhLiY7JBiVAqTDxz3nhoHKE0WiE2+0WbRg4aM5IQDCZTHC5XGhqasIll1yC4eFh7Ny5E0899RSOHDkCo9EIi8UC4HT0BlC+czcTyGQyoj0UhYrJ0TfFBvI0kCAWj8c1D7IGDXMAq9WKz3zmM6rV0OWIPvJqkRGaaIzRaFTwPPIwyjK1wWBAMpnEqlWr8N3vfhdf/epXEQqFYLPZCu772aZlRDNTqZTwemYyGYTDYWzcuBEPPPAAXC4XgNO51CTTU1qZWpseLmsZDAbRKkMtTJWURrPZDKfTiS9/+csYGxvDG2+8IeQ4UszPZD5m3ewmC5+y0MkXE7lO5QqfwESo6f79+3Ma0ZcLMpkMHA4Huru7cejQIVVrA81RMpkUXgnqIzPd8NpyAt0nWZX5PMieGQ2TQ6fTqQruGqAwTun1eoyMjKCjowMPPfQQHn74YVx99dWor68Xig1Z+LjRRm2fkieRhHX6HFDvGVfqoPBQt9sthAJO54jO03dkbSZlsLGxETfddBMeffRRfOtb30JTUxNOnTqlGlGiQR2UJ5tIJBCPx4WgU8z8VaebqEFA6SZWqxXBYFDsLw0aNJwbWCwW0U0gEomIisLkASOaTfTbYrGIHHI5TYyMqOQtIwMh0e9kMin4wapVq/Dggw/C6/VibGxszsLMefGYVColFMSxsTFs2rQJ//Zv/wa3262oMcLHSXNDhmRSsnkqGo9MpGukUilhWOa8knoyNjY24gtf+ALcbjfi8bjit85kns6JksiVGCC3dxYNnhYVLRDgtKUhlUohFouVbSEXuicetkb3SEmnNEfkYaVwNy5M0iala5abkCQLk/xzIiIazh6UJ0Yoxz13Jkin0zCZTAiFQnC73bjvvvuwY8cOXHLJJWIN0n4FTivcRLfkKqf0ZzQa4fP5xLzzNV6O+5hyVFwuV94qzmph0fyYTCYDm82Gq666Cjt27MDXvvY1RVSFhsIg6z7RTTJqFLNHjtaJzWZDLBZDNpsVBZ+KedwaNJQjiF/Z7fac8EeZbnM5lr6noizUIm58fFzh9SL+R8olnbNixQo88MADqKurEzmA55pPkiLMFcR4PI6LL74Y//AP/wCPxwNgQoeJRCJC3yHZXa/XIxwOIxaLAYBCRuC8j8u0/D3vB0/3T8XdKioq0NjYKOaaIi+KUkkElEoOf5A8j4Bc0TRJPPQUOB2axAWwcgNZS3w+H9LptCLpVM5FpHmj6on0x+en2IsQzBR4uLLcAkPD9CEbH85HyN48+k9GrDVr1uDb3/42br/9dkG/eDiJXJK/UJ4h0TyXyyWYTbl4D/MxbvIkUogoL9XNlWl6zxkcWU95GJLX68Vtt92GBx98UBQIUHuG5/OalkEGxWQyKfgNGSKLdZ5IgEokErBarYjH4zCbzYJ3atCg4dxAp9OJomFToa1cyaPzuVwbDAaxa9cudHZ2ChrPI3ey2YmicKTwrF27Fv/yL/+C5uZmAMoqzjLNV3tfaLyFziNQDiLx6lQqhcsuuwz/+I//iIaGBuERBaDoUUthpclkEm+//TYOHjwoFEW5NzV/z+eBp7Lw4+gaLpcLHo9HeGgpX/9Moi3OaXyG7FWk6qT04HmYaSKRUOTy2Gw21NbWlq1Hg5fMXbRoEQCl90but8iVaXI1n2/hNvI6kD2JxSrolAKsVutcD2HOoOap5spKe3s77rvvPqxZs0Z8z1vWcPCoCTVlhZhGJpOB3W6Hy+VS5NTROEqd5slefwDweDyi6Ixa/jQXEPgcyLkZvLjBhg0b8I1vfAP19fXi/HLP7TxT8Px/4iVqa7+YwHkg5SZSTzINGjScW5CBBsivgMl8T611BOkB7777Lp5++mnR7kE+jpwAFCq/bNky3HvvvWhpaVHwWbXXMk1Te6/Gb9SOJXBHzGWXXYa7775bGCllmkpGObqfrq4uPPHEE+jt7RVjlWUOtTlQO0ZN7pCPOVOafs6VROC0B5HChaqqqhRFB4jhc4uyw+HAggULVMvdlgPIwtLY2CgWWT6LbjKZRE1NjShzS3MpL4YzdS8XO9TC0siroFmTZwa8Suz5Bto3XMkgodTj8eD666/H/PnzBYPgOQdAYWulrLBwjxklnnOUcrhpPk8qfed0OkXREbXj5X5bPGKAz4scYr9s2TLceuutYg2fbwW8NGjQoOFcgCqLkjOnEORoEd7OgfLqEokEXnrpJbz22muIRqOqUYNcxrVarVi9ejXuvvtuLFq0SNEVgedIAlBE29Hv02dU64OiKvgxchSLrEjqdDp85CMfwV133YXW1lbFPRL4/WazWQSDQfzud7/DgQMHxP0DyOF5xOe493UycC8kRTfJivl0MGMStWwtly3nFJJFFvO6ujq0tbWho6MDK1asQEtLi0LT5q5ZUiZbWlpgtVoRi8VKznLIH46a8EQhNIsWLVIoyHKhjGx2IkzrxhtvxJIlS/D++++L/mGBQACAsmKU2m/Rsyi1OQQKlzWmGHFA3ZKiYeogAbvQfJcz8u2f1atXY82aNSJ8BIAIEeVWS7XrqH3Or221WuH1esX35QQ+L3TfFRUVIpeFwJU/Pm9y5Ty1+dHpJnK6DQYDNm7ciLVr12Lnzp2i+fL5uI41aNCgYbZA4f7EA9UKtHClimR7MuarRYUMDQ3hd7/7HVpaWtDW1iZCK+m6nCfodDrY7XasX78eyTefV0wAACAASURBVGQSP/3pT3Hs2DFkMhlFrp/JZILNZhO51yaTSUTg8Si8bDYrFEb+P5FIiGrmdBxVM73ooovwxS9+ES0tLQqFTI58odfxeByvv/46XnzxRQSDQXHfHJS2wvWpqYJHiNBc89S16WLGlUSZyfNCNHa7HYsXL8a6deuwevVqXHDBBXA6nTmTROGm3JthNptRW1sLn8+HEydOzNSwiw7Lli1TvKdFK/c7aW5uRktLC7Zu3Yqenh7s27cPb775Jvbv34+TJ0/mKNy04OQKi6UsOMn3QQIioRzucTaQj1BwRYY8+/y780HZloky3XMmk4HZbEZHRwd8Ph8AZQ4EncMbAfPv5HwEXs2MjrVYLPB4PDlhOOU053yuvF5vXgWOG7LyKYy8+jOfs0wmA6fTiVWrVuHVV1/NaSWkQYMGDRrOHplMRvQplY2AagZTAKqGfB4JBwB79+7Fc889h5tuugnV1dU5PJGuR79rsVjw4Q9/GNFoFL/61a/g9/vh9XpRVVWF6upqeDweeL1e0bPYZrPBYrGIFCXubSSlMJVKIRKJIBqNIhQKwe/3w+/3Y2RkBMPDw4hEIli+fDluu+02zJ8/P8ehw++bxpxKpdDd3Y1nn30Wg4ODIr9Slje40krvp6owUura+Pi4iHQib69aS8LJcNZKoizIyN5Dqly0cOFCbN68GevXr8e8efMU1RO5pYEmbGBgAHV1deK4TCYDr9eLhoYG9Pb2nu2wzzmm4op3Op1YvHixYlHF43EEg0E4nU44HI6ceTYYDGhtbUVbWxs+8pGP4K233sLOnTvxxhtvIBgMCksJvyYpkFMJESg2yN4XAg8v0HB20Ol0CsIJ5BLncoYc6khE12q1orq6WngR+T4CTucg8FCVQCCA3t5e9Pb2or29XYTMA0rmQYzO6/UqGIJsUSwl5BtzNjtRvtvj8Sj683EQQzt48CB6enowb948NDc3i4pxdB1eLpw+I8txdXW1qPZWTsWANGjQoGGuQZGB3IEBqEcf5Yvskp0WdL1UKoU//vGPaGtrw+WXXw673Z4j31GKEV3barXi0ksvRVVVFQKBAGpqalBVVQW32w2LxZJj+OaOLLVxcl5BRWrC4TBGRkYwNDSEcDiM+fPni3xIUsT4PXEjs16vRyAQwB/+8Afs3bs353fk3+ZyCG8XUggUyrpr1y709vaKAoRnI7udtZLIreYEUgyTySR8Ph8uv/xyfOxjH8PSpUthsVjE4lJzTRN6enpgMBjQ3NwsJszlcqGxsVH8bqkJTmpjpnlLJBKor6/H/PnzFYp2NBpFf38/mpubRb4SX1R8EdXU1GDz5s1Yvnw5Xn75ZTz//PM4cuSIOI4KBclWm1JDvrBmCh/QcPag6pz5iGY5I989054hgk1rjUdPxGIx9PX1oaenB93d3Th+/Dh6enowODiIz33uc2hpacnpC0iwWCyorKwUltl8rSFKBZxREmj+bDYbPB6PyDHnQgLvB7Vr1y78+te/RmtrK1paWtDS0iIUxvr6elFgiQspXCEkSzdV7tQURQ0aNGg4e0SjUTz88MOi2BqnrdwhQfKpw+HAxRdfjLq6OgBQRHjwcEyi08PDw/j973+PtrY2LFu2THF9tTYZwISiuHbtWkXrPF5chsvMBDVZmCu8ND6TyQSv14uKigosWLBAoWDyccu6DY0xEolg9+7d+MMf/oBIJKLoiUznUSsQHpp75MgR7Nq1S/xeIaNxNpvFqVOnsHPnTtG7Mt89ThUzFm5KN0bafiqVwsKFC3H77bdj7dq1oh8WkFsBUE0QO3nyJACgublZPFSn04l58+bBbrfnVAAsBag9WLr3ZDKJtrY2seEomTUYDKKrq0v0PKFzZM8gCUZGoxHNzc3Yvn07li1bhieffBKvvPKKcKNTbDf9RqkJoGqLnSvBvEKuvNE1TA3k6VFTxs+HueRrh++teDyOoaEhJBIJ0ZsNgFAK33//fRw7dgy9vb0YHBxEJBIRBrF0Oi36vHKlklsdzWYzvF4vTCYT4vG4osQ1jasUIUeKZLMT+ZdOpzNvoSkKKU2n0xgcHEQoFML+/fthtVpht9tRXV0tIigWLVqEhQsXoqqqSjy7RCKBkydPIpvNKsqUlxq906BBg4ZiRDqdxuOPP65QboBcJwbxv7q6OixbtkxUnlbz4HEeZzQa8fbbb+Opp55CXV0dampqFE4pOURTLRqFpyTQ/0LGQjk8Vh4nN0DKx8r3wJXIdDqNI0eO4Je//CVOnTqliKAhZZAbh+m30uk0Dhw4gJ/85CdTLtpJ/RP5mGTP5nQwI+GmwOkEVlooa9euxWc/+1msXLlSUcEunU4L9zS9VkM0GsXhw4dx8cUXiwdjMplQX18Pl8uFoaGhsqt0unjxYoXVQ6fTIRAIYHBwUNUywRcAKUdknbHZbFi+fDlqampgsVjw/PPP51hUSnXuZCGbkK8NSKkK13MJuc8fcP7MIw9P5HsknU5j9+7dWLhwIex2O/bt24eenh4cPHgQgUAAgUBA0W+Ol8CWLZdyFAWFzjgcDlitVkQiEUXuhhrBl622+Z4P3y+FjuOQLcGTeVf5Ofy8VCol8i74OTabDQ6HQzE+fm26P97mhxTtaDSK0dFRHD58GCaTCQ6HA/X19Vi0aBFaW1vR0dGBSCSCXbt2CQFGCzfVoEGDhplFMpkUoZiybMr/J5NJxONxcV4hBYtfI5vN4qWXXsLixYtx1VVXwe12A8hV1uh4Lv9xeZf/TiHnQb5IP/rPo4f48YX4SjKZxNjYGJ588km8//77ip6J8m/J46V7TSQS05LZ5ZDXs8GM9gswmUxIJBJYs2YNvvCFL6Cjo0NUPSKLMbfMy9o9nwSDwYB33nkn53uKMx4YGCiLxul0vzabDUuWLAFweiFmMhkMDQ1hdHRUzF+hxUiCJs2V0WhEU1MT7rrrLmSzWTz//PMi14fmrtQURdkSwjcBr26q4exgMplUFZnzHW+99Ra6u7uRSCQQCoUAQFR3owpiU2UkMgHX6/Ww2+2w2+0YHR1VMF1+LI8GkBVO+pO9d2qMUU15lceXSCQEXeFKK88F5IVkdLqJcNJkMgmbzSYKABAPoEgTu90Om82W87syI+eKMf8Nep9OpxEIBDA8PIyDBw/CarWKggQjIyNCQZVLi2vQoEGDhjOHrDjxz9WUvnwKm8yDuB5gNBoRi8Xw+OOPY+nSpUKnoLxF7hiYilF7Mhmm0DWmej35fii/8s9//rOIEpJ1F9nDKfNwHlo7VeTj+dPFWXNLGjhZ0FtbW3HLLbdg+fLlsFgsitwdCvvJ91CB0xNsMpnQ2dmZU1ylqqoK9fX1ZaEMkLCVyWTg8Xgwf/58sXiSyaQImQoEAgUFG5p/LljxOa+ursaXvvQlrFy5UnEONUEtB5AgO9V+dRoKgzeB5Thf55ETXNqTPH+AFDaO6cwVrVG73a7wsAHKPn+ywkhKl5rnjcp88+/J6ks9oaiSm9wfiv640sXpFXA6HIaunUqlhLXYZrMhGo2KMfP1lMlk4HA4RMjudENg6FhSRrkCmkwmEQ6HcerUKUEP6L4479GgQYMGDTMHNXnrTOQvzusojai3txcPP/ywaPMGKA3ZxQjiiUeOHMEjjzwiwkCLfdwyZsyTSP0Pr7vuOmzcuBFms1lY1mlCKMyUW4NJcOFCD1nme3p6MDo6iurqasHsfT6fKP5AHrF4PK6axFqM4I25KRl2fHwc8+fPF0ITbY5YLIYjR44oBDE1QZSEMLlRt06nE16HyspK3Hvvvbj11lvzWoBKAXLvSF79kfLoSmkDFhPIy0LrRvMcToDvO9q/RN9o3cl5GfnCVvKBFDC73Q63263w0vFrkZLHe0dxAxF9n0qlhHJESqPZbBYlv+kzXuyJrJ4UGkRltEkxJOMTMTmeAwxAvE6n04hEIjAajaKvLR+nXq+Hx+MR7Y/yVZfLB7p/qlZH98npH6U/ABMKK1cUNWjQoEHD7GK6crjsKePGQ7vdjr/85S948cUXceONNyIej4tIlGIF8eAdO3agv78fLpdLKMw8/aLYMSNKIjHl9vZ2fPjDHxYMmpfGVVsA/I+HWFK/u0AggL6+Pvh8PvEbFosFdXV1cDqdwsNGggcJKMWoJMieAJ7Qmslk0NbWJsr80nHxeBwnT54URX9ocVFhIB5eSueo/S4J/fPmzcPWrVvxq1/9Ck6ns6wEJrU1puHMkc8oUe7zm+/+uGElm50oMw1AGHa48etMf5fCMN1ut1B6iJmQJ4+UUuC0J41bKG02G6qqqlBXV4eWlhY0NDSgtrYWLpcLFRUV8Hg8sNvtsFgsgs7yfGbyBsbjcSSTSQQCAYyPj+PUqVPo7+9Hf38/Tpw4gcHBQYyOjiIQCAilzWq1wmq1CiWSoiHS6bSiWm4mk4HL5VIweTlEabK54nka9FxIWedhO3Q/NKZiNiBq0KBBQ7mAOyumGynCeQVw2tHU09MjeGAymRQ0vxgdHsQDh4aGREN74uOl1H5uRgrXUEnzVatWobW1VeGRkBVDeqBqsbckpFCVn0QigcOHD2PlypUKAaK+vh4+nw/BYDAnjrfYhQCuBNJ4zWYzlixZoijEo9PpEA6HceLECSxZsiTHK8vDv2RLPG0s7iGg0LFrr70Wzz77LADknFuK4OtHLsxTKpuwGJEv3PR8BoWVGgwG2O12BZ3ixVHOFKRokSeRPiOliLyU5O2z2Wxob29He3s7LrjgArS2tqK9vR21tbUwm80AlAn+MvIpZdRqJx8ymQyi0SiGh4fR3d2NI0eO4MCBAzh69CiGhoYQjUaF0koGQDJskcJYUVGhKGg2HbotK+NE3yhkln5Xr9fDZrOJsFp+vgYNGjRomDmcrbzAjaKAkicYDAYkEgl4vV4hO1NqVrHSc0r9sNlsirxCGjvnScWMGemTCEy4gxctWqQQbuSCCeT5IvDwI3rNqyoajUZ88MEHOVaF+vp61NXVobu7WyFA8d8qNmWRbyBKuKWx+3w+tLa2KrypOp0OQ0NDGB4ehtlszslLIoVarhzIc0D5b5OFfeHChWhubkZPT0/ZKAEkEMpFLTjK5V7PFbiBQfPAKEG0KBqN5oQ3n41xIpPJwGKxoKKiQqHkARCVT6uqqtDe3o7Vq1dj+fLlaG5uhsPhUCiCZLjj5/KwVc6w+Lj5f264k4u+kJLc3NyMefPm4aKLLkI2m8X4+DiOHj2Kt99+G52dnTh06BCGh4dFbiJdx2AwwO12CyWRj2MqtFutMhyNzWq1ivzQWCwmwmO5tVlbyxo0aNAws1DjfTNhrKeIELPZjFAopOBV9Hkxgvgv5fw7HA7E4/GSi3ibkXBTvV4Pp9OJqqoqoeDwZpdcGeS5PfF4HGNjY4jFYqipqYHValWEU1ksFnR1dSEajYrQJJ1Oh6qqKjQ0NABQlofnlT2LFXx8tPjr6upQWVmpKJefSqVw/PhxRCIRAFDkOmUyGfT39wMAfD4f7Ha74jvupZTzQa1WK+rr63H48GE4nc6Sio0uBDJAlNLmK2bwoh8a1KHTTfQ2TKfTSCQSsFgsQkGZ7jqk4y0WCzwej7CcWq1W+Hw+dHR0YN26ddiwYQNqa2vFObIBjegs7z+Yz2Moh8Dnw1TaYACA2+3G6tWrsWrVKmQyGfT29uL111/H3r170dnZiaGhIaRSKVgsFrjdbkWfVj5nk9FvWWklI1gmkxF5iAaDAVarVaFQajmJGjRo0DB7yKcoTgWF+BDJIqQQEn8rVgURUFYsJc8hGSynI3fPtT4zI+GmlEfIi11whZAmKpVKIRQKYWhoCAMDAxgYGMB7772HdDqNW2+9FYsWLRLl0kmYGBwcRH9/P9rb24VgYLfb0dTUBLPZjGQymSNcFGMYpWzFJ1A+os1mU2ywRCKBQ4cOCeWHFGAqaPPEE09gYGAACxcuxPz580XVV2rGzb1rcqgqtSWZ68V3tuDKsJp3BNDCTs8Uav39NOSWqqa9RcRfnjNuxJrsmnQdr9cLt9uNqqoqrF+/Hhs3bsSyZcsUDFH2vuVrSi8fO5XPOXh4vPyb8mt+j3q9Hi0tLZg3bx6uvfZavPvuu3j11VfxxhtvIBaLCcOWWt4Kb6uhBk5LufKqVtmYXhcbPyhWlBq91GiUBg2lBzUaU4jHcBpORsFip+k8CoucZoWKUE52rbmizTMWbhoOhxEKhXJuYnx8HENDQ+jt7UVXVxe6urrQ09OD/v5+BAIBhMNhzJ8/H7FYTBHORBMZDAZx/PhxLFiwQGE9bmxshMvlwsjIiDi2FBom8wVCCuCiRYtE3DLdQyKRwJEjR2AwGIR3gv6MRiP6+vrwyiuv4JVXXoHH40FVVRVaW1vR2toqwsAaGhrg8XgUCns6ncbo6Kgi/7EcQPNazM++lCBXINZwbqDT6dDW1oZbb70VK1euxIIFC0QIfrE9B5mJy+Oj4loWiwVr167F8uXL8d577+Hw4cOYN2/euR6uBg0aNGjQoGEamLHqpqFQCIcOHcLKlSsRiUTQ1dWF7u5uHD58GAMDA+jv78fw8LBQBgGIFhBUeU62IpBb9ujRo/jYxz6mUGrq6+vhcrkwOjoqjufaNtfiZcszvZahFk7Fr1soPEu+rtrv8NxAGpvNZkNLSwssFotCKPf7/RgYGFANrQIg+qABwNjYGPx+Pw4fPixCuRobG9HU1ISWlha0trYKq/7BgwfR09MjvJOlHE7In7VsaSIUm2BdKuA5nhrODWgdL168GEuWLMmhFxzF9lzUxkMV3QCIlhVr1qzB8uXLC3o+NWjQMLvgKUE871jOP88XYk7v1cLOi402zRame788skHtXNlozyMqJpNdNWiYLcwIpzYYDIhEInjuuefQ1dWFQCCAoaEhDA0NYXx8XPQTo1wZNcULQM57YMLz1d3drWhtodNNVDhtaGhAX18fEomEsLan02lF5U81D1M+RU4WxNTCmOTv+DW5kqr2no6j7+LxONra2lBdXa1oZZHNZtHX14dQKCTmi1+Dh9VSYQb6LJVKibk/cOCAqJZYW1uLlpYW9PX1we/3w2w2I5FIFGXp4OlA9szyedZw5ihGz9X5ADlMf7IWN8UMosVyYS21ZsKldm8aNJQyKEUokUgIuYwKbPDcflnuIDlMTX7TUBhcjivkZCDjIBnwSUaTZUoNGs4FZkRJpEp61EeLwoyA0/kyfIHLTd8Lga4bCARQWVkpLOtOpxONjY05G44rVbTxeJNnAKK4AR9PPi8iQfZS8nBR+j0q9gGcViwpVJT3NiQlVqfTYd68ebDb7QpBKpVK4ejRo0gkEiJXcSrzRGPgPdVisRjC4TBOnjyJ/fv3ixLx5VCURH5mGuGcHWiCwLkDGX5ko0epQq5wrfZfgwYN5xY8dSWVSgmDsU6ny6lMz+Ud2ehTyNNY7sh3v4VkSTUHBX3G59VoNCIajYriW2RwO9/mWMPcY0aURGpsyRsZU5sH2eqhFjqZD0SUBgcH0dPTg8rKSkUZ9ba2NlHMgRQ/s9ksysym02lRCIfGSdUDbTYbnE4n3G43HA4H7HY7rFYrzGazCIGlTUlV81KpFGKxGOLxOKLRKMLhsMjFDIfDiEQiiEajiMfjIoSDwkIp3IqK8lDuZUtLC9xut+K+s9ks3n//fTHuyYR0mWirvTebzQoFNx6Pi/GUGtS8zxQeqeHsIYdna5bLcwO1KqKlPPd0P7JgpLVU0aBhbsEL2qXTaTidTkSjUSErAKflCrmCMDeM89x12fhfqnRrpsFpOpeRebQbyYokswIQ7XyAiYJm6XRaeHI1WUfDucKMVDdNpVIKCxP3HsrH0vdTERJoM4XDYXR1dWH16tUK79/8+fPhcDhEHy6yiKVSKdjtdtTX14uw1MbGRjQ3N6OqqgoVFRWwWCywWCwiTJWI3WThAEQo+Tji8Tji8TiCwSBGRkYwODiI3t5e9Pf3i+qsw8PD0Ol0QvnMZiea25MnkRPWVCqF7u5u0bZiKuA9FrkwRuFd6XRahJLwHo2lDLUcCQ0zg3LwYpUS1HJrAWUv2VJDvjB/bW1p0DC3IEM7tcWiWhEulwuxWEy09uFhpSRLkEOA0yxAqzRLUKNtsudQpvVE5w0GAywWC+LxuEijSiQS4jpamy8N5xoz1icRgMIlTkoIfafmUZwKiFD19/fnhHk2NzejsrISx44dg8fjQUtLC5YsWYI1a9Zg4cKFqKqqgsvlEsoSDwWVQynkEAGZ+PF7ojHI1+GeP/JgJpNJnDp1CidOnMC+fftw8OBBHDt2DCdPnkRdXR3q6upy8gIHBwdx6tQpmM3mKXkSOHGmuaHxkAIPQCjE3MtbDihlb0uxghtNNJw7cGWQ9nKpQi20SkMuaJ9R7j69J88C9zzwc9QEdH5+Op1WFCgzGo2IxWIih52OofP5f+D0c6PrkBeJvptqSLT8/NXC8eT7oN9UO1cWtEnYJkG7EHjfYOLRNA+FziWlivd/zhctVSog2YDkFZvNhrGxMeHNMhgMMJvNiigkOod7EAuFV8oyRinO00yAzwt5DWmd8zDe8fFx0XOX+u7y9mdaZI+Gc40ZURKJ0JISQpYPbo0ClBbkqQqgtDF6enoQiUTgcDjEJnE4HLjyyitxxRVXYNOmTZg3b55i48m5iLzwjUzc1KqryqAYfn4uZ1p0fWKmZrMZdrsdHo8HbW1tuPjii5HJZOD3+7F3714MDw+joaFBnJtMJmE0GvHBBx9gdHQULpdrynmDakotMTaaA54bWg6NpfkaKheFtxiQz5uuYXahNt9z/QxmQiCZ63sodhCPpGrVZIiMx+OTpmUQfyShHjhtsCTFifhKLBaDxWJBIpGATqdDMpmE3W7HhRdeiIaGBlWDLkWf0G/xaCE12kt8SM24oUaj5c/oPS/WweeIPr/kkkvwxBNPwO/3I5lMipSOfHxADolMJpOwWCyT9uTk5/PfIWW7VEGyjE6nQzQahc1mQzwex1VXXYUbb7wRx44dw969e7Fv3z709/eLNcMross5jITJPGnlAlmOkuVHNSMKGe65F5HSkyorK7F69WrMnz8f69atg9FoxI9+9CN0dnYKD67GlzWca8xIn0TOLLgyota3cDrEgjZZKpXCiRMnMDo6KpREALDb7di+fbtgDolEQli9uBWSh77yOHu13ys0tqkouMTISJmkz2iMRqMR1dXVuOKKK3LOo7EdP34csVgMbrd7ygSBe3PluPVMJiPGw5l+qeNMieVUFMpCXhA1i/5k45nMojrZNab7/WQhQFPxTqvtXY1BnX/QnvvsgnhVIpFQFDUzm805wrfas6D8dq5IGQwGodSQl8LpdGJ8fFxElqRSKaxduxabN2+G2+0WiiXncxTuRtUveRVx2TjKx8ghfybLBfye0um0KNgme/foPnQ6HZqbm/H5z38e//RP/4TKykqEw+FJ55nGwHNlKX1ELsgig7w9VA3UbDYLZbEUc/vJM5xOp2Gz2aDX6+FyufDpT38aS5YswZIlS7BlyxaMj4/jyJEjePvtt/HOO++gq6sLo6OjQlHMxx/lZ84/y8eT6Doz5X08E75X6LfzGTTyecbVjufzZTabUV9fj4ULF2LVqlVYtWoVmpqaYLFYkM1OFB289tpr8a//+q8Kr68GDecSM96silsj1TCdDU9EXK/Xw+/3o7e3F83NzTnMhX6LLHvEBNV+q1Buz0xYzNW8kYUIh3xuNpvF/v37RcXTqYTQ0LUB9fvjHtRyUBA5s6H5mSrxpGfAq0jy7+j6aufJ76dyXL7rFTp+OoxK7VwegiV7jKcq8PPryJ9rCkPxQk1gORtoz3r2QQqGnIMei8VgtVrzPlMyoFKhC+J7JMDTeyrkRsXXiO7V1tbiE5/4BBYsWKDY1zzShoTZdDotKi3yHqqk1NGxpKDSmPhYZaWSDJpyiorVahWF1eRrcA/j9u3b8eabb+L//u//4Ha7J/XuycVayHvLc+zyIR6PCy8iKc6ZTEZ44EqNr/LnRYqyz+dDTU2Ngu57PB6sXr0aa9asQTqdRl9fHzo7O/HOO++Ivsw8PzGfsuj3+2EwGOBwOMQz4oYGfu6ZKkJTMaBOhbfmO54b8gnJZFLkcNpsNnFf+XIHa2trcdFFF6GjowMdHR1YsmQJPB6P+D3aU2T4qaqqgtPpRDAYVEQKaHRZw7lCUXc0pg2ayWQQjUYxMDCgGu7CUcybZ7KxUdnj3t5eQaCmU7zmfEIhhbvQOZwA07xS0r7NZhOCCpBbDIgLOGoMjQtW8u+qjYW/VlvP+a4lMzZ+PhkWSEEcGRmB1+tVCGJTgSyMTkcR1zA3yKfQz+ZzK2Z6W2rgyhO1U6IQMzXQviShm9oYyOF/JLCmUimhdFosFmzbtg0f+tCHckJa5Ty9bDaL7u5uvPDCC5g/fz7a2tpQVVUFo9Eo8tO4UJxP4SKlkP9ONjsRKkvF6bq6uhCLxXD99deLMFky6NFc8N7Af/d3f4d33nkH/f39cLlciiIfMuQWA4lEQoRR0v3mg9PpRDqdRiwWUxR7icfjQokuJXAjIr0mHsEN/dzjStXY6+vrccUVVyAYDIrILh61JBvF0+k0nn/+efT19WHDhg2oqqqC2+2GzWaDw+EQXlm5mipX2goZ2ifL1VM7V82LrUY/+ZrJZDJIJBIIh8MYHx9HMBjEkSNH0Nvbi7/5m7/BihUrFHU4aM5oTux2O6688kps3boVdrtdXJdHAND65rmfPFJgKl0BNGiYSRS1kkghHrQ5u7q6RGgIfV9qyDdmIiS9vb04efKkCLcpNQvlXGCq64AIMSf+iUQCr732mvBS19TUoLKyEh6PR1SdJYKdz6MnW97Vvpc/U/suX3hOISWTf59MJjE+Po6xsTGMjY3h1KlT2LdvH7Zt24alS5cqlL3J1lUhr6qG8xcz7anUMAEe4VBRUQGXy6Xa85dAc59Op1FZWSlSHOTvyROYzWbF94lEAhs2bMBVV10lYNrqBQAAIABJREFUPEFc+CThlnIajxw5ggceeABvvPEG7HY77HY7fD4fKisrUVFRISqGu91u2O12WCwW0UaBxk+VxxOJBEKhEAKBAPx+P4aGhjA0NAS/3w+/349wOAyn04mTJ0/ic5/7HDwejxC6SRagedLpdKipqcE3vvENfO1rXxMe03zgwrvNZsPKlSsVBW8KRRmNj49jdHRUhACTpzMej5ecgkjgPEan0ynad3G+JBtVaQ6oZgL3cPG8ULqGXq/Hiy++iNdeew3PPPMMqqqqRNX5pqYm1NbWwuv1wuVywW63w2aziXVEhgg+XjV+Wqj3trx/ZJ5LYyaPajweFwaAUCiESCQinv/AwAB6enrQ29uL4eFhjIyMwGw2Y8GCBejo6FDsIx7JQ9cnhZiPn5RDzsvJiEFt1fIVgNSgYbZR1EoigZhMX18fotEoXC7XXA9pxkGbv7OzE7FYDE6nU/R+1IiCOqYrsMrMRafTYXx8HLt378Zzzz0Hl8uF6upqNDQ0oLm5GfX19fD5fHC5XPB4PHA4HHA6nbDZbIpeUTKDUrNY5htLvvuRX8vhXSRsjY+PIxAIIBgMYnR0FL29vejr60N/fz9GRkbQ29uLtrY2LFu2bFoNeXmrFznnSIMGDTMPnU6HtWvX4oYbbsDChQsBIKdQmhqsVitcLpeqkUqn0yEejwM4HYY6b948bN++HY2NjTmGM64QpNNpHD58GN/+9rdx4MAB+Hw+8Xlvby+6u7sBKAV0WVnloCI6NDY5DcJisaCyshLRaBRPP/00stksbr/9dvh8PsWxpNDpdBNF8i666CLccMMNeOyxxwrSJ/67K1aswL//+7+LtI7J5jgajeKll17Cjh07kE6nhTJVqnlixEv4+IPBII4dO4aGhgZxDHBaNlErDFQoaoavqfHxcdjtdmSzWbF2aK3YbDa4XC5hHPF6vaioqIDX64XT6YTD4RA9rPkfKZDkWeYKJFcMac3SHzdYpFIp0W4iFoshHA4LIyu1NAsGgxgbG0MoFBKh1cDpXGCDwYDx8XGkUikRIi0r4GSk4ZE+nK+rPZtIJILu7m4RIaBBw1ygqJVEIjJEwIeGhjAyMgKn06k4rpQFV5noHjp0SIRoEPMuRSZ0LiDnDkxlnrjSk81OVBAMh8Oi1+Xg4CAOHDgAk8kEi8UCt9sNj8cDn88Ht9sNn8+nYF7c6skZmdFoFFZDYgS8mBD3HNAfCVGUOxSLxYRFMxqNIhqNCk9hKBTC6OgoxsbGxP9IJIJ4PC6KE5nNZhgMBoyNjeWEzkw2RzQmDcUFtXBj/ppCjAcHBwuG3k339/hes1qtqK2tRWVlpeo5pUyP5wIkFFZXV+Pqq6/GRRddlBPuPZVrABPFaOTWTBQOSeFrW7Zswfr168V53JPIBeujR4/i29/+Nt566y14vV5F+KfFYskRyNXC9bhAbTQaFefxRuKc/tFv/Pa3v4Xdbsf111+PyspKVW8KhZ3efPPN6OzsxO7duxWeLXksdJ7VakVzc7PYM1OJrLj55pvx9ttv4+WXX1bkn5ViD1MCeVKz2YnCSX/961+xceNG1bQKvg7pPNkrxr1mpPxHIhGMjY2JtcYVukwmI8I3e3t7AUAoXpT/aTKZYDabhYea/ug7Hvas1t6MeBnx1WQyqVASo9Go4Lt0TCqVUuRM0j1zIytdPx6PIxAICL5L45DrHvA54sWTCHxfAMDY2Bj27t2rmNdypq35aAhwmlbIx/Dw3mKEWngzf18KKGolEVAKKYFAACdOnEBLS8tcD2vGodfrkUgkRLljKjBQDq0qZgty3sJkSqJMXLLZLCKRCEKhkAhtJmZD34XDYQwODip6jtEfMS9iVqQkEuMiZZEYB/2nsRDjotfcS5hIJAQzI0tnMpkUghT1+JIJpF6vV+Q7AEBvb69gcPTbk60ptfnU1mFxQV77yWQSnZ2d+P3vf4+3334b4XD4rEPhyAKeSqWE0OfxeLB+/XpcfvnluOCCC3LaFRSqIK0hPyoqKlBbWwtAOYeT0TW+L7kXj65BdCKVSuHSSy/Ftm3bFNel9UN0IZPJYP/+/fje976Hffv2wev1CkFbzUCRb3xcwM53PBlE6V45fUwmk/jNb34DvV6P6667DjU1NUIJ4EJXOp1GRUUFbrvtNnR3d2NgYEBVoOShu7LCky8qhT5Pp9MwmUxYsGABXn75ZaHYl/Ia51EwpNDs3r0bBw8exIoVKxSeQLVzAPUiL7LiMzAwgFAoJMJUeVsuUgR5sReuaMZiMUSj0ZxnoiZ8c6MFH5s8VrUx8tdcFlAD3ys63URBqEAggFgsJirFkrGG5lb23ObbSzSGVCqFPXv24L333hO/I4fNljtkw47aHKh1UCgWqK1H2j+l5BkuaiVR3kSRSASnTp1SeIPKBaQE9/T0iJCFUs11OBdQ24CTeb7UiGwkEkEwGBQEHFBWB6Tr87AvsjhGo1EFIZOFDXmN5iNkhSxo/DVnFnKxCDUFmBjw8PCwEPCnoiDy39FQXCj0THp6evDzn/8cr7zyCgBlX7szRTabVRirdDod+vr6cOzYMQwNDeELX/gCmpqaypImnyvw/caFB9mbMx1wukS0obGxEZ/5zGdQW1ubI+hzpWrv3r148MEH8c4774jCJBRKx2nLbAmsNBa9Xo9wOIynn34amUwG27dvR21trUJR4cJ6R0cHbrrpJvzgBz/IGaMciij/Fn+vNhaC2WwWLTpKGbLASvt7cHAQ//u//4vGxkZUVFTkHEtKOjdi5yscQ+9HR0dFgR/+DOg8uYK77HFTQz4FqxB/m+o5+e5F7Rq0rkZHRxGNRuHz+QAo+27Tfx4ZJnvF5XXW29uLp59+WrSfyVcJthwhK+HARMRAIBAQ6y2ZTAoZqFjnQzaccENIKSn7c64k5vMAqW2GWCyGwcFBpFIpEbJQ6uD339vbC7/fr8gLKZSQXY7gxIH3BiLCSiXMqdodEVDZ6pfPqil/HgqFhCcx33jk19MVhgtZ3GVGMt3nLFtV+WsK7RkbGxNluknozzdGAGJ/UbgiPQt6TaFG5PHOZrPCGny+rNNiAfd07N27F3v27FEYNwoJWlMFrSVSYqiowltvvYV169ahsbFRIfRoFfimBzWFTg5HO9P5pGubTCbccsstWLZsmSIvigwJ9Hz37t2L73//+/jggw/gcrlE0TiTyaQ4brYiXNS8V6Ojo3jmmWeg1+uxfft2VFZWinVNxyWTSdhsNnz0ox/FgQMHEAwGFWuRlFtCPk/SZCDaZzabRWRHKXkF1MCfaTabxa5du9DS0oJPfepTIo8wn/FTzZgo86Dh4WHRzkV+DoVQ6LlMpuTxaxT6Pc6bp7vXuNIWCoUURmOqRipfT16TtNa5dykYDOKhhx7CsWPHxPE83PJ8Ad2v7LHnz6qYw03lfSMbW0vlWc757E7mXeHWrkQigb6+PoRCoUnPLzVks1l0dnYiEokoipQA6kpJuXp6yFNHAmk6nRaCCvWqkv8orHMqXhNZOKCcP1nBUpvbM51z7imQ/+TvzwRq1+LfBYNBoQhP5Tcoj4S8CCRk0h/ty1AoJL4rVKpfw+wjHA7jxIkTiMfjCsu+nAM73T9urKN9CEDkuvb394s2AoR8hj8NhcHnnQvTZ7Ov6Llt2bIFl19+eU65fS5k7dmzBw8//DAOHz4sjD48z+pcGCx1Op0w/NE8mM1m+P1+PPXUU3jiiSdw6tQpcSytPRKwKyoqcO2112Lx4sXiGvT/TNakrPBks6fDrwFMme8UG/LxHJ1Oh+HhYfziF7/AU089hUgkohDKSTFWM+LnM8gODw/nNSrMhBwj/24+/prv3KmMQY2vAqfXB1cSgdPKC8lwlFpC80Lrh/YeybexWAzf+ta38Je//AXpdDqnEE6581iuQPGIrmQyCa/XiyVLligi7Ip5Toh20ZgpTanUeOOcexLVwK07fBOl02kEAgFEIhHh1i8XGAwG9PX15Vj+i9VKMlugKnfRaFR4RIxGIz7xiU9g27ZtsFqtQnCRy29XV1dP6Tc4IY9EIojFYrN2P3MFqryXyWRElbaqqioAk+ckptNpLFy4EP/5n/8prF+csFEhjFdffRWPPfYYgsEgzGazUOI1nHskEglEo1GFwDqV0v6TgTNqLvTQ+qHiD4RiZtrFCpovKpZB4MVkJot0KCQENzU14Ytf/CKcTqcifI3WRTqdxu7du/HjH/8YnZ2dInKACm+R4Y6iNWYzT54EaKLrFEmi1+sRDAbx1FNPIZFI4JZbbhGtP4DTodVGoxEdHR2oqqqCy+U6a08sgdY1GWG4Z6fceLTBYEAoFMKjjz6KRCKB66+/Hg6HAwAUESPEf/l/AArDlF6vFzmi5Qbal1TdlBv4uUec9z2V87VpHvV6PSKRCO69917s3bsXOt3p/qeUD84jqcoVcqgpvU+n07jqqquwZs0aYbApdtAzvuaaa7B//368++67sFgsmpJ4NshHSDKZjGKj8IVUTkgmk4IIcyZU7oSBgyxulOSeSqVw5ZVX4o477oDb7RZ5DVwYzbfpJlsfqVQKgUBg0v5apQpiYLFYDCMjI+Jztb3DLb9UbGfx4sWC2ZEwRmXE9Xo92tvbYbVa8a1vfQsAYLfbRdsWDecO8vrnYdoz5engXiRaE/Re7pNGHh7qlaehMGg/BgIBDA4Oiv1GwtBUaZMcCUHPqq6uTljjyfDG85lfffVV4UFMJBKw2+1IJBKiXQBFasjPfTYg03YqAELez1AoJNpj3HnnnaJIFxcsLRYLmpubFQoir6RaaN7kz/h3sVgMR48eFSHX5GmlXM1yAc15MBjED37wA/T39+P2229HY2OjghfQXqf3ctgtPY+BgYGS9bgWAl9f4XBYoSTS5/KaMxgMougcNzLs27cPf//3f4+hoSGYzWZYrVZRqZwM5WSsLUdZhcAjHUj2TafTWL58OT75yU/C6/UqwsyLGfT858+fj89//vP45je/KaKvzGZzycj1RT3TFNpGVmzaLOW6STizIeJSKhtipkCEgRi72+1GR0cHKisrYbVahZWbl0yn1zy5W22NyHkM8Xgcfr9fJEGXE7hglMlkMDQ0BKCwF4Ar3VRplZgS9QYDIPKT0uk0Lr74YtjtdhiNRvG9hnMLbjwDTj8fsjyfjeWSC4FcyONrhdYCrROi2RqmDoPBgOHhYezduxcjIyM51USnEhqsBvJI0DPhx2YyGbz++uv42c9+hg8++ECMgwRTUrjk3PjZppVcQaR1RJ9RPuxTTz2Fn/zkJ6KIGI2XF1cB1ItgqIX10mv649/Rve/fvx979+6F2+0WxjCr1TojrWbmGpxvklEAAJxOJ5588kl85StfwXPPPYdwOCzaM+l0OlGdW55LHqo+MjIiaFK5ge41FouJXolEA4HT0Rw0T/Sf9uKpU6fw4IMP4s4778TY2JiorxCLxYSyRMfK7W3KDaQwU/QShZJ7vV7cfPPNWLBggfgOOD23xeqZ4/0wV61ahU9+8pOKCK9SQVFyciJWJJgSYyJFgI4pJxBRTaVSIsGbFlm53WshkFJMhJYLqRSGRAVY6HjgzNZDJBLByMiIKERQrMTmTMAFJgAYHByc8nnkcZCtoty7S99ZrVZYrVYRHqzh3IKeM7cwcyv1TNAO2Xske6xoz/K9Wm5Gl9kEf05//vOf0dDQgGuvvRYVFRWq3i35mXK6xT1mnAaQB4P+m0wmvPnmm3jooYdw4MABxbG8TYEszJwLXsRpu3zPJDgDwH//939Dr9fj7rvvViiUdDxXVORx8+N5yCg/lhQAvV6PI0eO4Ec/+hHi8TgsFouIdilH/kyGJb1+oi2X1WpFV1cX/t//+3+48MILcf3116OtrQ0+n0+kHvB2D5wnh0IhBAKBsuUNtNeSyST8fr+YL5JfSSHgufzj4+Po7+/H66+/jmeeeQY9PT0iesdisQiZl5RDUoZKsTJmIeTba/J31157LdauXSsiU3gKWjGDDG4GgwF2ux0f//jHcfDgQbz22muwWq2Ke6ZCgAAUof3FgDkfSSELKJXwpwVDXsRydLsTQ7ZYLIq4duD8FLho0/CS64BSWDibMuxk/QsGgyVl1TkTZDIZRbGHycArGfJ558+B5p4qH5aDNb3UMFWBYabopFqI8mSvNUwdFBr+s5/9DJ2dnbjuuutQV1cHl8tVsBWAxWIRBS54tU8y9JDiSAKrXq/H3r178b3vfQ+HDh2CzWYTwgwJpXIFy7kAN1ARuLfKarXi0UcfhU6nw1e+8hWhwNE9cCGSC2NEu/r6+uDxeIRBNpvNClpGYbbDw8N488038cwzz6CzsxM2m02E5FIjdpJRygVc4aM1Q8V6XnnlFezevRvr16/HRRddhK1bt8LpdCry7gjZbBZjY2MIhUJnxauLHaQQUqsPao/CUzRIYeju7sbvf/97vPrqq+jr61NEP5GX0Wq1CmeI7Akv1zkElPNlMpkQj8exYcMGbNmyRbRjyRclVkzg4yPaYDAY0NraiptvvhldXV0YGBgQIaecJpHxqZgw50qiDJrguro6bN68GW63WxHDvWjRIjgcjqJfKFMFv4/29nZs3rxZvCemvXTp0pywm3IFz4uLx+OwWq2KnCdOKOVwLAI/Riasco5JOBye/ZuaI/C14vf7p8VguMWeh6hx5ZwspIlEQuTmlDMT06BhNkAGUZ6j8vzzz+OZZ55BXV0dgPztc1KpFDZt2oQvf/nLqK2tFQIp8QsSOmi/6nQ6dHd34/vf/z46OzuF54L3cLPZbOKzYgMZiimqyGAw4MEHH0QymcS9994rFEU+di5YEu16/fXXcf/99yvC8nmRESrEEo1GhZLjcDhEegNXvMuV5tE80xwZDAZRwGbnzp3Yt28fFixYgAsvvFDMN/FbmhNqv1SucguPABsbG1NUSuch0qQAvPDCC/jZz34mIqJ4ri9XFOjavE1NvkiCcgHfh+Pj42hubhZhpqV4z9zQTmtixYoV+NSnPoWHHnpIRLARfdbr9bBYLDlGurnGnCuJsmWAXq9fvx4rVqxQuJ+BCSJPjKIUF44Mnkuxbds2XHHFFTlud71eL6wL5XDPk4EILDFtYsxERPl3avOhphQCuQUMwuGwaA1RboxeZlKjo6OKwhWTgSvfcugWET+j0SiU7GIUKDVoKAVQvhH35NlsNjgcDgSDwRwvAt+/PHdY7hnGw9xIeeru7sY///M/46233oLT6RT7mIRTi8UiwsmLEbyCZjY7UQCivr4ejz/+OPR6Pe655x7FMZxHcGUnkUhgYGAAXq9XhPKRN5EXxzMYDPD5fEKJJy/i+Pi4QqgrR/B1xg2GAOByucR3fK74e71ej6GhISQSCeGtLjf5hfamTjdReCoajYrv5HBK+m82m3PmUy1tRubB5Q5StrPZLDweD7Zu3YoVK1bk5BmXEmQHh9lsxqWXXor33nsPL730kiKljo4rNtpbXKORYLPZRM4T/ZVrHgBZJS0Wi7hXel1s7ufZhszMBwcHMT4+Lr4ngSifp4uuIV+T/pPARZ7EcjE4qIHmIxQKif6ikynEsmLNP5eZGfUtpebSGjRomD7UIiLS6TSsVitMJpPwDpKXi/8BEPSQlBmyRpMSaTabEQqF8Pjjj+ONN94QYZZcwOeVF4vV6CML1yRkWSwWPPnkk3j55ZcVrT24h4t7uXQ6HZxOp8gNomJpFKJLtI4iTsbHx4WwmkgkhCdIC7PPj2w2i9HR0ZwWSuWIbDaLUCikKPZWrjLFbIGMNQBw8cUX4+Mf/zicTmfJyvs84oo7J5qamnDjjTdi/vz54jPgdMHAYkNRK4lA/sbM5UZ08sWel9t9ThfxeBz79u3DiRMnFBso34ZSs9zx/3x+x8fHMT4+XpIEaKogYScUCmF0dHRSrymfL87caX1SSJxOp0MkEsHzzz+fYw3VoEHD1EGCgprnIZFI5FSN5H8kWNH5ctNmikJJpVKw2+3YunUrLr30UlHMhvKP5VYTxZqnTcIWp2NGoxEmkwmf/vSnsX79ejEvPBSUh5vSf1k5JE+G7H00m82wWCziMzmErJz5x9liaGhI8JJyB7XT0nBmIDo3b948XHnllWhpaQGQK7uVCogec5pKtKOjo0MowbwdUTEa54pWqlPzBJXSApku8t1fOd+zGkhgog1lMpmwf/9+/OY3vxEhk3SM7B0kqBEVrhhRoYJgMIhYLFaWSfX8vg0GA6LRqOiVmO9e5bxDOb+EV7EEgN/97nf405/+BKfTKYQtDRo0TA+krJDRi4eE89QKTve4osRz9mW6SAI6eSE7Ojpw33334fLLL4fb7RahTjyEnPr0FiOIBlEKgtFoRENDA/72b/8WX/rSl+DxeIQCzM8hcJpGXkBe3IcUbp4GEo/HkUqlBI2jHCIKEdagDp1OJwyTcih0OUDml+Pj44hEIgBwXnhPZwMulwtbtmzBypUrS94Ik81mBd0lesqr3W7evBnr168v+nSnOc9JLAQ+edNpKlwOUPN8nS8gCwyV106n03jhhRcwMjKC7du3o62tDS6XKyeZ22AwwGq1KizIMpEhASGZTGJsbEww/lImRpOBhCrqlci9EDJ4GNfY2JiiLDMwsQ/7+vrwhz/8AS+//HJOKIWGc4dzQRN0utPFK2Q6xNeQmoenXPfTTIM8WUTPeGVD3s5EPoe/JkUHUFqjecVAOq6xsRH33HMPVq1ahT/+8Y/o7OxEKBQSezwfXZjq8ySlIN93he4l3+9whTiZTMLhcKChoQHLli3D9u3b0dHRoVrcQw4zpc941XTuQaQ54+uep3tQ+C43op1vsslUQPPn9/vLXpEmQyxVS+f0UoMS+SK9aE+uXbsWNTU1whDD1w7nMZwuqrXKIajxSDWHgtq5MuRj1eiY2vWI9pBcSnJSQ0MDPvnJT+a0Xys2WXTOlcR8k6HmSTyfcL7dL4GUDpvNpmjQHY1GsWvXLuzbtw8VFRVwuVw5m/LCCy/EbbfdpkiqJ3ChgRq1jo6OinLL5aaEy3kRqVRKeBLzCYGc0P75z3/GI488Iqz1vPLa0NAQotGowvtAgpamKJ5bqDEqmYmeDdNRO5d7nvhxpKhoa2D6yDfPaq/lz2SFSE2AofBTUkh9Ph+2bNmC5cuXY/fu3dizZw8OHz4sCo3IfVLlscrjKPSZLCzlExTpNbe8y6G1drsdDQ0NWLVqFTZt2oTly5fD6XSK7/O17qB54dU61Xr78fHIRfP4Z/zz85VX5wPNRyQSwejoaE5Lr3KBvL7i8biIdqKWNBrygyt3er0eTqcTa9asyWtw5lER1IOSyy2AurFS7TqTGcnzKZL5jle7thwBQtela6fTaXR0dAiaV6wOoTlXEgsh3wMvR6LMGafMVIvNsjCboFAhKsHOS0DrdBNFBE6ePIm+vj5F0+d0Oo3KykpEo1G4XC4xZ7KyREgmkwiFQkUbVjVTIIGIwmunQoB0Oh2Ghoawb98+2O12RSGIbDYrmklTMQ3eWFrD3ECmEzNVfCSTyYgCHVyA594rbvE9X+hUOcBkMqGtrQ1NTU3YuHEjDh06hAMHDuDAgQPo6+uD3+9XVJbm4ebcAFFIsKJ1IgtzhYzDFNpJ1nebzYaamhq0t7dj6dKlWLp0KRYsWACPx6PwJmiYe/BnHIlEFNV5yzk8V6fTIZFIIBAIIJVKwWq1zvWQSgo6nU6hKKkZkqgQF6CsBssNorJhlHv55WueyRh5ZCP/PX7MVAyldD9qYys2HjrnSmIhN2sxNPQ911CzfgLnVwEbLnRyYUO20pAliV5Tbg4/nluD+QaOx+Pw+/1522iUE6j639DQkKIfmpqngqoiUoEauY8TWeO5FZBC5TTMLXg1Ne45OlvQXiLvEg+n4t6YQp4sDcUHek4mkwnNzc1obm7Gxo0b0dPTg97eXhw9ehR9fX3o7u7G0NAQwuEwYrGYCNHnRWBIwOO0ggt4fD2QoMcNWESrqR+h1+tFTU0NFixYgPnz56OpqQnNzc0iFI3fw1QFMw2zD1KWDAYDRkdHRauQclbk+br3+/2IRqMK46qGqSMfv+K0hqDWJ5t/JoeBcx5FUItsoGNl/snD2bmxDICIoip0/UL3lc/YVgyYcyVRg4azAScIlL8of0fgClAymUQwGBQ5d8VowTkb0H2aTCaYTCakUimMjo4iGo1OauWksFI5HKyc5qecoNNN5HNwYWymlLRMJqPob5ZMJhXefd63ttz2ULmhUFgoPTe73Y7FixdjyZIliEajCAaDGB0dRTAYxPDwMHp6ejAwMICRkREEAgGEw2GMj48jFoshmUyKojekuNFv0B+1jjCZTLBarbDb7XC73aipqUFDQwN8Ph+amppQWVkJp9MJr9cLl8ulUEKB0z0Q+fU1zD3ImETRKNTn2GKxlHUxFzLKjYyMCAOrhqlDNiSpKWi0z+PxuKjKnM1m0d3djeeeew41NTVYunQpmpub4XA4FAZLOYSVlHrgtHGVyzmcpsi0hb5Lp9MYHR1FZ2cnDhw4AJfLhcsvvxxVVVWqCmm++1b7rJjomaYkaihJqG2idDotwpT4BpW9XERoAoFAUW3GmQT3pNL9BwIBRCKRKYXCUHhhIcKtoXjgdDrR0tKi2rT6bAQzi8WSE7pjNBoRi8Xg8/nQ3NwsQo01b3LxQ96/cogy/95isaC6uho1NTXQ6XRIJpOIRqOIx+OKv0gkgnA4jGg0img0imQyiVgspghLNplMMBqNMJvNsFqtcDgccDgcsNlsQmm02+2wWCyiXzCn47IAJ6eilLOnqpRANCCTyWB0dFR4Fcu5+jVXOMbGxhTN0TVMHWpzxj+T29Xo9Xr09/fjxz/+MV577TUYjUZUVlZi3rx5aGpqQmNjo3jtdDrhdDoVTgE555iHsFIKk8FgEMWqwuEwRkZG0Nvbi76+PvT39+P48eMYHBxEMBiEXq/H2NgYbrzxRtHagq4/lfVQrGtGUxI1lBzULOLZbFYOQEHhAAAgAElEQVRRppw+48oiVfmklhDhcFhxXDmBCBwRO6PRiHA4jHA4jIqKiknPp9Ygcqy/huIDCczr1q3D6tWrsXPnTlE44WzD8KhPHxUL0Ov1iEQi0Ol0WLNmDVauXAkAWtGiEoQcDiob1tQqC9rtdjidTlVlk4oZ0Ws5V4foiZzfyPuHyWGqalVECymO2hqcW/A85Wg0CgAij5l4UrmArz+ijfF4XBjpyk2mmE1MNlcUhQCcjm7x+/347ne/i7/+9a/Q6SbqVUSjUZw4cQLAhJHLarXCZrPB6XSiqqoKXq8XDocDdrsdDocDFotFkQtJ147FYojH4xgfH0cgEMDo6CjGxsaEQYwiJwhELx977DEkk0nccccdcDgck95vvjztYpK1NCVRQ8mCW4BIGeLhpgQ1gYYs3uUaJseLjAATc0AEbjKQp5UzumIiWhqUIEG6tbUVd911F3w+H1577TVEIpEcb/B0YTKZhJEBgKiMedlll+FTn/oU6uvrVb1R5bafyhlq+5xoKg+54lZ4+oy/NxgMObmJ8lqQvX/0G2pWdy4U8mNkaJ7E4gI9C5vNpuh3XG6RBtxQYTAYkEgkhFccKE/j82xBrU4CoF7QhXpSfuc738HOnTtFTQRqJUF/sVhMFBPKZrM4dOhQDu2S6RFXFjn9UqvQy2VHTud++ctfwmAw4POf/3zeKrf5UniKUc7SlEQNZQPyJBYCKU4U+hSLxQCUH0GXGRgJ+jx/rBD4vMjX01A84GvWYDBg8eLFuO+++3DnnXciEomIHMKzAVc0zWYzHA4H3G43bDZbzjjKaQ+dL8j3zNSUu3zHqQl3hdbdZIYENeFQTUjj19LW3tyDK+stLS1wu90YHh4WETzlxkOINlJRr9bWVjidTs2rnQeTPX+1djSyQhWLxXD//ffj5ZdfhtvtFtFj3AghG7C4kUmNtsiQQ1HzKXVccaWxplIp7NixAwaDAXfddReSyaQwHJQiNCVRQ8khn8JCSfJTKbTi9XpRWVkJv98Ps9lcdlVOqbADJ7gNDQ2orq6e9NxsNityEul9Oc1NuYAzO/ozGAxwuVyK3nEz8ezo+moN2/lYNJQOJssBms55s4V8QpmG4gT3ylxwwQVYu3Ytnn32WaFElRM4fY3H46iursa6devg8XjKThk+F6D55GHJnH8lEgkAwD333IM333wTlZWViEQiZ+ylniqtyyf/qD1jUkbT6TR++MMfwmw244477sgpkpNvLxRj5FZ57VoN5wXyhSZQ1VK1Y2ULdGVlJTo6OhTWaMqlkFuvFKrKNpsV2/jY8xEktabmBF79DwDWr1+vUB7Ufotb6ziB1BTF4oWcp0X5P7QuKAz7TP4SiYRiHfG8sakYYzRo0HD+gHiSTqeDy+XCNddcg8rKypzv1QyQnHedbZg8x2R8VO336LXM36ldC6e5pBhs3LgRy5YtEy1aNLo4dfDIA0ptAE5XWicHwNe//nXs3r0bZrMZ4+PjU2q/JT9/eqZT/Ss05nwRFNTf9T/+4z/wyCOPiMgsKqxYShVwNSVRQ0mhUNgjVTeVISuImUwGXq8Xl156KebNm4dEIqEIG8hkMuI6ag1PuWJGOTizAZkRcaJFr6n1AY2ViCDlgej1ekSjUSxcuBDbtm2btHAA/RbNiaYclg54/oTBYFCsizP94+uL/4YW4qdBgwY1EE1Ip9NYsWIFvvSlL8FkMimqfvKecrLQTtfgtGW6ArzamApdk4N/znPReH9Y4rFU6GTjxo247rrrUFNTo4WangHktBYyUlIoaV9fH77xjW/gL3/5i2iJYzabodPp5lThKrSmDAaDUBR37NgheobyPsYzaQyZLWgrWUPZgKxNHHwD8yIumUwGa9aswfXXXw+fz4dUKiUqOKbTaVgsFuj1ehHikI95zSVSqZSicTWFadD4DAYDQqEQmpqa8OUvfxm1tbVTCqulcFMNpQOZUcmfzQRkK+xkx2rQoOH8gtyaRK/XY8uWLfja176G5uZmhEIhRdVt4kdGozHH4KrmpZmqoiefN9l33AAMQBja5F6cchikXq/Hpk2b8NnPfhZLliwROf/FIiOUEngUDHDaAN/d3Y0f/vCH2LNnD4CJsFPqA82fST7MpmGTR2DJHnFa32azGb/4xS/wP//zP/D7/QBy27IVM7/UchI1lAUolr2QcsMtOAaDAXa7Hdu2bYPZbMZ//dd/obe3FzabDSaTSeTkEdHn5d15yB23Ls401JpRc5hMJqHQmUwmUWGNYvSDwSAWL16M+++/HytWrCjohZUJnDyP/FyNARYX1MKk6PVMMka+BgoxtWJmeBo0aJg9EB8mHgtMCPtbt27FokWL8Mgjj+CFF15AIpGA2+0WnjjKn1dT+HgoIv9MjhAqhHzpGvSd/BsU5kiKCvF5g8EgqmbW19fjuuuuw9VXX43a2lpRFE9TEs8c3AubTqfR1dWFn/70p3jllVfEM7RarcIrPZcVc9U83/w99Qel8NJf/OIXSCaTuOGGGxQh2MUOTUnUUNLgG5U8ifkYCBEfIvyZTAYOhwNbt25FfX09fv7zn2PXrl1CUSTvIjEL3gOMWxJnC/mYDd0zMVar1aroQxUOh6HT6XDdddfh7rvvRmVlJRKJhDhO7oGm9pvUJ5F+T0NpgFvGZzKnR36fz2CgrRUNGs5fkMJF/IV4qF6vx6JFi3DffffhIx/5CB5//HEcOHAAAESvOu7Fo7A84rWA0mjK/08FagoojdVoNAp+ykNMef88agUUCATgcDiwZcsWfOITn8CiRYtgt9sVvT4JmqI4fVCOYTqdxvHjx7Fjxw688sor4nuS2+jZpFKpOeu9KRvW5TBlXjgwk8kgEongN7/5DQwGA6677jrU1tbOybinC01J1FCSUFOguJJIUBNm5fxDg8GACy+8EAsWLMCzzz6Lxx9/HCdPnoTFYkEkEoHNZhOtBMh7R4VBZlNJ5Eoavw/ehJrGQcqh0WjEypUr8ZnPfAYf+tCHRONrUhALEVRSLDKZDOLxuKr1VsPsgTMY/rwns04Xei4znVN6JlZyfl/yZ/K+1PJ5NGgoXfD9TAI8CfOpVAoejwebN2/Ghz/8Ybz++ut4+umn8e677yIQCMBmsyn6c3I6yD2T+SInJqOD8nFcyJfpE/1+JBIRuXGVlZW48cYbsW3bNrS3t8NqtYr7VAt71PL5pw96Fl1dXXj00Uexc+dOhWeaPHP0rGQP3rmG2vOVx0NyF0V3PfXUU0in0/j0pz+NqqoqBX/nRpFigaYkaigL8HBTNeJMmzYSicButysYAxGcqqoq3HHHHbj66qvxzDPP4LnnnkNPTw9CoZBQsvg5vPLZbGxsNcampjCmUilYLBZcfPHF2LZtGy655BI4HA5FPgXNSSqVEvkWaiAvIlU3JYuYPA4NZ4583mFiELSu6LmdqbAxk2GmZ3qsXHlX3i9qApoGDRpKF7S3yUMHTKRGUNXKbDYLt9uNbdu2YfPmzeju7sbOnTuxc+dO9PX1YWxsDPF4HAaDQfyphRZyuliIfsh5Y3LIPFdKM5kMYrEYstksLBYLWltbsXjxYmzatAkbNmxAZWWloM+y0ko0fLI2B+czpsJL+vr68Mgjj+Cll14S8gqfW/6+GOQRNQcEveZ8nNbD2NgYfvvb38JqteKaa65BRUUFAIh7LTZDqaYkaigpFBKYeeGafIoiKYgAFJZKfg2fz4c77rgDN910E/bs2YMXX3wR7733Hvx+P0KhkAih4YIuJ1izRbh4+A1VzmpqasLatWtx2WWXYeHChbBarQrGyS2zABRVL+W5IaRSKUV1Uw2zCzmvgVsW5V6XpQSeZyTna6gJbrw/lgYNGkoXnI7xWgAUukk802g0YsGCBWhvb8dtt92Gnp4e7Nu3DwcPHkR3dzdOnjwJv9+PeDwOIDdPn14T1PIZOY2h31U7xmazwefzobm5GYsXL8bSpUuxZMkSeL1eoeCSd5SEeTqflACj0ajwoGqYOrLZLE6dOoUnnngCL730EhKJhKIKKD+Oo1iURRlc7qLXlNsaCATw61//Gl6vF1dccQVsNhsAFCXP15REDSUJHprGGQDPSZQVRR6iwK8D5CqVZEm86KKLsHHjRvj9fnR2dmL//v04dOgQBgYGMDo6img0KhRT7gVSu7ZaDLsaE6NzOSOyWCyw2+2oqKhAe3s7LrjgAnR0dKCtrQ0VFRWKthzc4pbvftVAvx2Px0UeZrERrHJFPq9xKc+9vNbovVxlmNY/3ascMq5Bg4bSgBq/JcOPTMu4kZZ4VmtrK9ra2v4/e3ceJHd533n80/dMzylpJKFbSLIEGGzAUDJswLZ8YGLHycZOTGEnxo53nQ272KlNZSu7m6OSra1Uxbt2Kjje2ImJbezahGBDIMHgEIGRWGFLGIzQiYSOkUYajTRHT/f03fuH6vvo6d/85tA13Zp5v6pUmqO759fdTz/P832e7/M8+rf/9t+qWCyqv79fvb29OnbsmI4fP67BwUENDAxoeHhYuVxOhULBneVqAaBfl1r/wJaKJBIJpVIpdXZ2at68eero6NCyZcu0ePFirVy5UsuWLVNXV1fdGkn/Ofln+PnHY/n82+D8RCIRjY2NKZfLqaWlpa4fFzYAIDXvOnh/gMRPmbVylc1m3U6tfvvXbAOllGZcUSbrPFarVRWLxXHT9dNJ1wtWOP73sVhMPT096unp0e23365SqaQzZ87o2LFjOnnypHp7ezU8PKzTp0+7xstSNu2YCls7aJ1iv2KwmcF4PK6Wlhal02m1tbWps7NTCxYs0KJFi7R48WItXbpUV111lbq6uuqCQKtIL9XopV13s1a+s4lfNm0mLbiN/JUaMFkqdNhn0QYf/EESS4f2G1IAs5dfx9nX9tlPJpNavny5li1bVhcolMtlFQoFjY2NKZvNKp/Pu7WDpVKp7ozjWCymRCKhZDLpBlrT6bRaW1vdhjlhwmYsg9eNSysSiWj+/Pl697vfrR//+Mc6fvy4EonEuAH2YHlp5vfC2sBkMunWtiYSCZVKJd1666265ZZb3HmPksalMjcDgkRc8ayisPUE1tm+kCBnomDRH6GMx+NavHixFi9e7EaKyuWycrmcGwXLZrMaHR11o51WQfjrzSKRszurJZPJuuCwvb1dbW1tamtrUyqVqktT8DvTfiVp6z8uRWCXy+Xc42Nm5HI57dmzR8uXL9eiRYuaas3FhfIbOxskseNZIpGzBySfOnVKa9euVWdnp+vUha0/AjB7hNVrE2XWBDNvksmkEomE2tratHDhQkn15zNO9JhhAUbYMVOTzVrh8rHB/Ztvvln33nuv/vqv/1qZTKZuyYKfrdXsAWIsFnNZZtVq1Q2AlstlrV69Wr/6q7+q1atX1x2z4g/+NwuCRFyRwipx25XTRmuCaZ7nI5h6GrbTqHQuZSYej6uzs1MdHR2haSrB74ON1mQb4AQX2vtBYbBRC1uncb5sVNZew2avjGeDwcFBPfjgg6pWq/qlX/ol3Xnnne4spemk/Db6/QmWUal+VDQSibhjZfr6+rRlyxY9+eSTWrBggR544AH3ufFTrAHMfmHtZHDpxUSzRmGpiP73k61lswyeIALExrC+VDqd1kc+8hFVKhV94xvf0ODgoNvAyF9eJIXvXt8sLKuts7NTuVxOiURChUJB1157rX7zN39Tt9xyi9sY0M8qK5VKSiQSjb58hyARV6ywBsNm7Sa73cX+vWCjFNyQw74OBoLBa/UbuKkCseD6wuD9/WB4oiB1unK5nBuZJeV0ZtgI4o4dO7Rr1y49/PDDuuOOO7Rp0yZt2LBByWRy0veiUY1ksLH2r9FGUiORiIrFol5++WU9//zz+n//7/+pr69PhUJBd9xxR13qdbM1kABmxnTbGrudP3BmdUawLfUHd4NrCKeqT2n7Zk7wfWlpadE999yjFStW6K/+6q+0e/du1Wo1l356Jbw3tjZ1ZGTEZX+9733v02c/+1mtWbOmLuD11+c2W/tHkIhZw9JNw9bTXY7ZMP8D7v9ssvMFw76eaIYxeM2TzRpeyhm/bDZbl27qPy6zipdGcC2ipZvY+pmDBw9q586devjhh7V27Vr93M/9nDZu3Kgbb7xRqVTKbSxk770tjDf+yKT/N/1ZusnKqV8Gg5tDhQWEflm0f5lMRjt37tQLL7ygbdu26cCBAyoWiy6N2o6rMZaOSvmaHr/u8Wdhr4QOVCP4G51dzJIEXD5hs4gT3cY30RrC4CBqWMqpL2xmMkwzz2A1s4leV7+t8VOHb7/9dt1www361re+pSeffFK9vb3q7u6uO37EdkENO0dzMpO9z8H3d7Iy6Z9b7d/Gzq4uFotau3at7rvvPt19991uQ57gLPZ0BzBmGkEiZgVr+EulUt35gOZig5uJArbg76ab7jlRhRNcWxH8vW0E4p8V5N/uUlQuFmjb44YFBbj0rMGz9TZtbW0qFovav3+/du3apW984xvq6enRunXr9La3vU1vfetbtWrVKnV3dyuRSNSdKWZlw290pfry5AeM/u641sD5QWZwtjy4m65t5rRv3z69+uqrOnDggHbt2qVMJqNCoaBUKuXW29rB2rh4wTM1gxjUOScYJFj5pcPfGGFpnWGpp8Gv/fbofJZXTPQ+hw28Tveacen570cikVBXV5c+//nP64Mf/KCeeOIJPfXUUxoYGFAymXT7OUhnd8X2lzfY59sGYf2jS/yALmyw1P75myAF20P7ulQq1Z09XSqV3CaK69at00c+8hHdfffd6unpqauvrxQEibhiBVM7pbMBTrFYdL8/n0ZkMhOlmgZ/N9H9gtcdvE/Y7GBYimpwdijsmIvpmGgNh3T2sFf/75xPI4oLF4mc3ZQhGo2qUCi4MpBIJNTS0qJqtarh4WH9+Mc/1gsvvKBoNKru7m4tWrRIixYt0sKFC7V06VItXrxY8+fPV2dnp9LptFpaWlwDGWzswsqZNaIW/FlQWC6Xlc1mdfr0aZ0+fVoDAwM6ceKEjh8/rmPHjmloaMhtHFWpVNTS0qJ4PK5UKiVJbubQdvLFxQsG73w+J+Z3HP1Dq1kD21zC6iQzURk/n0HS6bTTBIMzL+w9sOBOkt7ylrfod37nd/SpT31K//qv/6qtW7fq0KFDGhoacn0+P0Cs1c7uFeGftRjc+VZS3YB48O9bO2WPF1ZX2JnZtdrZY9PWrVunq6++Wu9617t06623qqOjw9027GzuZkdLjVnDZmLCZikupvM0ndHNi3m86T5OWCrNhTzOVLLZ7LjA8Eqr2K5E/gxdJBJxDZSlk0pyQaNtm53P53Xw4EHt27evLvCz7d5tRtICzdbWVrf9uz2GjbRKcrPxdlambTU/OjqqbDarsbEx9ztL67YZzFgsVredtzXM/rEv003nwvT4o96GYHFyYemIzbaj4FxwqdrOqX4/2X0m+t35/hwXJzjLL6mu7bB/tVpNCxYs0Mc//nF97GMf0xtvvKGXX35Zb7zxhhuszGQybjbP+oLBCYVareYGQCcbkPDbLv9arb2zMzeXLl2qNWvWaMOGDbr22mu1YsUKFzyGPZcrCUEiZo1arVY3k3ilfRibxfDw8ISjZrh8gjMdfnAonTtk10Y1/SMjbLZOOtcgjY6OKpPJ1K1XDAZu9neD12H8mWprLKPRqEv1CaavBgNCv2G0n1G2Lh3r8AQ367LfYTw/jcz/GQMXQOP5a0aNzfr7wV40GtW6deu0YcMGVSoVnT59WocPH9aRI0d04sQJ9ff368yZMxoeHlY+n1c2m3XLkeyfvw7STz+1f/F43B1TZksm5s+fr/nz56unp0crV67UihUrtGzZMnV2dtYN7NqRF362gg3KBjPCmhlBImaVQqGgQqFAeuRFyGQyvG4N4o90WtBlI5L2fXAb8ODMnVS/q19wt7SwNG3/52GdZX+k17+9H+z5I6728+DmOv7PcPFqtZqr8zA1K3ejo6PuZwSHQOP5bVpYFpMFj8GgzrJZbMnFLbfcokgkokKhoJGREZ05c0bZbFZDQ0PKZDLK5XIqFosqlUoqlUpuUkE6224mEgklEgnF43Gl02m1traqq6tLXV1d6uzsVFdXlzo6OlxA6LeN/jUFd9a1r+1s7SsFQSJmjUgk4lLkfASM52d4eLhuRMzw+l1ewc5q8GxOf31GMGDzBden+bOG/t+ZbOOIsPSfsL8z1QyMf522NiR4Pbhw1WrVpQAHZ4ZJO63nl8VMJkNwCDSJYFA4Wd3ln78b1pbYY6VSKS1atEg9PT3usYO3m6q9C/vebu8P5vo/s6/9jbH8tHZ/2cWVgCARs0pwZAjnL5PJ1KUZ0pmaOdbQBLfT9htDf7ZwskY1LAicqNGzr4OjtsHbTbbmx79/8FqDX/spqPY7/2tMXzabVTablTTxma32tR394JvoM96ITkxYmQ3yPws2Ku8/r8k6mfbzM2fO1D0WAxdAY/lppmHrhsOWQfi/t58H256J6rawZRbB+wZvM9GxURMNmIZd55WUaioRJGKWCW5cQwfg/OVyuXEjbBIzspebjUpONap6vsFb8LaT3eZ8fz/VbacKKu17AsPzZx0TS6XyTdRBqtXObtjgpzAHO2fNPsrtp1xLcme6+mt1ff7GTHa7o0ePKh6Pu/VBlD+gccKCNl8w2DI2MDRZO3MhqZ0Ttbfnc9uwv9vM9epE2NILs4J1psvlskql0pSVDsI7kpVKpS5IlKauwHFphK37m62vvT3HsHP+ZuPzvVyi0ahGR0c1MDDggqGwgbFyuexm2yKRSN3mDf5rHzw7sJEmmgkM6zBONGvqB4F233w+rzfffFOpVKpudB84H8F1aGG/B650zCTiihWWLmBrEsPS3XDWZDNKdtSBn84lXZnn+1xpwlJt/N/NJpZq6s+UzrbnOBOi0ahyuZyOHz+ubDarzs5O93N7XW3mUDq3yYN97a+dkZpnUGKya/BnEP1z0HzBwQf/TLS+vj6dOnXKlUE7DBuXF+vb0QiUtYtDkIhZpVwuu0O7pebp9DSjsLTFfD7vzg/yNXsK2mzgr6uw7bln6yzHZIM4DEZMj5WNYrGoN998UwMDA2pvb3dBkb3G8XjcBY25XE579uzR7t271d3drZtvvllLliwZN+vYqB1op/qbweNfduzYoVdeeUXd3d265ZZbtGLFCrc5hM2m+jM+sVhMO3fudGs4J1pLhMtrNrQnV/r1A9NBkIhZIxI5e/7V2NiYW7eCifmzhdZoZ7NZNxPLbOzMso5sMOVvNnZi7XmGbVyD83fkyBEdP35ca9eulXRuQ5ZKpaJ4PK5cLqdMJqMHH3xQP/rRj5TP51WtVvWud71Lv/mbv6nVq1e7179Zjyjxy0i5XNYTTzyhBx98UKOjo4pGo+rp6dEnPvEJfexjH3Pnk/n3sU1uXn31VZXLZbW0tLiA2P4HLsZsq6cBWmXMGjYDk81mxx2WjKlFIhFlMhkVi8Vxs4w0fpdXJBJxh9NPtkPobFKr1ZROp10qpGnGAKVZ2ZrC06dPa8+ePRodHa3bxMUCn3w+r9/7vd/TY489pnw+74KoLVu26LHHHtPg4KA7x7IZX3/7DBQKBZXLZe3atUtf+cpXXGp8Pp/X0NCQ/vf//t/6+te/Xpe6bf/i8biOHz+uPXv2KJFIuCB6Ng7CNMpk6/SC7weA5keQiFnDGvvR0VGVSqVGX07TCmuk7fvh4WGVy+XQrZsJFi+faDSqVCpVN5sRPOJiNrF0wXQ6Xfe8Z9vznAmxWExjY2N67bXX1N/fX7dxl6WOf/WrX9WWLVvU2dmparXq6sdisajvfe97euGFF1StVptq4xrjX0sqldLp06f11a9+VUNDQ4pEIioWi+ro6FA+n1c8HtcjjzyizZs3q1KpuGC5VCqpWq3qpZde0uHDh9XS0qJisejqueBABRDGbwenCoSB2YAgEbNKtVpVLperOyuxmTo8zSJ4pp19PzIyMm4tj90GU/PLWnBDFn8HSf+oAZtRu+6661xgGDyeIOzvNHvwaIGg/1m0IKRSqSiZTGrNmjXq7OxUuVyu20jF1pRJ9WdR+em4OMtmDHfv3q2DBw9KktvMJRaLKZfL6ZlnnlF7e3vdekN7DwqFgr72ta9p+/btLrD0P//++lgrk5er3IX9Tf9acrmcvvGNb2jHjh2Kx+OqVqtKpVLK5/PuOeXzeb388suSzm2dn0wmVSqV9KMf/cjtempHYODSCQZJwaDKLz/NXHdN11RBI8bj9ZqesA3FGvGaESRiVqlWqyoUCnWbr1AZTY+l6vodM4nR0fMR1kkK8s9ClM52ZNva2nTrrbdqyZIlKpVKLl3aHsvWV1mAeSWs3ysUCqpUKmptbXXBn22iUiwW9Za3vEU33XSTkslk3Tq4SCTi1sXa0Q3mSnnuMykSiSiRSGhwcFDPP/+8Tp486QKtaDSqTCbjAsZoNOoC8mQy6XYIHRgY0N/8zd9o165d7r3yy6A/4HG561MbJPCDxWq1qmw2q4cffljPPPOM4vG4Ox/RbmOzgeVyWYVCQYVCoe4xn3/+eR06dMjNpFoKKoHipeUHhNVqte64FfvZ5R5smAlWPoPPK1i/4yy/LaM/MbWwPkQjXjNaW8w6mUxG+Xy+biT6QjVrQzbVaFxwhDP4L2y2KhaLua3hma25OFOVGb+RtP/XrVunD37wg0omk24WLhaL1c2qTOexm0VLS4uq1aqKxaILEO0c056eHr3vfe/TqlWrXKqpn+oYi8VUrVbd2rHZmnZ7sazsWGf1xz/+sfbs2ePWHVarVS1cuFC33Xab26zGXm87GsM+/9u3b9d3vvMdnT59um49ox8YzkRmgT+LLMkFdS+88IKeeuoplyliAwv2nGx9YXd3t66//nq1tra6+m1oaMgF0Pb4tqlN8ExJTC1YDsJmCP12xf63gQq7j81c+3Wcf//L/XkPaxuDbFBFUt3O6dLZshqPx+vqchuIsUGWYAS/xjUAACAASURBVPbDXN1ULyyVnWBxcs0w60oiPmaVWq2mfD5/yTauadYKbKrrmuz3YWmk1mDbxhfB2zfr69BsgpW5//paJ90/s86/X3d3t+6++24dO3ZMzz77rOucWOpgMFhq9vfE7wzZrJZ0Nni888479d73vlfpdNp18v300ng8rtHRUTfLc6U850ap1WpqaWnR6dOn9fTTT2vDhg1asmSJe83vuece7du3TwcOHFA6nXavtx8gpVIpPfvss1q3bp3uuecetbe3q1Qq1XXsZ2Im0YI3/+/s2rVLjzzyiI4ePepmo+1aLO1UOttpv+2223T77be776vVqrZs2aJXXnnFzZwGB8swffb+SHKzuTYja8FepVJRX1+fDh06pGPHjmlkZETpdFrpdFpr167VmjVrlE6nValUlEgk3OP678VMvi8T/S2rf8fGxtTS0qJYLKZsNqvh4WHt3LlT/f39yufzkqTu7m4tXbpUq1atUk9Pj1KplIrFoqvv/SyQ4Lr/uSLY5hk+g+OF9SWCSzBmAkEiZg1r8P1jHDA16zBFo1ENDQ2FNl500KfHKvKwdXRnzpxxW++HpY3WajWtWLFC9913nyKRiLZs2aKxsTFJ57bvv9KCREl1ncj29na9973v1T333OOCGLudBS7+7E5fX1/d82XmZzz77FpZevHFF7Vx40b9/M//vJLJpCTp+uuv16/92q/pS1/6ksbGxlyQJdWnd0YiEX3729/W0qVLddddd7nHD6afX87yF5xhP3r0qL73ve/p9ddfd8/RDyIrlYrbiOaaa67Rxz/+cc2fP9/NLB46dEg//OEPderUKTfgYvdnNvH8+bO39pm1tndsbExbtmzR97//fe3du1dnzpyRJCUSCeXzeSWTSaVSKS1atEibNm3SL/zCL2jVqlVKpVINey6TsTW8ra2tymQy2r59ux599FHt2rVLw8PDKpVKbkbePlPLly/X29/+dn3yk5/U8uXLlUqlXHaIDcxYYDyX+EsxgsEin73x/NerkYNZBImYVayh8o9xoBIK578u1vmyIDGsU4ipBStz/zU8cuSIhoeH1dnZGZq+Z7Mia9as0ac//Wn19PTo+eefV29v77hRxCuhPNumNRbcrVy5Uh/4wAf0oQ99SEuWLHG3CwYF9ppkMhnt37/fdagoh+HsdSmVSopGoyoUCnrkkUd07bXXasOGDe51fe9736vjx4/rO9/5Tl26pqS6IPzMmTP6+te/rmXLlunaa691nVs/kLzcz8VmkIeHh/X444/rhRdeGPe5shTTRCKhbDarlStX6r777tOGDRvcY2UyGf3gBz/Qz372s7oBFn83XYLE8xM2SFWtVtXf36+//du/1eOPP65cLqe2tjZ1dnZKOhsktra2KhqNKp/Pq7+/X9/61rf0k5/8RPfff79uu+22utTnZuHPuD/66KP6i7/4C5VKJaVSKcXjcaVSqbp00kgkohMnTujw4cPasmWL/vAP/1CbNm1SsVh0ZdrSU+daXWavE/2K6fHrq5lI85/I3JvvxqwWiZzd9MIPEqfzwZpqXcKVYLrPIWxkKhI5uwGEHUyNCxNMYbPvE4mE9u7dqyNHjrjjB8JeZ+uor169Wp/61Kd0//336z3veU/d0QU2Mxdc69JsbOOQ7u5uve9979MDDzyge++9V0uXLpV0bh1TWEqqJL322ms6cuSIksnkFf25vJyCnQdby7p//3595zvfUSaTcbdta2vTRz/6UTfD6Hds/Vm5trY2HTx4UA8++KB6e3tDy9nl6qz4AcjY2JieffZZ/eAHP1Aul3PXaAGdzRRWKhUtWLBAn/70p12aaa1WU7FY1LZt2/Qv//Iv7jxFP32bdLcL539mrb7bt2+ftm7dqlKppI6OjrqNj2yPgGKx6GbVWltbtW/fPm3ZskUjIyPjZpca/Zm3vx2NRnX8+HE99NBDisViamtrc8/ZUmylc5+jRCKh7u5uDQ8P6y//8i/dgIw/8zoX67JisejWn2Jqfp3sH08005hJxKxhH6p8Pq9CoTCuA3U+FXOzjWhOZqLndb4NUS6XUyaTmTRIvFJek0aYaLTPAqHTp0/r2Wef1Q033KD29vZxnSJ/piYajaq7u1ubNm3S+vXr9eMf/1g//elP9fLLL6u/v9/9nXg87mZUgtdht5lqFDJY1icauQx7XsHfW/pVIpHQ4sWLdcstt+iWW27RjTfeqBUrVowLoKX6tYsWAIyMjOiJJ55QsVgct3kNzvFfT8sAsI77c889p1WrVuk3fuM3XOe0p6dH9957r3K5nDZv3qxyuaxEIuEG1Wxzoba2Nm3btk3f/va39Z/+039SV1eX+3vS5a8fS6WS9uzZo3/4h39Qf3+/UqmUCzrsGu128+bN0+c+9zl98IMfdIMnlUpFu3fv1qOPPqpjx46NmwUl3e3CWRnz16rWajVls1lls9m6NdT2Xlg5tdv7gfrQ0JBGR0fV3d1d9zfMTLw/E9UrVjedOnXKzdQH6yH/NbD72Jmd9pp0d3e7gPJyp2s3I8twOH36tFvHGpZ+OlkbNdtM9FytDbRN3wYHB+sGImY664EgEbOOBYl+53OqSjlskfCVUJFPtBB8uvxOkzVoYSmTV8Jr0WjB1yf4fSKR0LPPPqubb75Zd91117hZjbDZXUlauXKlFi1apI0bN+rAgQP62c9+pp07d+rQoUMaHBx0HRJ/R1RJdRuTTPSeTiR4XqO/MYhdm80wlUolFYtFpVIpzZ8/X2vXrtXb3/52XX/99Vq7dq0WL15cN/DgzyD6HQTb0CGRSOixxx7TT3/6UzeLaJ9lyuB4wffSXutCoaDvfOc7mj9/vn7pl37J/W758uX69Kc/rba2Nv3Lv/yLMpnMuB0abUbxn//5n906WZvpvdzvQSQS0ZkzZ/Twww/r4MGDSiQS48qxHXV03XXX6VOf+pTe8573uNnRaDSqQ4cO6bvf/a527twZWvYpRxcnbCbWBhmkc1kB0WjUBZQWJNr39p76dZb/+P5jX673bLI6MOz5Wd3lb5YUVndbqr2/cY09f3+H4dkkrO2y/2OxmEZGRnT48GFt3Lixrr6x8jDXBAet/P6qZRuNjY1p//79dfsRzDSCRMw6pVJJuVzOVcZhMyWVSkWDg4PudtVqVe3t7Uqn0y6dxN8Jb6LZtUblioel5lgnOxI5uxYnm826TSpaW1vdc/MbOL8BHh0dVaFQcK+ZbzqjfZhcrXZ2590HH3xQPT092rhxo/L5vFpaWiTJBUh+Wol1tlKplFauXKkVK1boHe94hwYHB3X8+HHt3btXu3bt0oEDBzQ4OKihoSHl83l3H3/9iz9LOdFouF2n//f9EfJisejKWCwWU2dnp9asWaOrr75ab33rW3XNNddo8eLFmjdvntu51DZ/sM6S/T373Fm5tVnRJ554Qg8//LDy+bxaW1vdfWZqXdyVZKLOur2fmUxGX/3qV1UoFHTvvfe6jvzq1av1uc99Ttdcc42+//3va9euXa6zZilzdt7gz372s7o68HK//pVKRWNjY9q3b5/GxsYUj8fdulQ7TmXevHn66Ec/qg9/+MO69tprXQc+Foupt7dXX/va17R161YGGC4Df3DLHzzyzwj0ZzysvbFy6bdXtVpN5XLZnadowUKlUnH3mygt+HxmtacKBv3ZUXts/5+/qVbYoExw10l7fv7zCdukay6p1Wr6yU9+ove///0uk8bSj4OBc9j7NZs+v36bKtUPINgO6JVKRUeOHNHOnTsbutERQSJmFQvuMpmM63j6FdCpU6e0fft27du3TydPntTg4KDr9KbTaXV3d2vlypW6+eabdcMNN7h0t2ZNd/Cv68yZM3r11Ve1a9cu9fb2anh42M0yJZNJdXd36+qrr9Y111yjG264QW1tbXVpQWfOnHFb3oelNDTra3ClsCCpv79f//N//k/9t//233Trrbe6DpJ/sLefliWdG9io1WpKp9Pq6OjQ8uXL9ba3vU3ZbFajo6Pq7+/X4cOHdeTIER07dkwnTpzQmTNn3GfBNk8IpnxO1CDbTEAymVRLS4vS6bS6urq0fPlyLV++XCtXrtSqVau0cOFCNwDR0tLiZgvsc+d30CdK07Ln+cgjj+hrX/uaMpmMWlpaXIDpz7gSJNab6L209zCbzerrX/+6SqWS7r33XiWTSUUiEc2fP18f/OAHdeONN2rbtm3aunWrjh8/rkKhoEqlouXLl+vWW2/VXXfd5d5D68RczpH/aDSqJUuW6L/+1/+qZ599Vrt379aZM2dUq9XU09OjG264Qbfffruuv/56dXV1uc9NLBZTX1+f/vzP/1xbtmxx6YFhR87gwvm7c1rQ5M8c+mnL1o7Ya2+fdQvK7P2xz3ixWNT27dvV3d2tNWvWKJlMhrZHYWV+sjphqlkYq1PK5bJOnz6tI0eOaMmSJVq6dGndDE80GnV9Av++kw2i+AGA1b1WD88lbW1teu211/Tqq69q4cKFam1tdXXRXHst/DLrf22fn0KhoHK5rOeee06nT592n5FGIEjErOHnco+MjKhUKrlOqyTt3btXX//617Vz507lcjl3vpE/ome7sD3xxBP6wAc+oF//9V+fchSnURWc3/Du27dPjz76qLZv366BgQGVy+W6gMNem3Q6rXnz5umd73yn7rnnHrdOrFqtKpfLuSARl551rlOplI4eParf+Z3f0e/93u9p06ZNSqVSdalMlm6SSCTqOmA+myFubW3VwoULtXLlSt10003uwHrbKGBgYECjo6MaGhrS8PCwRkZGXPkPbiJg5b+trU2pVEqdnZ3q7u7WokWL1N3drWQyqXg87mZ3/A64lSP/7DP7nZ9y5s8OWBBYKpX0zW9+U//3//5f5fP5unQlfybUnjfOCqt7/M6wzUyPjY3poYcecjOKbW1tKpfLSiaTWr16tZYtW6af//mfd2dTplIppVIptbS0uEEy/3283M8nHo9r48aNeutb36pisah8Pq9YLKZkMqnW1lbF43G1tLQoEjl75FE6ndaBAwf0xS9+0c18trS0uJkqe+y51hm93PxMlMWLF2vRokXuqBH/9fZnEW2mpFwuK5VKaf369eru7lY0GlUikdCTTz6pvXv36q1vfasbkFqyZInmzZtXlx1hjzudADB4vf6/kZER9ff3q6+vT0ePHnVZGffdd5+WLl2qSCSi1atXa926dXr55Zc1b968ugDYr5v96xodHdWHPvQhlw3hB8xztRyOjY3p4Ycf1jvf+U7XRgQH8qXZv/NpMB1XUt0mSIlEQtu3b9cTTzyhZDKpZDKpXC7n1ufPJIJEzCr+TKJ1tCORiIaHh/WHf/iH2r9/f126pa15ikTObrpRLpc1Njam0dFRfeUrX1G1WtX9998/4d9qJKtI+/r69M1vflObN2+uSwGy2Rd/RH1sbEy5XE6PPfaY4vG47rvvPrW3tysej6u/v3/OpcDMJAuGIpGI2traVCgU9Ad/8AfasWOH/sN/+A/q6ekZF2TZoct+xyJ4FEYweLLZv46ODkUiES1ZssTN7Nn9TFjasqVX+elWfrnw1+D4f9tPc7S/Y6Pw/rl2/uMlEgkdPXpUX/7yl7V169ZxazT8lDOCw/Nns8+pVEpjY2P6y7/8S/X29uq3fuu33DEkVsa6u7vV1dXlZnvsXDt/N1F/tttPH75U7H238j9v3rxxv7frqtVqKhQKamtr0/bt2/XHf/zHOnz4sAseLe3aZrMnmjXH+bHPfTQa1cjIiBuEvO666/SZz3xG3/3ud7V9+3Z320gkolQq5QZlE4mERkdHNW/ePP3Kr/yKPvCBD7iAvlqtamhoSEeOHNHx48clyQ0I2D9bAmL8uiVM2EyjlQUbHPWPzbLBZVuKUqvV1NnZqf/+3/+7vvjFL+qll15yjxXcvMeyklKplH71V39V//E//se6LIhsNuuuea61tdVqVa2trdq/f7++9KUv6Y//+I/r0nvD0uZnK6tP7XPk/5Ok3t5e/emf/qmy2axSqZQKhYLLrCFIBC6Qv1A+m8269VOxWExHjx7Vrl273EhkuVx2AZSNjvsbfsRiMXV3d+tHP/qRPvvZz4477LcZKjBL/RoYGNCBAwdcCovfKEWjUXd4u1Uw1tGylNvu7m5FImfXMTbD85qtarWaksmkKpWKm7GNxWJ69NFH9eKLL+r+++/XnXfeqba2NrfhgT/7Jmnc+hh7XOnc8Qdhf9fvJPsDCfZ7u5awkXYLEiabUffXF1oH3Q5yt+v3BytisZgymYz++Z//Wd/61rfU19enaDSqtrY2jYyMqLW11TWkYetVKKdn+R3giV6TZDKpQqGgaDSqrq4uPfHEEzp8+LAeeOAB3Xzzze699TcSKZVKam1trVszFEyruxxsoMFf9+qvc7NsCCu/8Xhc/+f//B/9+Z//uUuHzuVyisfj7nb+0TEMNFw8Kx+VSkV79uzRe97zHhfY33777brmmmv0k5/8RNu2bdPRo0fd2v/Ozk6X9XD99dfrzjvv1IYNG9TS0lKXLtzX1+cGI6y+DO6ceqHHSISlvUvnBjys3OVyOR06dEhjY2NKp9OSpFWrVul//I//oddff12bN2/WoUOH3G6d1WpVqVRKixYt0tve9jbddtttuuaaa9TV1aVSqaRaraZcLqfe3l7XJ5lrdZjtopxMJvXYY4+ptbVVv//7v+92w/bN9sEcq89ssMDay0qlouPHj+v+++9Xf39/3Xr94IZPM4UgEbOKdQpGR0dVLBYlne08Dw8PuxF1q9StQ2uVl98Jss0TZmpHvwthlYxt5mAjoNK5WUQLhv0zmmwnTEs3LJVKisfjGhwcVKFQqNssBJeOv1jdOuXValUtLS0aGBjQH/zBH+jWW2/Vxz72Md1yyy1qb28ft2GCX26DI+TTaVitox3spPipy5LGlXk/YLTPiJ865c9y2qY5kupmMG1w5uTJk9q2bZv+4R/+Qa+99pqbKbA08fb2duXzebd5ipVX61zhnKnSTSORiOuYlUoljY2NqaWlRTt37tRv//Zv66Mf/ah++Zd/WYsXL3ZBvb+Bkr0HFtxfigB9ojVk9nN/05KwwRBLpX7llVf0F3/xF9q5c6e6u7vdjqdWXsbGxlw9yLrES8dPf3/88ce1ceNG3XTTTW6maPHixfrQhz6ku+++u26GrlKpqKOjww2W+XWYtcEPPfSQent71draWpfZYMGbzb4E67Cp3ld/J1KpPt3POurFYtFlYZTLZT399NN65zvfqZtvvtkNtiaTSb3rXe/S7bffrkqlokKh4MpZOp1WIpFwabN2ndYOb968WS+++KI7J3KulUU/K6azs1N/93d/p/379+t3f/d3tW7dOve5DUs1nY2vlZ+NY/2x5557Tl/+8pfV39+vZDLp0kv9dnSmyw5BImYV+/AMDw+7xkmSm72wwNE/jLxarSqZTNY1Zq2trW6EyzpN/uP7f2+q1IjJfjfdtRRhj2lrhGwEyr+OQqGgRCLhOod+w14qldwuprZGrlqtanh42AWZuPRsRs3f2c7foCYej2vbtm3avn27rr32Wt1111267bbb1NPTo9bWVlcGg7vsXejsSFhnfaqyHLYLqr8hg31+/BlJG3A5duyYtm3bpmeeeUb79+93gzYWAEpy5dUf0Ag+Z0wu+P7ZoJf/3iWTSY2Njemb3/ymtmzZol/8xV/UnXfeqYULF7r6wB7Lz7CYKFX5QkzUEbRzP60M2GHklhq4f/9+/eM//qOefvpp5fN5FyDaYJddq3/0AOXm0rKgbnBwUH/yJ3+iz3zmM3r/+9/vgi6r6zo6Olz5seUcqVRKpVLJzVCXy2X19vbq4Ycf1ve//311dXWNy2qx9GLp3BE60vQ3rgmmwdt9JblZHOuQl8tltba26tSpU/qjP/oj/e7v/q5uuukmt07bPkuJRELpdFrz589312WDzfY3LJX1u9/9rh5++GFXJv2yOpdYHywWi2n+/PnasWOHfuu3fkvvfve7tWnTJq1atcqlvEvnAqJmHKS/WNY2ZjIZvfLKK3rqqaf0s5/9zKWW2m38QRH72Uxq2lI6WwvGhQiuGwr7GmdZIGTppv7MR7lcdqkjfrqfjfT5BzFbMOlv5GIdEUl1i+d9wfdkqg7KdN5D/7Ngo5e2IU8sFnOjrP76LWuA/bRF67zbjIEFyDbCNzAwMO1rwqVljUFLS4tisZj27t2r1157TQsXLtQNN9ygjRs36i1veYsWLlyotrY2d6SJJJfGGQwW/VTR4A6jk3Wspru+J7idu32GSqWSstmsRkZGNDAwoNdff107duzQ66+/rjNnzriA2E//84NT6v6ZYfXCgQMH9KUvfUnf//73dccdd+j22293G4XYGrDgoMbFrKcKm/0JrkW1erNQKGh0dFSnTp3Snj179MILL2jHjh0aHBxUZ2en0um0stms6+RTd11+sVhMhULBfWYPHTqkP/uzP9PWrVv1gQ98QOvXr1dHR4fb2MrSLW2WzdblZTIZnThxQlu3btXTTz+tgwcPKp1OK5PJKJ1Ou1nDWq3mZvn8GcDp8jvaYen0Fvj5qXwWOA4MDOg//+f/rHe/+9163/vep5tvvlnpdNpt3uX3DYzVf5lMRi+99JK+973vae/evS4I9Qcw5hrLarK1952dncpkMvrHf/xHPfXUU+rp6dH8+fNd/8Zer9nWJlg9l81mNTAwoKGhIddv89Ppm0FTlFR7QewD6s/cYLzZvqj3YlhlksvlXOqRJFexS6rrOFtD5M/u+Ose2tra3Pejo6PasWOHstmsNmzYoM7OTreY3hrA4BEGFqD6jVIwPc8XfF9tFqZYLGpsbExHjhzRvn379Mu//Mvq7Ox0m5z4I63Bs578v2mVrqUGWaBsjVrYGYkTXRsuDwvaW1tbNTw8rGeffVbPP/+8Fi1apKuvvlobNmzQ2rVrddVVV6mrq8t1lm29rR/I+d/7I/H2e99Es+T+7/wUKrvW0dFRZTIZ9//hw4d14MAB7dmzR8ePH3cbItlumf7f9gNW+zkd/Zlhs7PpdFqlUkmHDx/WoUOH9E//9E+65ppr9I53vEPLly/X0qVL3cCEzWj7G3ZcLKtrS6WSS4nNZDLu8O3du3dr9+7dOnjwoFsj1tbWpnw+73ZhtZRaXH5+HRCJRNTS0qJ8Pq+nn35amzdv1lVXXaX169dr9erV6unpcQFjrVbT2NiYTp8+rePHj+vNN9/UwYMHNTQ0VJfRYumexp9FCTNVuxTWXwoOSgVnrKzetGvZvHmzXnjhBS1evFjr1q3TmjVrtHjxYnV2drrbFgoFjYyMqLe3V4cOHdL+/fs1PDzsdgv219rORZZlYqnrFvj7AwInT550Gxb595Nm1+C13x+zWWk/7bmZBhEaeiVhnVrr9M62kYOL4c8i2dc2ZU+n6hw/GLKD5M369et19913a/PmzW7rd/sw+qNVFiRVKhX19PToF3/xF92Ht1wua8eOHfrud7+rq666SitXrtTatWu1YsUK9fT0aMGCBW7dQiqVcscFWCAWnM2xYK1SqdQdW5DP51UoFJTJZNTf36/e3l4dO3ZMb7zxho4cOaKOjg59+MMflnS2bKxYsULvfOc7deLECeVyOdcQ2Uyj/S0/UJ0/f75uv/12LV26VLVaTZlMxq1RZN3XzJuorvM3rxkYGFBfX5+2bdum1tZWdXZ2atmyZVq5cqUWL17symB7e7ubaWxpaXGDATayH9yJ1A8qrXxYebGjVAqFggqFgvL5vPtsjY6O6syZMzpx4oSOHz+uvr4+nThxQoODg+4YC1vLYzPZFgD7M5HBYJR6f+ZYXSdJqVRKtVpNp0+f1pYtW/Tiiy+qu7vbHW1gZczOw7xUHRlbS5jNZpXL5XTq1CkdO3ZM/f39GhwcdDNPqVRK6XS6LjXZyimziDPLn9Hz1wfWajUdO3ZMR44ccWuIU6mUG/y3NfS1Ws3VbRZANev7Z9dZrVZdEPPcc8+552ADtMFzIa3e89ME5/LGSfa62JILP4tLkguWbBBK0qycRTR+Sq3FPtK5eq1ZNDxctUIj1c/gzOUPUxi/grENBfyZKdRvzZ3P53Xs2DHl83m1trYqGo3qgQce0KJFi7R9+3adPHnSrc+zSisSObuJTVtbm66++mpt2rRJH/nIR1xFlc/nlclkJMl12F966SXFYjG1t7eru7tbHR0dam9vV1dXlzo6OlxH3c6V8yu/avXs+WWlUkn5fF65XE7Dw8PuPLtMJqNsNqtCoeACWEv9GhkZUU9Pj6LRqDo7O/Urv/Iram9v14svvqje3t66cyD9EXY7DP1d73qX7r77bnV0dKhSqejYsWMaHBxkBr9Bgg1G2LobS6mz85QGBgZ04sQJbd++XfF43J1v2N7e7s43bG9vV0dHh1paWtTW1qZ0Ol131qGfpmoBgw1WlMtl5fN5V+5tdscvm7bmxjqA9s82P7L6PDjD7jeCYcEqLr9ge2tlzjYdikajymQyGhoa0t69e93PrB67mPcpOHtsM4k2KGHlyA8ywjZNsk1upHNnbmJmBGd4LNCz8yyDn2cbkLU0+eCgVDN+7oP1lG1sE/y99R3sdpJc+r0FAHN9MCz4WbXX0z7Xfhmw9sLPhppN7P33N6QLrulvFg0NEsNSjvyUPYxnDaO9ZgTT51gZsvMAn3vuOd10001as2aNIpGzh/1+9rOf1aZNm7R3716dPHlSw8PD7jyttrY2LViwQCtWrND69eu1atWqukGMI0eOaNeuXa5ys9Q521BhdHS0blRMOrd7mp9e4F+vBYvBETO7n+0U6Y9QZrNZvfjii1q9erW7/ZIlS/SJT3xCt912m/bt26e+vj4NDQ25bcNbWlo0b948rVq1SmvXrtWqVatcYzc6OqqnnnpqynRTzJxgw+h3pqRzx134GyrZTN/AwEBdB8zKkY2I+8FccDc5+xs2Km67qtkuucGOoQ1+BGdywjazsev2xCv1iAAAIABJREFU72/PNfgzXH7B9Hd7j/z1y36wJqku8+FC+WnvfmfJ74D7nSe7Vn8Q0J+RsPozeH4eLj+/7xZc2iDVzwTZex42S9RMneIw/vUFZ3n8OtZ+7wc8lMl6/uvlZxMGN98LayNmi+Dno5k1fCYxEom49DpJpLtNwgqT5b434syUK0U0GtUrr7yiv/u7v9MnPvEJF/B1dHTouuuu0w033OBSO63St5kaf7t0e33379+vxx9/XEePHnV/w28cLeXGn4kLNp7Bn1tl6a/vCTZA/qikzQCNjY3p8ccf11VXXaU777zTpSe0tLRo/fr1uu6669wskH2uLP3VXzwvSadOnXJrSRKJhNsEBTPLnxkJNpTB1C77eTCTwC+3fufLvvc7934ZDF5H2AyBv2V98D5h62qDt51oRLjZG8jZLljO/JlFf5dav1xebGqg/c3Jdpz0A0T/537dFexk0hbOjGCd5PPLi33vd4j9mSNJdefANvPs2mRZDv7sV/B5+a+DPc6VEBRfDsFdvf3XJrhjt19mZuPrdSUFwA1fkxiLxTQ4OKg333xTb3vb28adL4PxO5ru379fJ0+edIfaNtMi10ayD5sf6PzTP/2Tjh49qve///2644471NPT425vmx74I6A2a2Ll8PTp03r++ef1wx/+UK+//rpL9fXTTIINSFhF51+j38Daff01g/5j2ci9pZnamt3e3l599atf1b59+3THHXdo7dq17gByG1W31NfgTFGlUtHIyIh27Nih5557Ti+99JKy2SyfuQYLzjL73/sdqeDvJgq8gv9fTGMb7LRP1lkKu/7gdQbLZDM0lMFA5Hw/C8EgK+y9aibBuiYYqNnzCNt461L8Xf9vBn8f7ANMdDtfs77OPlsvbvXwVAPiFmj4gbvNxjVD2ZroMx428xasz/zPS7MGAsE23f+Zzx9Q87+3r6eqG+eCsEHzyQad5sJr1IyzzcFraWh0YRVfsVjUc889p1tuuUVXX331pB/GucgfPc3lcnruuefU399ft8kPzgmO4r388st644039Mwzz+jaa6/V+vXrtWzZMrcJg82u2Q6iQ0NDOnTokPbt26f9+/drz549GhkZqVsHKsmNigZHvUxYpRgcSQzOzARnXKxjYEdd+BVqb2+v/v7v/15bt27V9ddfrw0bNmjp0qVatmyZ21wiEom4A3+Hh4d17NgxHTp0SLt379a+fft0+vRpd8wHs/iNN1WdF+xMTRWsTecxL/bapnMN07muZqrvg1vbh3Xsgp/1YIqZP5vaTM/NTPUeTbZW9HI9nwsp383OypDtYCid6xxPxH+Odj+rp1taWtwazka8FhMNhgavO2wwwO/LXEnvY7DNDvud/1r4s2RhQVCz1gmX22T1S/D3Yd/PFpM9z0Y+Zz+DxDQ0SLROtiS99tpr+vu//3v9xm/8hhYsWDDl2qjZFhhNVDD8zkapVNJTTz2lzZs3u0aivb3dnenXrIKBz+USNqNnI+HDw8N69dVXtWvXLrfBh20sY4vLS6WScrmccrmcRkZGlM1m69YY2uNdyEx3MFAM+3lYGfBTdIKvowWAb7zxhg4dOqRnn31W6XRaHR0dbttxe15jY2Pu7Lp8Pu82ifDXG5FmirnMPl+2UZR0biMhafptjnWE+TxBkjtGwd/N2jbnmWpgrlY7t/ujLWUoFApNedaeH/hM9FkJ3ibs62Y3Wds/0ez8dO4LNFKtVnOnJvh1UsM3rrFOd6VS0ZNPPqlTp07p3/27f6f169df1Nk4s4FVJpVKRf39/XrkkUf06KOPunTKZDKpsbGxppr9aWQlGCwT/qitNajFYtGt6Tx58uS4dJfgzJ7dPzhSGPY3L3QEfKrb+g1OWIBqgWCxWFQmk9HAwEDdRiETjdQFy81c+EwBE/FnRvwt2i3gm+rz4dc3gLGjmFpbW+uOoJlOO+kfnWRBpmXKNDrguNDZkNkwWzTdNns6v2uUqQaoMbdEIhE3oGU740sNDhItfSKRSLgNNjZv3qyXX35Z11xzjdatWzfhfWdzoQ7OOJ05c0avvfaa+vr63FlW/qGkjExNn791u7+rqFS/LfFEM3/NIjhi6++uZt/764j8+zW6czGRsLVIwEyxz75lafgbt9jxChPNDtrnyj6Xfh0ym9sqTK21tVXlclnlctkdID6dWUTp3KyhdHZjKjt/FAAuJWvn/KPapAYHialUSpVKRWNjY+5cnba2NmUyGe3YsUM/+tGPxt3nfFN/riTB52b/x+NxtbW11R0A39raqpGREaXT6aY6MqSZ35ewoCnswHl/zURwjUwzs+cWPH4geP3N/B4BjWKfHTtD0j9DdarBuEqlokKh4ALDK2HjGswM63zVamcPWLezSCVNuawmlUqpvb1dhULB7bxt+zj4x0kA5yu4uQ4QtkN0w2cSI5GIOwfODtK1kbd58+bV3X6iRdGzyUTr0iyAaWlpUalUUjabVVtbmxuZxPT5r5et9fRTOv3f+wc4N5OJUkgtVW66ayaa0Wz9bKP52U7C/f39+spXvqK/+qu/cun9kx0gXy6XNTw8XHeGX3BWvJk/c7h88vm8ksmkksmkstmsvv3tb+vJJ590s9OT1XflclmHDh1SV1eXa6tSqVTd+ajAdDFohYlY37FYLNbVKw1fk2iNqKVe+COwzTRDdrn5H96wfHZ/vZylq1i6bqMaimCF0+wNlp3T43fawirMsPTMZjXR6z/RuYs0EkA4ayRtsPLNN990n5epjsSIRCJuo6jgz5u9XsTlZbtiZ7NZxeNxnThxQn19fZLklo1MxNbT+30kO++02TauAXBlC+7YLzVBkOhvFGAdckupnEsjsJM9R7+jbztSSuO3XcfkwtIr/M2TpPot75t5I4qwFFL/+QU7tReySyMwF1kKXzKZvKjHmWjQD3OTBXUXUq6C2SwEiAAutbBJhHjwBmE3vtyzDxboWMeWs//OCb4ONhvmb5BwOV8rf11NcFZqMmEH/vrpV43oONmorT87GLZG0efvbtiMJpoVDZvB8APHRjyfsNnyuTQQBADATAv2wyYSzExi8y3UBYlhHWTp8nbggh1b1nDUC5sxmskA0aafy+Wy+7t2ztNki+aj0ai7T7Ns4BAWGE11TVdSuqkvrFw0+rn4AaKts41EIq482W6S/jWez8AEAABzlT/obW2rvxv+ZGxzJXsc/zHYIGnuqgsSR0ZGFI/H3cxJs3Tu0ViRSETlclnJZFJbt27ViRMnprWW4tSpU+4gYMoRLDi0clOpVJTL5fTDH/5Qu3btcmuQ/XJy4MCBhlwrAABXGhto7e/v1zPPPKPt27e7/tdkfbDXX3/dHUVnjxM8QxpzT6TmvfPveMc7lEwm3W6PltooMas3F9koknRuQWs8Hh+XRhrGggHbRj64poLyNPdEIhG3U6QdMWC7G/vpzH7Z8Ec3AQBAuODxO3a0nM0ETtaW2u65FhjaWZ7BfRswN7z00kuSQtYklkoltyiaVK+5zSoIfx1krVZzB/xOlW5qQYA9hj2mRJA4F/llxl/vYKOXwdRzAAAwPTbYakf5WNAnacodcSc76osAce6qKzH+2Tvlctlt6U2wODf5lUwikVCxWFSlUnGH+k5WLqxC8oPLZjxvEDPHRiNLpZISiYQSiYQbiPCPuyFABADg/Pj7Vdi+EDaT2NraOmmfze+rSfWzkpi76oJEKyTJZLJukxKJjttcZCmjNvvjj0JZ534iyWTSpZmGnadIeZp7rNGxdOVSqSRp/DEkM7mzMgAAs4H1ufxNa6z/VigUJs3+sqwva4+t/8cxa3Nb3bSOBQE2Y2SjDsz+zE1+p90qGNuVcqrRpWq1qlKppGQy6c7ADD4u5ha/0bI6JZFI1DVCYUd5AACAqfnnaNtxcpYN5geCwX+S6vYF8GcWiQHmrtCZRGn8eSmYe/zZHEsNnO4B87VaTfF43O1u6t+HCmdushlEYwvjp7MREgAAmFhwsPV8dyf1g0WbFPA3sMTcQ28dAAAAAOAQJAIAAAAAHIJEAAAAAIBDkAgAAAAAcAgSAQAAAAAOQSIAAAAAwCFIBAAAAAA4BIkAAAAAAIcgEQAAAADgECQCAAAAAByCRAAAAACAQ5AIAAAAAHAIEgEAAAAADkEiAAAAAMAhSAQAAAAAOASJAAAAAACHIBEAAAAA4BAkAgAAAAAcgkQAAAAAgEOQCAAAAABwCBIBAAAAAA5BIgAAAADAIUgEAAAAADgEiQAAAAAAhyARAAAAAOAQJAIAAAAAHIJEAAAAAIBDkAgAAAAAcAgSAQAAAAAOQSIAAAAAwCFIBAAAAAA4BIkAAAAAAIcgEQAAAADg1AWJ7e3tam9vb9S1AAAAAAAaLFKr1WrBH27cuLER1wIAAAAAaJCXXnpJEummAAAAAAAPQSIAAAAAwCFIBAAAAAA4BIkAAAAAAIcgEQAAAADgECQCAAAAAByCRAAAAACAQ5AIAAAAAHAIEgEAAAAADkEiAAAAAMAhSAQAAAAAOASJAAAAAACHIBEAAAAA4BAkAgAAAAAcgkQAAAAAgEOQCAAAAABwCBIBAAAAAA5BIgAAAADAIUgEAAAAADgEiQAAAAAAhyARAAAAAOAQJAIAAAAAHIJEAAAAAIBDkAgAAAAAcAgSAQAAAAAOQSIAAAAAwCFIBAAAAAA4BIkAAAAAAIcgEQAAAADgECQCAAAAAByCRAAAAACAQ5AIAAAAAHAIEgEAAAAADkEiAAAAAMAhSAQAAAAAOASJAAAAAACHIBEAAAAA4BAkAgAAAAAcgkQAAAAAgEOQCAAAAABwCBIBAAAAAA5BIgAAAADAIUgEAAAAADgEiQAAAAAAhyARAAAAAOAQJAIAAAAAHIJEAAAAAIBDkAgAAAAAcAgSAQAAAAAOQSIAAAAAwCFIBAAAAAA4BIkAAAAAACf627/926rVao2+DgAAAABAE4h++ctf1sc//nEVCoVGXwsAAAAAoMGikvTII4/orrvu0vDwcKOvBwAAAADQQG5N4vPPP69/82/+jXp7ext5PQAAAACABopIqluQuHz5cnV3dyudTjfokgAAAAAAM+2ll16SFLK7aW9vr3bv3q2RkZEZvygAAAAAQGOFHoFRqVS0d+9enTlzZqavBwAAAADQQBOek1ir1fTGG2/oxIkTM3k9AAAAAIAGmjBINEeOHNHhw4dn4loAAAAAAA02ZZAoSeVyWbVabeobAgAAAACuaFMGiZ2dnVqzZo0ikchMXA8AAAAAoIEmDRLb2tr0lre8hQARAAAAAOaICYPEVCql9evXKxaLzeT1AAAAAAAaKDRITCQS2rBhgxKJxExfDwAAAACggeLBH3R0dGjVqlVqaWlpxPUAAAAAABqobiYxHo/rscceUzqdbtT1AAAAAAAayAWJ0WhUDz30kDZt2tTI6wEAAAAANJALEv/X//pf+uQnP9nIawEAAAAANFhUkv7Lf/kv+sIXvtDoawEAAAAANFj0k5/8pP70T/+00dcBAAAAAGgC0YceeqjR1wAAAAAAaBLReHzcKRgAAAAAgDkqOvVNAAAAAABzBUEiAAAAAMAhSAQAAAAAOASJAAAAAACHIBEAAAAA4BAkAgAAAAAcgkQAAAAAgEOQCAAAAABwCBIBAAAAAA5BIgAAAADAIUgEAAAAADgEiQAAAAAAhyARAAAAAOAQJAIAAAAAHIJEAAAAAIBDkAgAAAAAcAgSAQAAAAAOQSIAAAAAwCFIBAAAAAA4BIkAAAAAAIcgEQAAAADgECQCAAAAAByCRAAAAACAQ5AIAAAAAHAIEgEAAAAADkEiAAAAAMAhSAQAAAAAOASJAAAAAACHIBEAAAAA4BAkAgAAAAAcgkQAAAAAgEOQCAAAAABwCBIBAAAAAA5BIgAAAADAIUgEAAAAADgEiQAAAAAAhyARAAAAAOAQJAIAAAAAHIJEAAAAAIBDkAgAAAAAcAgSAQAAAAAOQSIAAAAAwCFIBAAAAAA4BIkAAAAAAIcgEQAAAADgECQCAAAAAByCRAAAAACAQ5AIAAAAAHAIEgEAAAAADkEiAAAAAMAhSAQAAAAAOASJAAAAAACHIBEAAAAA4BAkAgAAAAAcgkQAAAAAgEOQCAAAAABwCBIBAAAAAA5BIgAAAADAIUgEAAAAADgEiQAAAAAAhyARAAAAAOAQJAIAAAAAHIJEAAAAAIBDkAgAAAAAcAgSAQAAAAAOQSIAAAAAwCFIBAAAAAA4BIkAAAAAAIcgEQAAAADgECQCAAAAAByCRAAAAACAQ5AIAAAAAHAIEgEAAAAADkEiAAAAAMAhSAQAAAAAOASJAAAAAACHIBEAAAAA4BAkAgAAAAAcgkQAAAAAgEOQCAAAAABwCBIBAAAAAA5BIgAAAADAIUgEAAAAADgEiQAAAAAAhyARAAAAAOAQJAIAAAAAnHijLwAAAAAA0Dhf+MIX1NXV5b4nSAQAAACAOey9732vFi1a5L4n3RQAAAAA4BAkAgAAAAAcgkQAAAAAgEOQCAAAAABwCBIBAAAAAA5BIgAAAADAIUgEAAAAADgEiQAAAAAAhyARAAAAAOAQJGJaqtVqoy8Bs0ytVlO1WlWtVqv7mSRFIpFp33+6t8fsZ2UiWK6me9+w+9jPz/fxMHv45SkSiZxXeajVaopEIuPqKL/+wtwWrGMupO660HoPmEy80ReAK0M0GnWNo98xtwopGmW8AefHykyw81WtVkM7VT77vd3XGsdoNKpoNErna46KRCKKRqOuwxUcRJjOYIJfdqYqh5gbrEwFy8Z0BrX8oNIPGO0xMTf5ZSdYfqY7SGrlyfpnEgP6uLQIEjFt/kgXjRwulgV2FzLQEOz8h81GYu4J1lHBDthkZcM6WmGDYNMZuMDs5ZcbG4iyn09V3/jtpF9fnU/WBGa3sNnp6ZYLf2DVvo7FYpfrUjHHECRi2iwwlM4vBYtGEGGCQWFYR2oqfoAZi8VUrVZVqVSY2Z7DbHTdvvYHI/wR9yC7nR8MWseL8jS3WbmIxWKq1Woql8t1AweTtXGlUknS+FluBh3mtuDgVXDgYKr2L9gfk+rbQeBSIEjEtJTL5XEjqBIBIC5cuVyWVJ/KLE0vNdDKYaVSGTfLQ4d+7vI7TsEUZGnymR8/gKzVaqpUKnWPyQz13OWn8lk5iMfjdWVtIslkctz6az9FkA793BRcXnGhdUxYgEm/DJcKQSKmJZVKSdK4hdHBtWFh6FwhTCwWqys/wUX7kwV7xWJRtVpNsVjMpdZUKhU69HOcn27llwObYbYyN9F9bRY6WI7YIGlu8+som62x8mL10EQKhcK4chdMa8bcEzaj7K97jccn755bnWYz3KxJxOVAkIhpKZfLbtbGn/mxVJrJJJPJGbhCXInCUrckuVmciSQSCdeg2kyRPyqLucvvLFknyv9+svtFIhF3G38AgkGHuc3PbqhWqy4Lwjr69n0YG7QIli27P/UVpLNtng1SJZNJjY2NTXp7f4DVb/cmS6kHzhdBIqYtFosplUpp2bJlWrRokeLx+LTWJf70pz9VoVAgDRB1/JH5eDyuRYsWacmSJUqlUlOWqWq1qmPHjqmvr88FAn6qIeam4Ih8NBrVggULtHTpUrW1tU1530qlolOnTqmvr0+FQoHgEJLOLbeweiYWi6m9vV0rV65UZ2fnlBsi1Wo1DQ0N6eDBg8rn85KYQcQ5Vn5isZiSyaRWrFihhQsXTnp7K4vZbFZvvvmmMpkMgw645AgSMS2RSETxeFwjIyP68Ic/rF//9V+fMH0r2GB+5jOf0U9+8hN1dHSQCgHHD+xGR0e1ceNGPfDAA0qn01PuzlapVPRnf/Znevzxx8et9QEsBbBUKunaa6/V5z//ea1YsSJ0lN2vr8rlsn7wgx/oi1/8IrsEwvFn/qLRqCqVitrb2/X5z39eb3/72+s2RQrbfKRWq2nPnj363Oc+V/e41FdzW/AYsUgkokwmoy984QvauHGjG+gK3kc6t+NyX1+f/v2///caHR1lkBSXHCUKAAAAAOAQJAIAAAAAHIJEAAAAAIBDkAgAAAAAcNi4BgAAYI4IbvQV3GRnNmKTIOD8MZMIAAAwR/iBYDBQnK1BIoDzx0wiEOCPqNq21NVq1W1HHYvF6o5dMP7hthfzd8O26A+ef+Rvm23ncM2Fxr3Rz9HKgJ3DF4/H3c+D299L9e9To6/9UvGfh3++l19O/UOejf8aMKqPK1mw/DZjebbPoh3lEnaebLlcVqlUcge42/Eefv1l97HvpeZ8vr5gmxmNRuvq7kKhoHK5rHg8rkQiUVc3lctlpVIp97pgZlhZDf7Mfu73xUylUlG5XJ70Madqd4NlORaLKRaLuffe+nr29yuVyrj72e/983lnC4JEIMAa0Wq1qnK57M6ItOCwXC67Bigej9cFkX7DFAzc/MZ2or8b9jP/XCSrvGq1miqViqrVqmvUZ1PF1KzsIG1rDKx8+KPxkUjEdTCszDR7p2oyE50r6P/cyqGdm1oqlRSPx1Wr1dxnpFKp1N1mtgTNgFQ/I+f/rFHl3NqJWCxWV09FIhGNjY0pEoloyZIluvHGG3XjjTdqwYIFisfj7nMbDA799qzZ6rOwAdvgeZV+R354eFgHDx7UK6+8or179yqTyailpcUFy+Vy2f3fDAfUz/b60h9QTCQSrn8jyQXzNqBhr0MymVRHR4fa29uVTCbdY53ve2W3L5VKyufzymazyuVyKhQKqtVqSqVSamlpUbVaVbFYHNfe2/Vbm5dIJFQsFmfNGbsEiUCA/4FPpVIu+LOKyzr/dlu/IZkoUJsqQPRvFzwc3h8NrVQqKhaLbhYrWKH+f/bePDiq60wffnq5vbf2XYAkFkloYTHCLIYYQxCbDd6xHW+x4ynXZMaeSc1kqiYzU/VzknKmZiazxMk48bji3fGGbWIH8BrAgAEbG4MAs0os2vdWt7pvb98ffO/h3KPb2pCgu3WeKpWk7ruee+67Pu97JMYX9LyNRiNzfgBonlk0GoXFYkE4HEYgEGDRTnKOEhF6WWy6L7PZDJvNxt4Jg8HAshIANAaqxWJhAZVEHQsJiURANBqFqqqw2+1MHgGA3+9HXl4ebrrpJqxevRrZ2dkAAKvVymQUGeyisxXv7+xwnFjKPIVCIfT29qKurg6bNm3Cl19+iWAwCEVREIlE0NfXB6fTKXXrFQLZT6qqIhqNQlEUNuc8Hg/MZjMKCgpQVVWFyspKTJkyBXl5eUhNTYWiKAOONRyIgY9wOIzu7m7U19fj3LlzqKurw+HDh9Ha2gqj0QhFUWC32xGJRBAIBDQsLrPZzALHNptt0AxnIkE6iRISAgwGAxRFQSgUYk4hCR2KsobDYRaltVqtzIGjfWJRRkdCfeAzLqS06bfNZgMA5jAmsgOSSKDnTE46ZdCAS0aU0WhET08PXC4XqqurUVFRgZKSEqSmpiZNtjcajcLn8+HChQs4evQojh8/jra2NgAXjc1QKMSUJZ/BSOZouIREPIGyYoFAQPP+VVZW4oc//CHmzJnD9JyiKJrAJ58F0dNb8aprxLpKMYhH+joSiUBRFDidTmRnZ2PmzJl466238Pbbb8Pv97PAV7IY+vEOfn5SMDEYDKK/vx8OhwNr1qzB8uXLsXDhQqZTKHtIGWL+WKMBzZGcnBzMmDGD6fbOzk7s3bsXW7ZswYEDB9De3g6Hw8H0P9FTKWAKAF6vF1ar9fIHJg4gnUQJCR3wmQ5RSVIWKRgMwuv1IhgMMsfSYrGwLArvXA7HOKYMC0UyfT4f/H4/i1IpigKr1Qqz2cwyVEajkTmMMuI5/qDnSgEByirzNK60tDTcc8892LBhAyZNmqSp24tX42o0oPlmNBrR3d2NDz/8EK+99hqOHz8Oh8PBlDlP0aExS6YaTQmJeARRJoFLBnBpaSkef/xxzJ07l5UukGHLO1ak/3gdJm4TT9CrBeeDU2I9NMlw0qGFhYX4/ve/D7PZjJdeeonJrEAgwDJaEuMHyuJR5ru/vx+KouDWW2/Ffffdh5KSEs3zjEQirKRDzCLGOr4e+GA/lYbwrCCbzYaCggKsX78ea9euRV1dHV566SXs2rWLOYXBYBCqqjJWFwA4nc6kCTBIJ1FCQgA5hbzQMJlMLIvo8/lgMpmQnp6OoqIilJWVoby8HJMmTUJqaiqcTqfGedCrTdQDGc/Eh1dVFR0dHThx4gROnjyJb7/9Fg0NDWhra4PD4YDdbkcwGGS0h2TJUsUziDbKRzxDoRD8fj8cDgdWrVqFBx98EOXl5UxJmEwmBIPBhKVY6hmJwKX5GgqF4HQ6cfvtt2Pt2rV444038Nxzz8Hr9bJ3h3+HJN1UQuLKIBAIsDrD/Px83H///Zg/fz4AMCeJnES92j0+8CjWKMYT9Jb00CsFEHU67RuJROB0OnHffffhwoUL+OijjxAOh2G322Xw9QqAatWdTidUVcXSpUvxF3/xFygrK2NzkQ80GgwGlqm7HD1CupyeMTmLwKWgfTAYhNVqhcFgQGVlJX7+859j7969ePHFF3H48GGYTCYoioJgMMjKlCj4kAyQTqKEhAASOiS4TCYTVFVFMBiEw+HAokWLMH/+fCxcuBClpaWaznG8QIuFwRRsJBJBSkoK+3/GjBlYsGABDAYD+vr6cObMGWzfvh3bt2/H+fPn2fVJRXZlwNN/KYoYCARQVFSEG2+8Effddx+LbIr1ColQ0zMU+LnL027J4HQ6nbj77rsxb948/Ou//isOHz7MugcGg8GkKeaXkIh3UFAzEAjAbrdj+fLlWLZsGcvmA5fYDfRuUuY/HA4zCirvPMa7DNOjmVKNG8/44B0BnibodDpx55134sSJE6ivr2eBvni+52QABRsLCgpwzz33YNWqVXA6nbqlNGJHcWD0z4fmi1hGxDPBKOtsMplYUHjJkiWoqKjA22+/jU2bNqGrqwsGw8VGhhaLBX6//zJHJH4gnUSJCQlSeHofv3H/AAAgAElEQVQd0EgoUUOaaDSKzMxMzJs3D6tWrcLcuXPhdrvZPuSgie2PR9MNju+cKUZuXS4XKioqUFVVhe9973v485//jPfffx/Hjx8fkJ0R67/ECLBUeqMHX4dATSDuvfde3HbbbZpt+Jbd8W5cjQb8shf831arFVVVVXjiiSfwi1/8Al999dWAmsRkGwsJiXgD6SWr1YqSkhIsWbJEQ53U0w+NjY04deoU2trakJmZiYKCAkyaNAl2uz1h3lleD7a1taGpqQn19fWw2+3Iy8vD1KlT4Xa7mTPA17YBwKxZs7Bo0SJcuHCBZa347xNlHOINfPBc/NtiseDaa6/F/fffj9mzZ2scet6m4ntEjHWmjpw8uib+N3W7p7KiaDSK7OxsfP/738fMmTPx7LPPoq6uDoqioL+/X5Ol5mst9cYi3iGdRIkJCz2KCtEFqEFMSkoKrrnmGqxduxbXXHMNnE4n25d49IqisAgU7wyMVggMJQAjkQhSU1OxYcMGLFu2DDt27MC2bdtQV1cHn8+nqb8Qi7r17v9yrnWigVcalFl+9NFHsX79es1Y8/MgWWgnwMjWhysqKsLf/M3f4N/+7d9w+PBhzdhISEiML4jmbjQaUV1djfLy8gFyiXSYwWDAV199hV//+tc4fPgwgsEgbDYbJk2ahLvuugsrVqyA2+0eFlPmaoIPRp0+fRrPPfccdu3ahZ6eHkZnvOOOO3DnnXciMzNTQ60FLsn373znO/j444/R0tIi2Q9jhEgkwrrsEgMlFAohLS0Na9aswR133IFJkyYNWAeRn3N6wf3LwVD703n4NTb5c5vNZixZsgT5+fn4/e9/j507d2qSBrQdf93x/P7oQTqJEhMSRCEgRUlKkTjoJpMJ5eXlqK2txXe/+13k5uayffmXnHcAiPY5Xk4BnZePqqWlpWHdunWorq7GH//4R3z66adoamrSOCz89SaScIpHEA0lGAwCAG666SasWbMGwMD10SSAadOmYePGjWhvb2cGF99eX0JCYnxA9dN2ux0lJSW6ywQQA6W1tRW/+MUvcPToUbjdblZicfr0abzwwgtwu91Yvnx53Bq4fBkALWPw3HPPYevWraxTKXXLfOWVV2CxWPDggw8y/S8265k2bRpyc3PR2tp6tW8taUBlCcQ8CQaDyM7Oxu23346NGzfC4XBonClVVdHW1obW1lb4/X4UFBSguLhY1/kaLxiNRgQCAZw9exbNzc1ISUlBbm4u0tPTNU2hpk+fjsceewzp6enYvHkz6xNBIMYZP9/ira43FqSTKDEhQZEhsYUxcJGes2jRItxxxx245pprAEDj/OkJJjJ8ia4wXtCja5hMJhQXF+OBBx5AaWkp3nnnHXzzzTeae4xX5Z6ICIfDCAaDKCsrw7333juASirH+SKIyjV//nysWLECL7/8smxYIyFxhSB2aBSN6mg0ypa/+PDDD3H8+HGkp6ezzpIUEGtsbMS+ffuwYMECuN3uq3lLMUH3Slmcb775Bl9//TVzTMj5o5rLTz75BOvXr0dOTs6ATuaRSARpaWnIzs6WbJsxBDnw9ExSUlLwgx/8ALW1tXA4HAAujX9zczM+//xzfPXVVzhz5gx6e3tRU1ODJ554gjlcVOIAjN+ziUYvrpn99NNPo66uDhkZGaisrMTcuXMxd+5cZGVlsYB8dnY2Hn30UVitVrzxxhsa2qmYDU0kPSidRIkJCTLseaqJqqpIT0/H2rVrcdttt2HKlCnMiYz1YpMjRk7meFJT+No2sWMqAKSmpmLlypUoKCjAq6++il27dsHv92uEKSBrKy4HRC82GAy4+eabkZeXx9bGTLYlLkaKWDW+brcbS5Yswc6dO1FfX89qOibyWElIjDcoa0/rAfIZfHr/qKHWqVOnAFwqT+AXlY9Go+jo6EB3dzdcLldcv7fkCDY1NcHr9bKsFS0HQktb+Hw+tLS0MEeQlgMhKqTRaITL5UqYbE8igOr5AoEAUlNT8dBDD+HGG29k9onRaITX68WXX36JDz/8EHv37kVXVxdz1JxOp6as50qAGhvV1dWhqakJTU1NOH78OHbv3o0FCxZg1apVqK6uZu+R2+3G9773PVgsFjz//PMauiwA3TW04x3SSZSYkBCbzASDQWRlZeHuu+/G+vXrkZGRMYCHztdU8RlI3lG8EhDXmuMjVEajEVVVVXjkkUeQnp6O999/X7OYMn//0lAfORRFgd/vR05ODlauXAkArOPZYGM5URxzPiJP89FkMmHy5MmYP38+GhoaEiqKKiGRqOD1VKw1e+nvtLQ05iAB2nIMAGwZjURowEXLWfBL7/AdKkn3E11QXEORwLOC9OiBE0WmjxVovCwWC2v0RjWKBoMB7e3t2LJlCzZv3oyzZ8+yIAY5+VVVVQOOdSWgKAqmTp2K5uZmOBwOhMNhNDc3409/+hNOnDiBm2++GStWrEBKSgrC4TAyMjJw9913o7+/H6+99ppG34kB+0RA8nRUkJAYIeiFDQQCSEtLw1//9V/j9ttvR3p6OgCt8G9vb8eBAwdw+PBheDweTcE/gaid4wW+rrCtrQ379u3D4cOH0dfXNyCLU1xcjPvuuw833XQT7HY7qz0RkWgC62qDKFpz5sxhUWgyPmI9+4k6xvSO0JqilZWVMjovIXGFwHcdBvTXOST5tXDhQtjtdhY45JdWslqtKCsrQ2ZmZkw9crVBjh/9LisrQ15eHvue7omWLZoxYwYmT56s2wyFtufXV5S4fNCzocZBFHQwmUxobW3Fyy+/jJdeegnnzp3T7BONRmGz2bBixYoBgfgr0RROURRcd911jCZL5w2Hwzh69CieffZZvPvuu8wOCwaDcLvduOeee7Bu3Tr4/X5N3WuizSuZSZSYsCChlZKSgh/96EdYsWIFU5SkOLq7u7F9+3bs2LED9fX1MJvNmDdvHu666y5MmjRJ0x1tvCOKFBXdv38//vCHP+DUqVOwWCyoqKjADTfcgPnz57NFXw0GA1s8GQBef/11Dd3oShR9Jyui0Shmz54NVVUHRJv1tp2I4AMaFLXPyclBSkoKPB6P7BgoITHOICeRD2byHbj5BeWrq6tx991348UXX2TMGHIQr7vuOtxwww1xTRPnr8lkMqGkpATr16/H//3f/6GtrQ0mkwlerxdGoxHl5eW49957WVaI1sgDtMtWyRKCsUUgEEBtbS3uueceVoMYiUTQ3t6OF198EX/84x9ZeQzZKvTcFi1ahJkzZ+r2hhjP50NObE1NDaZMmYLTp0/DZrNpnNO2tjY899xzzAG22+0AwJhpZ8+exRdffKHJXCcSpJMokbSgBVopmhoOhxm9AbhYg+h0OvGXf/mXWLlyJVv6wmC4uEZifX09nnnmGezbt49FgwCgoaEBHo8Hjz32GLKzs8e0JbMe6NgmkwnHjx/HE088gdbWVuacnj9/Hnv27MHKlStx5513YsqUKUyA5uTk4JFHHoHP58Prr7+O9PR0BINBDQ1HLnI+fJDhVFJSAgADKL8SA0EZxfT0dGRmZmoixRISEuMDvmOnGKwSu1273W48/PDDmDFjBj766CO0tLQgNTUV1113HZYtW4aCggIA0DhNY9nURU9/DhZg09uO/8xisWDdunUoLCzERx99hFOnTiEcDrPlrGbMmKEb4OUziPzarxLDB2+vhEIhmM1meL1eVFdX49FHH0Vubi6bkz09PXjppZfw9ttv6wYzotEoFEXBrbfeypwzvcz4eN4LBdxXrlyJZ555hn3Hz5W+vj48++yzMJvNuOuuu9i1FxUV4Qc/+AFaWlpw4cKFAYGWRFhDWTqJEkkJogVS+t9oNEJRFASDQUSjUVZjcd9996G2thZWq5Xtq6oqvvjiC/z7v/87GhoaWD0HvdyhUAjbtm1DbW0tsrKyAIBFJKlb3HggHA7j/fffx5kzZ5CSksJqEwGgs7MTb775Js6dO4dHHnkElZWVAC4KMqfTiccffxznzp3D7t27GZ2WlvvgI6kSg8NgMMBisbCal6GMiHgW/lcCouFmt9s175OEhMT4QY9KSeAzGqqqwuVyYdWqVViwYAEzXJ1OJywWCzvOSIxaPjvHQ9x3rGQkXwcdiURgs9mwYMECVFZWIhwOIxAIwOVyseY7Yp8BOgbvMErZPjLQmPHLiaiqioyMDDzyyCOsGSBRNz/44AO88847rLM8cCkDbjAY0Nvbi8WLF6O6uhp2u30AA4qvoR3r+6DjhkIhOJ1OLFmyBB988AFOnz4Nq9XKspoWiwWRSASBQADPPPMMpk+fjmuvvZbZB1VVVbjtttvw9NNPs/vjzzPe93K5iK+rkZAYI/BFz/RDMBqN6O3txdq1a7F+/Xo4nU5EoxfX5QkGg9izZw9+8pOfoKGhAWazmXWzJOPWarUiEAjg4MGDCIfD8Hq97PjjuQRGJBLB3r17WW0FdZ8zGo2M3//ZZ5/hP/7jP1BXV8f2URQFaWlp+PnPf47i4mJ4vV4AFw0Dh8MBVVXH7ZqTDaTALBZLzIYHEpcg0sDEcZOQkLg6CIfDjFVD76XFYkF2djYyMzORnp4Oq9WqCYTFchAHq7WifQZzLvW+Ez/jzxHrXHStxJIxmUxwuVxIT09HXl4eUlJSWACZpy1KXD5455BfE9FoNGLdunWYNWsWc/4MBgMuXLiA559/Hl6vV+MgUTfTaDQKu92Om266CVlZWbp9IK4E3ZTsvilTpjDGGV0rJSGIjdXT04Mnn3wSqqqyJT+cTieWL1+O66+/XsNISxT2kXQSJZIWtJ4dcdwDgQBbxHX+/Pm44447kJWVxSJBVqsVJ0+exBNPPIH29nZYrVa2PW/YUkaSBJvT6WSLq48nzGYz/H4/nE4nVFVlzh0JY+Cisq+rq8OvfvUrnDhxgu2rqiry8vLw05/+FGazGaqqMr6/zWYb92tPFtA48wYG3zlQ4hJEBU4KVxplEhJXH2azeUCgKxgMsmUiyOEi1g1BzyGkbtt6VFQRek7jYIwMPqtDzp/o4NE10T2RrKF9+GObzWZWH8YfX+LywTs+1CSorKwMt9xyCxwOB3Mg+/v78fTTT6OhoQF2u52ty0kwmUzo7+/H4sWLce211zKbi3/uV4KqyWemLRYLli1bhvLycsbAomwibZOeno5vv/0W//mf/6n5fNKkSVi3bh0mTZo0IGtK4Od1PCH+rkhCYgzARwtJoVHmLSMjA3feeSdKS0s1i536/X78v//3/9DY2Ij09HQWCQLA2oObTCb09vairKwMa9euZQ6axWKB3+8f13syGAx48MEHWXdVoolSLSVdq8FgwJdffok333wTHR0dTMCpqopZs2bh4Ycf1kRSaT+J4UM0kmTtihaxsg9ynCQk4gM8FZV3CMmBIt0YCoU0762eQ0jyUO/95j+n3gB6WUH6WzwWT1uN9R3vDNIxKMNDzUfIIU607pKJBH5JMeBiAH3t2rXIz8/XZKVbWlrwySefICUlhTGbRJpqZmYmbr31VmRmZmooqAR+7o4XeOqxzWbDlClTUFtbC7vdrrGhaO55PB6kp6dj69at6Ozs1NCZq6ursWLFCk0mku6bd67jbW5KJ1EiKWEwXFy4lbq7ER0TAFauXIn58+ezl5QUylNPPYWDBw8iJycHfr+fZQqJtqooClRVRU1NDX72s5+huLgYNpuNLbg63hm5QCCADRs24Je//CVcLheAi5lDimpR7QgJ1K1bt+Lrr79mkSu6jzvuuAPz5s1DIBDQNPKRGBpitC8eIn+i0aRnRF1pkGMo6bgSEvEH3vHia4SDwSBCoZCm1T+fmeOdMKKrktNF/4dCIXYMnuXCn5eHXlaRPz4dj87Lf8efg/Q4T3nkm9bRuXi5GK9LeiQieJlvMpng9/tRVVWFxYsXswA9HxigoLrNZmP0Uqp7DQQCWL16NVsbUVwXmj4DroxTRfflcDiwdOlSLFq0iNlV1PuCgiyBQADhcBgejwfAJfsyNTUVS5cuxfTp0zX3S4g355AgG9dIJCXohSMFQsqssrIStbW1yMzMBHCpQ1V9fT1effVVpKWlwev1MqeSBAA5gWvXrsVDDz2EKVOmsGOTQqLzjpdBbLVaoaoqVq5ciSlTpuDJJ59EXV0da5hDwpmuvaenB5s2bUJFRQXy8/MZHSc1NRUPPPAATp8+jb6+PtnZdAQgBQcMbGxwNR2hoehdVwO8ISpGgCUkJK4exOAN6UjKuAFatgTvoMXK+vFsFjqmmP2LxSjQo6bzn4s/fIaGr3Oj6ye9Ld6PeO/xEORLJvAOXHp6OpYtW4b8/HzWzI/GOysrC7Nnz2b2C5X8UN1hdXU11q9fj/T0dE2zGrHzLHDl9EkwGISiKJg8eTJuvvlmnD17li1DRk4sJSTKyso0HYHp3SgrK8N1112H+vp6BAIBjd1I/SXiTT9KJ1EiqUGNZoLBINLT07F69WpUVFSwF5qEzssvvwxVVVn2UYx+pqamYv369di4cSNycnKYw0UUVDG6NR4gWmskEkFpaSl+9rOf4amnnsKf//xnRj3lnWO73Y6DBw/i8OHDyMvL0yje6upqbNiwAc8//7ymPoO/D94ZkriIy83QkSLgFZyeoxnr+KJiHO6z4R028Vx6GE6Eczjn5pXfUMeTkJC4MhCzMtHoxTb+ra2t8Pl8LIMXCATg9/vh9/s1f6uqikAggEAgwOoY6W8+68dnFEWqKO+Eis4fGd2UDaS/6UdRFFgsFlgsFva31WqF1WqF3W6HzWaDzWaD3W7XbGcymZCZmYnMzEzWkE6UwRKjAx8ICIfDqKqqQk1NjaZ7OtW9ut1uPPbYY/jZz36GlpYWDQU5Pz8fd955J0pKSgY4TrytdSVsLuDS+tTE1DKbzZg7dy5uuukmvPzyy2hra0M0erGcSVEUlJSU4B/+4R80S6pRA0Gn04mFCxdi//79+PrrrzVBDd7JjKf5KJ1EiaQGb6RWVlayImhSUEajEZ2dnThw4AAsFosmakWCyWq1ora2FrfffjtbF5Gyb/R7vDts0b1QFC0UCqGwsBCPPvoo+vv7sWfPHiZMSSgBgN/vx+7du7Fs2TIAYErW6XTiu9/9Lvbs2YMTJ04whUnnIIElHcSBECPQIxkjfjFg3nniI6X0v3hsMRpP24sRffqON4BE51M8jgiaA/w6a6OZC/SuxJPSk5CY6ODlQDgcxpEjR7B9+3YcPHgQHo8H/f39zPkLBoMaaifv3PG/Rb2ph6FkyOXICd7B5J1JKhWx2Wwwm80oLy/HvHnzsGDBAuTn54/LtUxkRKNRpKSkoKamBoWFhZrveH0ya9Ys/PjHP8a2bdtw7Ngx+P1+pKSkoLa2FosXL2a2FU+JBkYeIL1c8EwrOqfT6cTKlSvh8/nw5z//GX19fUhLS0NpaSk2btyI6dOns0QCOZZ0L9OnT8fcuXNx4sQJ1nyQtiEaajxBOokSSQvqWNrf34+MjAxcd911KCgoYMY1GexnzpxBY2Mjcx6BS86lyWTCNddcg1tuuYVl464WRYV3JOgaCgoKcNddd6GlpQWnT59mHbeoFtNgMODYsWMIBoNsqQ/gouCbPHkyVqxYgYaGBjYW5IDyRdkSYwN6biJdlXfmROcwHA7D7/ejr68PPp8PfX198Hq9LJrP/4jNiyhKSdF0irQ7HA44nU44nU64XC7Y7XZNp8NYhp9eDYUMIkhIJB74BiG7d+/GM888gyNHjkBVVVauwGdqxK6iIuKl6QafpaTsJv85AJw8eRK7du3CunXrcP/997PlFSQuH6TfJk+ejFmzZrHsG79cBO90LVq0CDNnzsTJkyfh8XiQnZ2N4uJitpYl2TLx+HxycnKwceNG1NTUoLe3F+np6Zg+fTrr4qpXk280GuF0OjFv3jzs2LGD2V7AJXs13mwv6SRKJCXISKa2yVOnTsWCBQtgtVrZNpQ94yOjfIc06rC1Zs0aTJs2bcgo6XiDuO0EojjMmjULN954I373u99BVVUmlMnpJWeRrp0MBKfTifnz5+PDDz/EmTNnNN8BlzJV8SigExVELSHFx2cWo9EoAoEA2tvb0dzcjI6ODnR2dqK9vR3t7e3weDzo6uqCx+OB3+/XNIjgM4qAdn0nPqquKAocDgdSU1ORnp6OtLQ0ZGVlsZ/s7Gzk5ubC5XINmGuiASjnhYRE4iIajaKxsRG///3vcfDgQbhcLuYM8sFSXm/oMRxEuubl1EcP5WTG2l9kWYhNTXhGAzUV2bJlC/Ly8rBx48ZxXd94ooBnXlVWVjKbiUAsKALRMVNTU1FTU6OpNwTAGvJd6drDkcDlcmH27NlM1/IMNWBg+Q7N0bKyMpSWluLcuXPsWKFQiJVGxRPkmyGRlOCVjcvlwsKFCzXUEp4CV1paikWLFmHHjh2sdoFS/7Nnz8b8+fPjIoPCrwvEC1Sn04nFixfjs88+w/79+1ndIgnZ5cuXs894SioAFBUVYd68eTh79uyA4umrHRVOBog1gLwTR8+wr68Pp0+fRkNDAxoaGnDmzBk0Nzeju7sbXq+XUb74Y+kZQbHmJEUmeXoqn2mkWonU1FRkZWVh0qRJKCkpQWFhIcrLy5GWlsao2HT9ep3l4lGJS0hIDAS9q/v27cPx48dht9tZTT6toSvquVh/A1euw+Rg3w12TRSMI8qs2WyG1+vFrl27UFtbi+zs7HG77omEcDiM7OxsVFdXM+YSMVTEZyTOL57JcrUD8noQbSKx5ISuO1YpCp9tT0tLw6xZs/DZZ59p1tyOtywiIJ1EiSQGvbT5+fkajrsofDIzM/Hoo48iNTUVu3fvZq2Zy8rKWIctPrJ6tTpQ8ZREMTJaWFiI1atX48KFC2hvb4fJZEJeXh6++93vYsOGDRrKBmWwDAYDUlNTGfWhpaVlwKLJ8SaoEwmi4URjbjKZoKoq6uvrcejQIRw+fBgnTpxAa2srPB7PgPU9+Y614rGHQ/MiBy/WNQYCAfT396OzsxNnzpzB/v374Xa7kZmZicmTJ6OsrAxz585FWVkZUlJSBkTt+WPJ+SIhEf8gXVJfX8/WEiRdwhvDYhBoOPJmMBkw2kzhcPYd7FhUfgFo1/Lr6elBe3u7dBLHAPR8CgsLUVpaqvmOfxY81ZnPvIn6g7KI8eQwijpYzwEOhUJQFEUzX/kAPx2nuroamZmZuHDhAgCwUp946zYvnUSJpAT/Qs6ePRslJSUxsy6qqqKyshJ/9Vd/hdWrV6OpqQlGoxGlpaUoLy/XCAPa/2qAP38gEGDU2Wg0CqvVimXLliE3NxcNDQ1QFAVTpkzBtGnTWBtp/h54Z3fGjBmoqKhAW1vbAFqExNiBjK9vvvkGH3zwAQ4fPozz58+jt7dXk+HlmyLpNYjgEet/XhkN5tQB0NQg0U9fXx88Hg/q6+tx4MABbNu2DRUVFbj++usxd+5cpKenx2W7bgkJiaFBZRgAWIMNcWHwkWC4cmC85IVYAybS4/WyWAAYZV/i8kF2SGlpKev9QBD/5jNvtK/IkBJ1XjzrGpHqrKoq6xqv12sgGo1iypQpmDp1Ks6fPz+AJh1PkE6iRNIiGo3C7Xbj2muv1dAteaOZmtNEIhEUFhYiJyeHccKtVqsmSkQZuKvlQPG1IVRvSDVnlBWcP38+5syZA4PBwDq70b4UpeLbLIfDYeTl5aG6uhr79u1jWVSe1ioxNjh9+jQ2b96MTz/9FB0dHcw4ocYQolGj1yhGjFqKDqCescQ7gDz4Y4jPmYIKBoMBXq8XPp8Pzc3N2LdvH6qrq3H77bdjzpw5sNvtYzxKEhIS4w2eMcLLDr65lihL+O2vpv7Tg55840F6njKloh0gcfmIRCJwOByYNm0ac5B4O0IMXPK/eScpVu1rvEJvDonLWOhRU2ms9uzZw5aLibflLwDpJEokMPQiUST4idI3depUzJ07F8ClF1XkwfOgJh964LM8VwOxok28IidqIjAwy8RnqPhjKYqC8vJy5Obm4uTJk6zDFk/3kBgeePoMKUa/34/NmzfjlVdeQWtr6wAar0jh0jPMxG1jfcYrYnGbWMccTCnxRfjhcBhdXV3YvXs3Dh06hBUrVuDee+9FVlYWFEVh29HckZCQiF/oZd70glOJCj3bQE/W6v2fTOMw1uBtLAo0UyY6JycHZWVluo4gj8H0lJ59E48Q7TH+f1HfxtLHVVVVsNvt6O3tjUsHEZBOokQSQaSTWiwWVkclbhcrGjqUQIoHgRXrGmIJYv7/WAK7sLAQRUVFaGho0GRc45H+EK+gaCC/DmdPTw9++9vfYvPmzQgEAjCZTANqY4drkIxmvg5n25FQxaj5Q3d3N15//XXU19fjRz/6EaZNm8bmjZwzEhKJgaF0RqzP4g2DXWMs2qPE2IDXY9nZ2ay+U0+vDWf8E+0ZDdcBFmE0GlFUVITMzEx0d3drnMx4chalNpdIWMRSaPSSKYqCOXPmsKwO35kx0QTRUKD7jvUzlODKy8tDaWkpyyKKy21IDA1axJk66fX29uJ//ud/8MYbb7D21hR95WtCEw0UYLFardi1axd++tOfor6+nnUOlE6ihISERPKBD7DzeowChJMmTUJWVpbufhKXQHo/Pz8feXl57LPBGD9XC1KbSyQ89Gq3QqEQUlNTMXPmzAHbxNtLeLVBXd8mTZoEl8slx2qU4Gk4/f39ePXVV7Ft2za2rAp9T1nGRBnbWFn3cDiM1NRUfPnll/iv//ov1lWXKEgSEhISEskFUR+QY6MoCrKzs3Ub3yViMHS8QWOWm5sLACygH2+6UzqJEgkNvWwXGanFxcUsSpOoWZvxBAl7GptJkyYhMzOTZWLjrRVzokBVVRw4cACffPIJAoEAIpEIAoHAgKZHfDfReIdeh7ZIJAK/3w+Xy4W9e/di586d6OnpARCfXdokJCQkJMYHVquVOTwE6Sjqg++um5+fz7Kx/HfxAqnJJZICYpo+Go1i2rRpMBiubkfSRAA5hdnZ2cjNzZ2wGgkAACAASURBVIXBYJBtwUcByhIGAgHs2bMH586dY13eLBYLc8YTKWAxmMKiJkmKoiAQCODdd99lTrGEhISERPJCXKLCbrcjIyODdZCViA0+4JqXl8fKe6gLbzxBOokSSQXeCC8uLtZ8J2mUsWE0GpGeno6cnBzWZUuO0chAc6+9vR2nTp1CMBhkwj8UCg1QqokCPXqRwWBg9xUIBGCz2XDmzBlcuHBBzh0JCQmJJARfiyh2j7VarXC73brrbEqnUQsaD5PJBLfbDbPZzGyFeBsr6SRKJDRitRpWFAWTJk0CMLZUU54iKApC8fPhbKN3zCttYNP5LBYLMjIyoCjKsDt0TTTEKi7nn1tvby86OzsRjUYRDAZZe3CRZsofL54Raz7S+o60pIrX68X58+dhNptlNlFC4gohlk4Rt9GTNXoG/2jPP9TnQ+m2sdaD4jEosBXrfIC2fEXszsmv3zeYrueXfphIMJvNsFgsY/78hhrrweZNrO+HY5fpfT/cax4KfAdTu90Ok8mku3RGPEAugSGRsOCFsSjMbTYbMjMz2XaUwh/rF5CUSixDn3cG9AST+L/YgIcwXo6EaBykpKRAURT09/dLiu4oQPTmUCgUU+jH05gO9T7o1ZTozVuqQfT7/QP2k5CQGB+IOkJ0BulvPb1Cv8lgHY6jONzlevSOMRoDWO/++P/F7QargQuHw5qu3fy48E4iBb14+c2Po7jgu3isidDhWZwzkUiEOYn0PY2BaJ/FwnDsHXHu6n02nHlC18yDZ8iQTuN1W6xACP+ujcZms9vt7LzxtvwFIDOJEkkGesGtViucTueoIqSDRZV4p3Q0GE40dTT7XS7o2A6HQ7MwerwJLIkri/GedxISEqMD/16KBrnZfDH+HwqFoKqqxvjVOw4ZqEMxSGLpRN4p4h2qWAb6cCAeR3QEedkkLssg3gPdP21D1ytmB/nuzHyZwFDHF8doItblifX2ovM23OcfS+foZYF50Ln55c6G+8z0roFvJDNcJ5fGIJl0pswkSiQs9F5aeqFtNhvsdjv7bDj7jgaDOVN6ykz8PNb1XC0hQ04iMLrIr0RiYTQZAQkJifgAyWhiLiiKglAoBI/HA7PZjJSUFOTn57NsBb+PwWBgjadUVWXODe/wiZkS+kw0nPUcNr1r5Y8rfjccHTgU0ybW72g0ysaG/05RFJjNZt3rzcrKQlZWFvr6+uD3+xGNRlmmTHQ6yNnkaYMTSX+KmWvCSB1DMbsrzikx0xcOh+H1etHb2wuv14uenh54PB74fD4EAgEEg0Hm8NNxFEWBzWZjP263G263G+np6XC73ewZ88+QbyhDAQDKOIvXyo9HMkA6iRIJDz3lQmvT8d8PV2AN9YIPRiXhI1B6x6Fo5mDnEBXQeCsbfnyoC6ekmo49RkLtTIbzSkhIjB/4rJjJZEIgEIDf70dWVhYqKiowZ84cTJs2DXl5eSgsLGQynddR+fn57DOiYorGOoEMYT39N1x9Fms7PR2np7djOYYiDZbPEPLHtlgsCIVCLNuUlpbGln0S96mtrUV5eTnOnDmDU6dOoa6uDufOnYPX64XVamUN3kQKKmUj47EJyVhhKJ2iZz8MNRaiU8bvQ+cLBALo6OhAQ0MDzp8/j+bmZrS2tqKzsxN9fX3o6+tDIBBAKBRCMBjUNIyj58TX0pvNZjgcDrhcLqSlpSEjIwM5OTkoKChAQUEBiouL4Xa7YTAYEAwG2f5itjhWtjsZIJ1EiYSHnjKjZiHi92PxEvNRI73j8XQDUXiIlJ7BsoyiwhYV6XgIIp6Gk+x1FRIXMZjCTyZlJyGRbDAajczpyc/Px+LFi7Fw4UJMmjQJWVlZSElJ0QT9eGfKYDBg/vz5yMvLw5kzZzQyXwxmipkcHqJDRMYzn/XhHVQ9B0LMWOo5lPz/ehkr/jNy1MRrpoXKDQYDLBYLZs+ejYyMjAHXFIlEUFxcjMmTJ6OmpgZdXV1oa2vDoUOHsHPnThw9ehQ+n48dn7pT0nJb4j0lCwa7p5F+Lh6Xz9bxdlA4HMaZM2dw5MgRHDp0COfOnUN7ezt6e3vR39/PlusSnXx+vsfKStO84NeGVhQFLpcLqampyM/Px+TJkzF79mxUVlYiJydHEyzhnVqe7hpvy1hcDqSTKJEU4J0wvUwcv81IBXcsTn0s3rzf74fH40F3dzeLbnm9XkZ/4KNkVDvpcrngdDqRmpqKlJQU1hZZL5t4ufejB1GY8kpdYmxwtQyGoc4rn7GEROIhGo0iEAggIyMDy5cvx6pVq1BSUgKHwwGHw4FIJMKcIjH4RxTVwsJC3H333fjNb36Djo4OXZ0ZDocHrDVMmRieWkmZGovFArPZrOnqzG9Lx9ej6tHflOmjc9Pf9Dn/PTnJoo7kdRpdD2/QL126FOvWrWOf07jwus9oNMJmsyE/Px+FhYUoLS3F4sWL8dVXX+FPf/oT6urqEIlEEAwGWWdPsb4z2TAS53e4NgTNHZ7u3NLSgr1792LPnj04efIkOjo60N/fzxwx2pa2J+YYX5MIQNdho2via3fpOkKhENra2tDa2orTp0/DarVi69atyMvLw6xZs7Bw4UJUVVXB7Xaz4xONORmfuXQSJRIWYqRQL9smCrSRvMSic8gfl5SAz+dDY2Mjjh07hhMnTqCpqQnNzc3o7e2Fx+NhnHhR0YrXRJFIu92uoT0UFRWhvLwcxcXFyM7OZgqNv5fLdRaHovNIjB0GG9PhULZG+t1Qxx3O9yM5l4SExJVBKBTCtddei/vuuw+zZs1irfT5DB6fURN/K4qCSCSCdevWobCwEC+++CJOnz6NUCgEh8PB6rVcLhdcLhfcbjecTiccDgfsdjv7bbVaYbFYYLVaoSgKFEVhVD66HnIqRWYMMLBRHO8o8rozFAqxdVmDwSBUVYXf72c/Pp8PXq8XXq8XPp8PPp8PfX197Ddtk5ubi+uvvx633XYb64Ausn0AQFVV1sSNvrPZbCguLsakSZMwf/58vPfee3jrrbfQ09OjS5GcqDp0pPdNjp3RaER9fT22bduGDz/8kK27S8ekuR2JRKAoCgtiUEadtqG5psf64ucgZb35Z0zvDTl/RF/1eDw4cuQI/vjHP6KsrAy1tbVYtmwZMjIydNlqyQLpJEokPMRahFhOIR/FjOVUhsNhTcSRVxwkSFpaWnD48GHs3bsXBw8eRGNjI/r6+gBgQHSV/5uiVnogwaeqKrq7u3Hy5Ekm9Ox2O5xOJ6ZOnYq5c+di6dKlKCsrY0peNAb46LGeUxoL/HgQdUZCi1jUFf47eu5kJFGkm/YTo+F61GU9Z53mIB/lHk7EWuzSFuuHzsVH4Hn6D9VyiK3BxfnO34uEhMToQe8grbcaDAahKArC4TBWrVqFBx98EMXFxewd1JP54m8eRqMRVqsVNTU1qKioYA1sbDbbgAyheMxYxx+ucyQGOUc6LrF+6zkHkUiEGfsWi4U5t+L5+XvhG5jw4xWNXmyCU1hYiO9///soKirCb37zGzQ2NsLhcCAajUJVVdhstgmlQ0VHSW8OkEOnqipjSoVCIZjNZnR1deG9997Dpk2bcP78eVitVo1OpeMCWsbYSMuKYs1NkU3FZ93JXjSbzfD7/Thw4AC+/vprvP322/je976HG264AZFIBBaLReOg6tFPE003SidRImEhOoBDCQYxE0hOGE894OsKeMXY29uLr7/+Glu2bMHnn3+Ozs5OBINBWK3WAZ1UReElOhaxhBQJI5PJBJvNpqHU9Pb24vPPP8fu3bvx9NNPo6ioCKtWrcLq1atRUlLCnMNgMMh49XQuEsxDCUeJywM1L+jv70dfXx+6urpgtVrZHDGZTIxe7HA42G/qsuZwOGC1WmG321mk3mazseg8Uab4onue9hULqqpqovIUkaf5oqoqAoEA+vv72Y/f74eqqujo6EAoFGKf9ff3w+fzse+JatXT0wNVVeH1epO6YYOExJUEvUsWi4U5iuFwGNdddx0efvhhTJ06VUPTI3k/WEASGGhEm0wmuFwupquGCvYM9n6PtJZ9uLIiljMnfhfrmux2OzP8xSU7RvI3/W8wGGCz2Rhl9amnnkJTUxPT34FAYMjnkGjQe1bDtR1oXvn9ftjtds1awgcOHMD//u//Yt++fbBarXC5XPD7/SwQPtg1DHf+DNdhFJ87f34+CGMymXD8+HH80z/9E9asWYPHHnsMWVlZCAaDmm7CwMWGO4qiDBqwiVck1wyWkBgBxDV9iLpAkVPK6n300UfYsmULjh49ygQARQz5YuVYNFDx78EgdkajjnORSARut5sZA62trXjqqafwwgsvYMWKFVizZg3mzp0Lh8OhiX4Nx2CQGBuQ8igrK8OPf/xjGAwGZGRkwG63w2KxID09nVGzaHsgdtc/vQyfeC7+/7G49qGUVzAYZI4l0bj6+/vh9XrR1dWF2bNnX9Z1SEhIXEI0enHNX4/HA4vFAoPBgPLycjzwwAOYNm0ay1rxTt1wnLRYWRfROYzlhA0mJ+LVACYmhChXCYMFb/nv9YLTK1euxJEjR/Dmm2/CYDAgEAjAYrEMcHAmMshBpwxrJBKBx+PBu+++i2eeeQbd3d1IS0tjAUir1Yr+/n4W8L4aEPUsb5cRQ0hRFGzevBlfffUV/uVf/gXz5s2Dz+eD3W5ngQKqV6VjJlJQXlqPEhMS9PIHg0EAl6h89PJ3dXVh7969+MMf/oC6ujoAYDUX/EtOLZb56KSeABhJtJScQpHmwy+KDACpqakAgC1btuCjjz7CihUrcOutt6K0tJRloMS1fOJVgScD6NllZGRg6dKlAyLWFDnlo5EiBVWP0kXZAZ4KSvvw2wx2XbE+FxUg/7doPFKGWlEUOBwOpKWlaejOFMAIh8PsPZGQkBg9rFYrfD4fy6i43W7ceOONmD17tmZtRGAgXX20sl7PIYwHvXE5julgTJ7R3puYZbrnnntw/PhxHDhwgMnBeBi3eIFI3fR6vXj66afx2muvQVEUpKWlIRQKMd1BNaGDMcSuBPQCJUQ9peeckpKC5uZmPP744/jJT36CVatWMaYZvy8fxEkUKrJ0EiUmJEiJ8h1EQ6EQVFXFt99+ixdeeAHbt29HMBhESkoKIpEIQqEQ45aLjiFwybC+nKUjeO67CEVRmFNLwpNqLADg/fffx/79+7F+/XqsXbuWLaI8VsaDxODg5wPRwoLBIIs8igEGQEv15Z+5mIXm6y5GWvcnPm+9yLi4jV4rcn5/kbrNO6x8vYiEhMToQTqF5ElxcTEWLlwIYKC8oFIFCioN1oZ/KBaD3rbDxXjpl6GuYyTnFRlEw80ixjqO0WhEbm4ulixZgsOHD7OArsQl8DV6gUAAv//97/Haa6/BZrMBuMhS4Z8xOWHxMJaxWDuBQICtUUp05n/+53+G1+vFLbfcAuASO4y3HRMJ0kmUmJAg5cCvDdXb24uPPvoIzz77LFpaWuBwONjiu/xLrldrOFhGZ7hUHZHyJzoTPIdfbE4DAA6HAx6PBy+++CIOHTqEe++9FzU1NXA4HKMeJ4mRga/pobpB/nNAPwMoUphiOXb090ii4XzXvZEahLFqNsgxpP/FuSrX2ZSQuHxQVp6y9GVlZcjPz2ff87JEDGCO1hgdSxp7vGAopsVw9LbeWJBcp+9mzZqF9PR0tLS0DJCLEx18Wc7rr7+OF198kQW+KVjP/5DdpVeXeKURay5QYJhfosViseC///u/4Xa7sXbtWk0gX+9Y8Q7pJEpMSPBGbjQaxfnz5/HKK6/g7bffRiQSgcPhYFkgvjZQpAny3SYvN0s3lHIezKmgfciZ/eKLL9DU1IT7778fq1evZmv6SIwvhvP8KbIIDO388d+N5Bx616TneA7mbPKZZz2Dh593/BpjMpMoITE2IBo3BZwKCgp0ncFY6wQOBr1g5HC3vRqZnaEcveHex2A1hvzxYh1fHGOSkUajEQUFBUhLS0NjY2Pc0HTjBTRfd+zYgWeffRaRSIR1kuftKnFZiqtN242le8nW4jP4dA+RSARPPfUUioqKUFlZqdt1P1F0pAz1SiQ09Oh79HuwWiyewtfa2orf/e53eOuttzTUHr7lPy+4xCyQeA2xajpGojT0zqGn4Mhx5emz4XAYNpsNra2t+O1vf4stW7awxWLFfYY6t1RyI4fYLh6IbYjwz3OwDrQUsRyLRZp5WuhYgKdcySUwJCTGFtSJm2qBKWtBIKOUdBplbAAwah8fEL0cJJtOEHU4X4sdCARYp/PBbAl+f5vNxhoMTSQmxVBOOn3X2tqKF154AX6/Hw6Hg3XZJmcQAHO4BrOpriZ4/anXeZWSCq2trXj++efh8Xg0gdOhAq7xBplJjIGRRNck4gN8FGcox5Eom4FAAG+++Sa2bdvGasZ4qhyfMRTPFev/sZ4XsbKG4nXxzi91Ne3o6MBzzz2H3NxcLFu2TBPRikUJFCN7cp4PxEjonnrbjIWxNZKAw2iPMdi8HmxfmU2UkLh88HRSVVXR0tLC6qC8Xi/8fj9bvsbn82mWr6EF5U0mE5YuXYrCwsKY9PFEx0juYTC2Bum7cDiMPXv24NSpU0hNTYXFYmHLE/FLF9ESR/TT1NQEj8fDjjGRHMVY4PXAzp07cfToUdb5NRKJwGq1QlXVATV78TIvh6s/eZuMaLIHDhzAoUOHcN1117HtxYA/b2PFo70lnUSJhIb4kg5XwNC227dvx+bNmzWL0cfbSzoSEDWJonNOpxNNTU14+umnUVJSgsmTJ+vSbERBNVz6joSEhITE+ICMSQr8ffzxxwgEAohGo/B4PGztUq/XyxxEWjSe1jfNyclBRUUFCgsL49IIjQeI+g8A9u3bh7fffhsOh4PRfWnNW3IS7XY7W/s2IyMDJ0+exPnz58eE8ZFsCAQC+OSTTxAMBmGxWDSOYbKir68Pu3fvxrXXXqtpXJdIc0M6iTGQSA9xIkN0CnlK3mB1FAaDAY2Njdi0aRN6enpgNptZ51DiyScSyJAgKhI5ilRfWVdXhzfeeAN/93d/p1l4OVZdmlRyEhISElcXRB0l4/L8+fN4/fXXAVxaNoenvIkZCcpAih2IpWzXgh+PUCgEs9mMQCCAYDCI3t5ezXOg7fmO08Cl+lEg/rJhVwu8HdXY2Ijjx4+zdRLJxqCGfMkGmg/ffvsturq6kJOTMyCLmAhIvicjMSHBOztizQa/DZ8h2759O06fPj3gpU1kwa5Xw0iO4ttvv41Tp04xKowIvdrKq91VTEJCQmKiQlwvF7jIFuHX5zWbzVAUBRaLBWazGWazmS25o+fMiOUYElpdRzVxNOYmk0mzRqyiKJqls0jX0jOhfSbSGA+nBv/EiRPw+XysxpbGiO8PkUygcp6Ojg40NzdrGh8mUqAm+Z6MAN4xGOsfifgB/+INJwvW0dGBAwcOwOfzAQBUVWXKNVEWORXBL9URjUaZwUD8+K6uLmzdunVAvRjvYIvjmIzCW0JiokOPWi51Y/yBZ7XwWRdqqkbjzbfg55vW0PaijJe4BN5RId0nrjPJ9zrg5zg9B76+n3fskxWx3vPB3v2WlhYEg8EB9YfJXL8eiUTQ19eHzs7OmNvE+/uYvLNYYsIhHA6zWryhuO6nT5/G6dOnmXBSFAUmkwmhUCjuX9pYIOOBBLiqqvD7/QAuOsGpqanYsWMHAoGAZl0iYGBNBhkcEhISyYVElW8TEf39/Sx4SR1OySHkKXsi+CBfOBxmpRSy+/BA8A4djQt1NdezB/hAqlhjRvuR3k1GiHNnMHnCO5OqqjIHWsy0JqOtwdNpfT5fQmUPeSR1TeJ4PhQpZK8++OdLnUpDoRBr+z0Yzp49C5/PxyKGRqMRXq8XLpcLfr8/YQuq+QXOjUYjrFYrW/4iEomgvb0dTU1NKC4uZlFnulcay2AwiP7+fmZk2Gy2q3MzEhISY4qx7rAbC1I/jg1sNhtzCs3mi+YasURIfsd6hrTOr8lkgt1uB6DtlipxCTwNkJxvWuQ9VsZMzILxGURFUa70LcQNxF4QBFVVAQB2u11jXww2hxMZNH+MRiO790SUiwnvJPJGMRm7tC7J5WaF+IVq6RwUGQAuUkFsNhtsNhuCwSBbHFTkW4vHS7TuRuMJEsrRaJS1RVZVFYqisCgoH90jpyYcDqOvrw/hcBiKoiA1NRUlJSWoqqpCTU0NysrKYLVadc8HAJ2dnQgGg5qIYSJ33Io1n2iuEuXU6/UyJxG4VH9BUdG5c+fil7/8JQ4ePIgvv/wSJ0+exIULF9DX1weDwQCr1cqykHz0ld4RntqUaAXaEhLJBpKPfX19jHo4Vu8lveN8DbjFYmGy22KxaDJYYsMsiaHB18nxFEfRhtCT/4qisPpF3qFMZhrkaMFnBfmgaaxeBbyjLf5OZPuOHwNaG5rmDL+kB9FrzWYz/H4/vF4v+vr6AIDtB4A520TLNRgMzO4aTj2iSIsXs7h8fS2fVY8lXwZ7nnr7ic2eRLrxYBRu0Qfgt+F9inA4jJ6eHvaOOp1Oth+NncViYeVEsc43Xkh4J5GnXwSDQYRCIaxcuRJ33XXXZb+sfJYJuBgJoZehubkZR48exalTp9DS0oJQKAS73c4mFd+xic92ya6RWvBcfop8WiwWDd0xEomw50yOf2ZmJhYuXIjS0lKUl5ejoqICOTk5zJEcDvRe+GQ1Xihixxt09H7wBdUOhwMzZ85EeXk5Nm7ciGg0ilOnTuHkyZP45ptvcOzYMTQ2NsLj8bBsLRX20zlIeEtjRELi6oLk4YYNG3DrrbcyuXq5xgbJStKJXV1daGxsxLFjx9DQ0IDOzk74fD5YrVYmt3nZLGXD+IPGnM+OAbLz5mCY6M19+EQIr9OpQy5vU6uqinA4jMLCQixYsACLFi1CWlqaJrvKO3YjBR98psy5mLThr1l0GsXv+c/E84jPmj7j186me+EDXaPNgppMJpZdnDp1Kv7+7/8e33zzDY4cOYKGhgbmT1gsFgCA3++HwWBg43AlkfBOIik9ngteWFiIOXPmsIU6RwteYIj/02RpbW3Fl19+iU8//RT79u2D1+sFAKYcqSGK+NJIaEEvHY0rraVDjrrFYsG0adNw/fXXo6qqCsXFxcjMzNSMZyQSYZEXoubEAjlMvEBJ5ufCByr4iBR9F0t4AsCMGTMwffp0rFq1CqFQCJ2dnTh+/Dj279+Pr776CvX19VBVVRMxNJlM6O/vn9C0GwmJeICqqsjIyMDs2bOZXL3cgBgvq/kofzAYREdHBz777DN8/PHHOHr0KPr6+liQj7I0ok6VGHvwz1cMDEpcAm978J9NxHHi7SHeRiLaM9mz+fn5qKmpQW1tLaqrq1mChGdhjUTG6AUueGeTbybIB5h4u5r2F5dA4x088ZzicxYzhsTEEjOa/PajATmgwEVfYePGjbjzzjvh8Xhw4MABfPzxx/jiiy/Q1tbG6OVXq6liwjuJopNATTf4yNloIa5BxE8+miw5OTlYs2YNVq1ahQMHDuCFF17AV199BY/HA7vdzpRjrGue6OAjMjS+REcALkZDy8vLcc8992DZsmWstoKio/Q334lTT+iL0KMBTAQq8FBRKD0ByI+zxWJBbm4ucnNzsXTpUjQ3N+P999/He++9hwsXLjC6dTAYhMPhYHQzCQmJqwOr1cpkKwXPLrcOiOQk6VvKPJjNZuTm5uK2227D2rVr8fnnn+MPf/gDjhw5AgCsfEBmEscffL2XON7JrONGCr0s0kR1Egm8nUs2WTgcxrRp07By5UqsXr0aBQUFLKBPFFWRFjpSe2q4rC6ezspnF/njUAKJr+UVr0f8XzwO/94MRWUdCUSmITmkKSkpuP7667FkyRJ8++232LZtG3bu3Inm5mYEAgFNV2PxusYLCe8k8g4iOQr0QxHTyzm2njIjJcenm4PBIObPn48ZM2bgvffew2uvvYampibNmjtiVEJCC14wmM1m9PX1oaqqCv/4j/+IiooKNu5iZEiMPg33XINl0JL1GQ123+Ln/LPghSc5jUajEfn5+XjggQeQn5+PZ555Bo2NjQAuGqaJ3ABIQiIZwC+NwGf+gMvTQ/xxiDlAoFoas9mMG264AeXl5di0aRPeffdd9Pb26tLRJMYeZMCTDcKPtRx3ffAZ7mRtqDIYxAwcfeZyubBq1SrcfPPNmDJlCqxWK5MrRMnkEzP8fBtORlF0wESmAV8LKSZu+O14ELtQZDvo2Th6n/G0UpFyernzghxXfsz4TGE0GkVlZSWmTZuGpUuX4q233sL+/fvh8XgGzMvxfpcT3kkEtPRP/kGqqnpZnRlF/rM4YXnKDVEj3W43br/9dhQUFODZZ5/FiRMn2DXJxjX6EAUJtfu2WCx45JFHMHPmTCaEaLuhnI/RRLCS+ZnEuj9+3GNlV3mFaTAYNEYHBWdWrFiBhoYGvPrqqwgEAhOynkNCIt5AzUtI9xB9Xy/ANlLwBhTJCACM7k8GXU5ODh544AFkZ2fj1VdfZYGkZJa38QCSwaFQiHWTlIgN0UGaqEFOCvIQC27q1KnYuHEjli1bBrfbzeYR77gB0DT80WOIDXVO2pf/TX/zjhtwiZHAN+YTr4dsc775IW/XxKqPFhNPdD+8/T4SBzjW/ZIdy5c9kdykcymKgpqaGhQVFWHr1q145513cP78+RGf73KQFE4iPSwyZOkBjIVQFI8hcp9FDjfVzy1atAhGoxG/+tWvcPbsWQDaJi0Sl0Djxo+P3+9HRUUFFi9ezF50ir6IUSc9rvlIuPDitsluvPCCDtAae3rCmjjxfERNFPxWqxXz5s3D+++/zzrHxmofLiEhcWUg0provR2rpRD0DDjeACKn1Ol0sprmV199Fa2trZd3YxJDggxZn8+Hjo6OMckgJyN4/Uf/+3w+dHd3TzibjfQ7dTCfPn06HnjgASxdupSV+tB2gJZRAOiP5XDHkJdHdB185pDkl8lkgtVqZT+KosBqtcJmdK9g3QAAIABJREFUs7H/ifpO2UT+Gsm5DAaD7CcQCCAQCCAYDLL1panPAjlxfFKIt39G6yjSfmKNpXg8g+Fio8abb74ZTqcTL7/8Mi5cuDDi840WCe8kig+Hf3h6raLF/fiIAO9k6j04gl4q3WC4WO/BtwK/5pprcOutt+L5559HZ2enhkssBfVF8M+PN2AikQjy8vI0kXB+OyD2GMaiCBP4l1uPfsNHcvjt9QSBHk1B5IwPB2JUno43GB1C3I6fjzSHRyqkRYGqtw1lIkRqTnZ2NlJTU9Ha2irnt4REnIA3OmLpLv57kTbGQ5Q9sWqcSfbwlK2UlBSsXbsWHR0deOutt1h3ZP78E80oH0+Qo97f34+zZ89qaGpioEDv72SEni7X062tra1obm6ekEFOsgGysrJwyy23YMmSJYyRJ9oYovPFyxPall8Sg9+WfvP9JygzaDReXGsyJSUFKSkpSEtLQ0pKCjIzM5GWlsb+t9vtbBk6chotFgvMZjNbo5A/H/1NfUvIWfT7/ejv72c/fX198Pv9aGtrQ19fH9rb29He3o7e3l74fD74/X5Wi8kv70HnE7s5i/NIz7Hm/6fxorExGo1wu92ora1FV1cXXn75Zfh8Po2dFwqFxiUwn/BOomgUj6RrWqzsiV52ScyeiMKWIqb8d06nEzfccAPOnDmD999/f4DzIaHNAgPQTHpytniDRK84miA6WCOlONA+fFYzVlZSpKbwc0ls1hLrecfKiIpOrLj+j160TqRa8P/z2T8xAygKT/5vPliiJ+RE45IEJb0HY9E8SkJCYvSIZfSLdYEANDpMlAVDBcp4SitP0SN5Td+lpaVhw4YNOHHiBPbu3ctq9UWZL3H54PXq4cOH0dzcjIKCggEBSV73JrODCGjr6YGBzUxIT+7btw8tLS0TTn/RfDCZTFi8eDFuuOEGOByOmDaK3v6iTU7gbRNe5tDyDk6nExkZGcjPz0d+fj4KCgqQm5uL9PR0pKamwuVyISUlBQ6Hg2ULhyMrBmNM6CWL6D2ga/P7/ejp6UFXVxd6e3vR2dmJpqYmNDc3o7GxES0tLeju7mZLWvDOKV+aQ+fh5aEonwdLaAEXfYp169bh4MGD2L9/PxtXq9U6bk0CE95JvBzoGbq8wBgsogpoF9okB5UcDDpWTk4Oli9fjkOHDuHEiROsyDeZBfFowI8J0UuBS0Kbd9pi8dxHMqai0cPX7IjKk3++1OWLnjsdR1EUOBwO2Gw22O12mM3mAZEtk8kERVE0gQWKZIVCIYTDYQQCASaYeMoDbUfXStekp+xo7tF1ihGtWBnS0YwnHylUFIUtrzGS9SolJCSuPEgOicacXrBK/I5AOo/fNhbzhjB58mTceOONOHLkCPr7+zUyXWLsQLX94XAYJ06cwL59+7BhwwaNziPoPbdkgl5QGRjI4DEYDGhtbcWOHTvYus0TDQaDATk5OVi8eDEyMjIAXLKPeNtIHFO9AD3/3lMjSVVV2VIaOTk5KC4uRklJCaZPn468vDxkZmYiJSUFqampbOkNOj5vq4z1sxGD7lRb7XK5kJGRgZKSEmab+nw+9Pb2oqurC52dnTh37hyOHz+OkydPorGxEd3d3TAYDLDb7QOCcaI85J1GcTu9gH5eXh6+853v4NChQwgEAsxuHK/yngntJOqlxfmXQS/rwjfJ4Q1ymjy8g0j7zpw5EwsWLEBDQ4PMrgjgBQ8pNd5w4bNSwKWOVeIxAH36ZSyIEUUydsjgIeXKO412ux1ZWVmM7pCdnY28vDxkZGQgJSUFbrcbNpsNFouFceIp4sUXe/PXyfPueSc0FArB7/fD4/GwCBYJpObmZnR0dKCvrw/9/f3w+/0Ih8PMGaV5STWcfF2SOF68gaaXoeWzC3rg6SHRaJStS8oXi0tISMQfxCAOReZVVYXVah0QRNVrvEbBs3A4zEoDYskLXt4sWrQIs2bNwq5duzTNGqR+HDvQ81UUBZ2dnfjwww9RVVWFqVOnauQ7H+hO1vHn5ysfKBWbkUSjUWzZsgXHjh0bECieCKBxmT59OiorKzWf8fpcL4DEbyeWB0WjUXg8HqiqiuzsbJSVlWHu3LmYOXMmcnJykJ6eDrfbrVm8Xq/BVqwA92A2ymB2SKzgFt8gh2dqARczhSkpKXC5XCgsLITBcLGGlbKNZ8+exbfffouvv/4ax48fZx2GRXnL+w5ko/EJEbp2vetftGgRXnvtNZw7dw5msxn9/f1wOBwIhUJjPlcnvJNoMBjQ39/PHgx1dBIzSmTwixknevjkYPCKlbZ1u92YM2cOdu7cifPnzw+IJEx0iM5dNBpl3WINBgO8Xi+jPJARIo6fKKyGchTFBg70rIhrbrPZkJqaivz8fBQVFaGoqAhTpkxBXl4enE4nLBYLrFYrWwuTL5LWg14Gjz6n33pRuXA4zDKJqqqyTGN/fz+6urpw4cIFNDQ04Pz586ivr0d7ezv6+vqY003XRcek4/LZWNFx5a9lKIHDH5uynTSu9AwlJCTiD/w7zxspxAigaL+YbSQZQfKFZDI5GHyTMf5cfDDQ5XJh+fLl2LdvH1RVZbJC0k3HDvQcaFwPHjyIV155BQ8//DDy8vIAaPUgPX+955foIMcD0AZqxVrMnTt3YvPmzejr60MoFILVap1QjBiyZQsLC5GWlgZAu96myBAQm7rwzhpvB0ciEUybNg0PP/wwFi5ciLy8PBZYBy7JFDoPT9PkqZmD9QqJhZE6Tfz2vMwT75+/FqqNzM/PR2lpKRYsWID169fj1KlT+OKLL9h98uPDO4O8E6lnH9Ln9B0lKBoaGlgCY7zmaXJJglEgEolg06ZN+PTTT6GqKkKhEHMG6YUBLmZMHA4HZs2ahdraWpSUlLD9+boL+kxsfDJjxgyUlJTg7Nmz45IqT1TwApoMD1JW9fX1CAaDsNvtrCUzOYrAwIiV6IiJaXu9F46cG5/PB5fLhaqqKlRUVGDWrFkoKSlBbm4uFEVhP7GcKVHx6N2jXj3qUHOBKA9GoxE2m01TVxiJRJhjpqoqvF4vGhsbcezYMRw8eBBHjx5FS0sLvF4vc2Ypw8jTomkMSDjzQRK+zjfW86PnceHCBXR3d7PImHQQJSTiF3w2hafy+3w+/Pa3v8X+/fsZM0Ckg5rNZgSDQaSnp+Oaa67BihUrkJWVBZvNNqCWnCDK5IULF6KgoABnz55ljmqyOSdXE2azeQDTY+vWrQiFQnj00UdRUFDA5D7JeZ4JlWzg5y+xvkiXqqqKHTt24JlnnmHrWw+l+5IRBsPFshGn08kCBjRHyB7gWXSxHDdx/hiNRqxcuRKqqsLtdjOWFm8T6WUDxQwfnYP/figMNpf12FMiFZS/R7oe2ka0WynAkpGRgYyMDBQVFWHBggWwWq0aZ5e/bpJ7RqNRk3WkceYZZ3QNFosFWVlZzP6i3+Ka1mOBCS2RaZKePXsWX3/9NXvIfDaHIqwmkwl+vx/79u3Dtm3b8NBDD6G2tpa1BRapqAR6sQoKClBaWoq9e/dCVVXpJP7/EB05Prt35swZ/PrXv8bjjz/Ootv0AvH8a/55ian6WOcMBALweDwwGo2oqKjAd77zHSxatAiTJ09mhg691Kqqsqj5UPciOq4i9J57LOEEXDLg6DPRSSXn0eFwID09Hfn5+Zg1axZuv/129Pb24ptvvsHnn3+OnTt3oqenBx6Ph3XFAi5FUvnzktASlyWJdc8mkwnNzc3YtGkTuru7dbuZSUhIxBfIAOGp90ajES6XC6dOncI333wDu92uG9ziDbudO3fi1VdfxZNPPonZs2czmRDLUSRDKC0tDdOnT8fp06fZurh8PbrE5SEcDmsaWlBG8YMPPkBTUxMeeugh1NTUaKh9l7u2dLyC12M0DjRHW1pa8M477+DNN99EZ2cnLBaL5r2YSEF9sncCgQBzGHmng8YiHA5DVVX09fWhu7ubde8vLy+Hy+XSHS+bzcZsKNGeomPyjQn1Mr7itdLvwRxBvf4Vse5d7xx8koGnZ9N9EPjvqHTIZDIhJSWFOXlUDsSfq7e3F3V1dUhPT4fT6URaWhpbyoNf9o32BcASG8CltRXp/R3rQNuEdhJJMCqKApvNhmAwCKfTCVVVmeCkaJzBYEBqairC4TDq6+vx1FNPITU1FUuXLtVkkvhICv1Nk6egoAButxttbW1JyfsfLXjHhyIzLpcLXq8Xzz33HHbt2oXy8nKYTCZNRlGMKNG+iqLA7Xbjb//2b2Oes7CwEPfeey9WrFiBiooKWCwWdg28UjUajaz4WI9ywUPvmY4k6iVSOQg83Yt3iMV6ClKEdC8OhwP5+flYuXIlvF4vtm/fjk2bNiElJUVzDB7Hjh3D1q1b0dHRMSzlaDBcpAMfO3YMzc3NAzKdE0W5SkgkGkg28UYFUfspMEqt5EkGAVr2Rzgcht1uR0tLC374wx/irbfeQn5+/qDntVgsTMbOnj0b27Ztg8PhYPXYUjeODajGH7jUDI7Wr/3iiy9w6NAh1NTUYM2aNZg9ezYyMzNhsVjg8/mSMqNLdhlRqU+dOoVPP/30/2vvzIPjvMs7/t3j3Uurw5Zlx7Z8x7biEMfxATaGGMIEl0CcpnUKLWkL04HpwV+l9A+GMh1mOi2lpTCQKWUgTAgJBUJaYuI4jokdO3ESx7JkS7Ku6LIl65Z2de3xvrvbP9znp+d99a60ciRrj+cz4/Fq993dd9/j99zPg3PnzqG9vV01naPsHJ/Pp45foUA6xblz51T/hfHxcQwMDKieCGNjYwiFQhgbG1PzBWOxGKqqqvDtb39bNe4DZjq+ybnPo1687AUwj9fhkTyeMsz1oLn0lNkMSP696bK8uBONjFhrR1JuA9Bj7qChLC1uF9Bn9PX14e/+7u9U8CgQCCAYDKK4uFj1vygrK0N5eTlKS0uxcuVKdHZ24sKFCyqjg+rBSTdeSPJvJZgndCGSIReLxUwFpMC0t4DmOhUVFWF4eBjPP/88tmzZgsrKStsIFkVi6KKoqKhAUVERBgcHbUPydjVr+Y71ONBNRt2aXC4X2tvb0dzcbPLspbsRyJuyfft2fOlLX1JeQasB9uijj5rex296nlbK3zNbcfRsv++9Mldkci4PWyqVQlFRER566CF84hOfmLFvfLuBgQGcOHFCDWuda8GhBZEUSruopyAI2YdVXqVSKeUQ4422qGMxjyiSvHO73YjH4wgEAhgfH8cTTzyBf/zHfzQpiXbrEylUmzZtUhk7VNcoLAxc9wBgUnDJGDp37hxef/11FBUVIRgMqihivqVZWtP7aBYeZQkFg0FlQAJQSnehQfpER0cHvvnNb6p7n17jTmCKxjqdTgQCAZWiyrMIuK5ml25JmQWappn2g38nzyCj2YSp1M3+EcPDwxgcHMTIyAiGh4cxPDyMUCiEyclJ1R2eOoBShoOmafB6vSoDq6SkBMuXL8fKlSuxYsUKlJeXo7y8HEVFRaZSMm6o8v3jj6m+moJM5LBPp6PRMQ0GgyrDKxaLIRKJoL+/39TUkJ8fOs70bzHTxAveSJwNOwMGmDYompub0dfXh8rKSpOHwPo/3VRFRUXw+/2iPM8DaqRAhhuv+7SDblQqFM6EdBG8XIdfg5lEBCmq7vf7UVxcbDIiZyNdzYAYioKQv5DCxEsAqqurMTAwgDVr1sz5fofDgZKSEtXmnstQ4b3Ds5usBg8Z+UVFRco4GhkZydvsD26ocCOG0qn5iKh8/P3zhRo1WnUAO13AWjM3G5QpQA4hMtzIWOdRNl3XVdO+gYEB3LhxA++++y46Oztx48YNDAwMIBQKIRKJmLrikwFr5xyxZvkBZl3S5XKhqKgIpaWlKC4uxqZNm7BmzRrcdddd2LBhg0oFpdFm5ESj3+DxeOZdW209puR8swue8Iy5dOdmoa9fMRIzgHs+6QLzeDwYHR3FwMDAjBQZq5FIJ62oqCgv8/0XE2s+PP2drhMUbTPXgmV3I+WLcJjtd8yW0sqPHV3TmXin+H2R6X4IgpDb8PSqRCKBQCCAvr4+9PT0zGokcgWnpKRERSPnqn8W5gcpqzwLhq/x1lQ9h2O67imfI4n8OX690fXMm6pQd9hCgZetWJ+fzYDORE/gBiFF2HikLh6PY2pqCuPj4+jv70dTUxOuXr2Krq4u9Pb2YmJiQmXz8bnTgUBA7QM3/OwMW+vvsjaeId1ncHAQAwMDqKurUzOvg8EgVq5cia1bt6Kqqgpbt27FHXfcgWAwiGAwqFI9KbWb33N2x8t6bGY7jly/4hHa+ZQz3SpiJM5BumgKLSTRaNTUzdQu95jeP9uIBMEeXnfHBRc3xPlz9H8mhk0hkMnv5MLSanRnYmxL5FAQCgvumacUMOrgNz4+Put7+RpBihSvu16MlKlCxFpLCszstM1TiYl8jSYC9vKNR2hoGz5j2Pq+fIZ+Oy9Bme1+nE8WFk9RJz05Go0iHA7jxo0baGxsxNWrV9HS0qKMQjonXq/XNIYOmO5QyxvG2EUK+fm1Gvx0L1CneB5xdjgcWLZsmXpucnISra2taG5uxksvvQS/34/169ejqqoK9957L7Zt24bKykp4PJ55BYP4cbam6PJt6H+rTbLY16YYiWmwngBrDrFhGPD5fFi+fLnJC2F3cdJ7acSGkDnpolPpbgyeMy9kht0x5oZjpkqbVcETo1EQ8hOSd+TRp1b5mqZh5cqVGX9OJBIxZYAICwc3gij9zjrz0hpNzOdzYJVFVnllzawpVOyiVvSYb8Ofm49jnhpBJpNJNDY24tixY7hw4QIGBwdVTxCK3vF0adLrSIfmsxSt+2Snu6Tr0mw1DPlr1hRWnhKr6zqam5vR3NyM48ePY+3atTh06BA+9alP4c4777xl53k6I5cfQ/68pJsuMems+mQyiTVr1mDVqlUzTmA6A3NsbAyRSOR27XpeYE3Zpefsnuev0WMhM6weKh5FnG3RydTLKAhCfkGRKErJi0aj2L59OyorK+d8L0UVhoeHVat4qlESFgbKXiIlm8vFdE3guBM8n+CyjeSatcka19vIAMkkjTKfmC198VZKeOxep2aCnZ2d+N73voeamhrV+I7PE+SGoZ2hZDXirN/DI3SzdZ7n0Uer7m5XSkavW43Grq4uPPXUU+jq6sJXv/pVlJeX37IOZGeQZ7r9QiNGYhrsDD5+4bhcLhw8eBB33HGH6UK0M2DoM8LhMCYmJpbg1+Qu6fK5Z7spxDixX1jsjstCep8kcigIhQNFE3mE6siRI2rETjq44j04OIhoNIpAICBrxyLgcDhUWl5paSnWrFmD5cuXq06Ut6uuaamxGgQAZuhrhmEgFAqht7cXQ0NDpplz+XpcrMylV9npFZmkpXJo/MWJEyfw9ttvq9Fy3InBZ46Ts8MaBbfTzfn+8P22Rspni4pyeAMcqyPdOtGAUmFfeeUVfPCDH8Qf/uEfZnQ8rEYwYB/1tO4v36fFdGQUtJFIB5ZfOOQ5sPMyUIjZ7Xbj0KFDePDBB1FaWpq2zpAvRslkEoODg5icnDS9JsxOpsaOsDTIuRCE3IXLPqu8AmCSh7w7IFfgotEonE4nDh8+jAcffHDOebL0vU6nEx0dHaaoljA/uJLIS16A6fElJSUlOHjwIHbv3o3KykosW7YMPp/P1EfB7jPzidl+EzcSJyYm0NfXh6amJly4cAENDQ0ApmdO8v/n+txcZr5lPrfy2fX19TOau1gNP1p3+BB6O6fGbHpiOiPWzvhLt692z9M+Wg3PRCKBK1eu4OjRo7ZrYSa6fzZlaBW0kQhADbuk7krWsDYJSafTCZ/Phw0bNuADH/gAfu/3fg9btmxRaTLcUOReC3ociURw/fp1TE1NpT3J+bjYvFfeyzEp5OOZ6W+fbZEVBCF/4QoZV2bi8bipQYRd7UsymYTH44GmaVizZg0OHTqEhx56CCUlJTNqe7gc5Fk3sVgMdXV18Hq9MwxQIXO4s9vlcilHdiKRQFVVFT796U9j165dWLlypVLKpYHeNNZMsK1bt2LPnj3Yu3cvzp49i1//+tem69PtditDMV+v1fn+rrmcQrQNRQWBm3PHuZHFv9caVbOmCM9nf+cycG8lK836vNXgjMfjaT/TSrZH8wvaSKSF4cEHH8TWrVvVrBbrsEz6V1ZWhpUrV2Lt2rUoKytTXaDsbhCrsLt+/TpaW1tNXihBEARBWAq4jOJecZfLhSNHjmDv3r1wu90mJY17830+H0pKSlBeXo6NGzeipKREdRrkSrcV+o7Ozk68++67anB5utohYW64Q1vTNExOTuLgwYP4q7/6K2zfvr1ga+wywerUdzqdKCkpwe7du7F582asW7cO//7v/2669q1NUwQhXyloI9HhuNnud+fOndixY4eqNUwXztY0zVSoyqOMtI31fSRcm5qa8O6778pCLQiCICw5XEZx48zlcuHAgQMZRfU0TVPNaygtDEjfIZFHI8+ePYvx8XHb8g5hbqwpb3SMY7EY7rzzTnzlK1/B+vXrTcY/pfaKMT4T6xgQStV9+OGHEYvF8N3vfhcOh8Pk5JfIt5DvFLyRSDc5b7lLw2ZdLhdisZgyDmnhIMPQbrHgwpC27enpwVtvvYXx8fEZC7ogCIIg3G54xA+AKfrncDjg9XrV81y+8fQ8iryQXOMD3Pn38AHubrcbPT09OH36NOLxOAKBgHLCUqdTYX7QeaDHX/3qV7Fx40b1N50P3kVWDMWbcMcF1SY6nU54PB41ruGxxx5DT08Pfv7zn8Pn881IkxSEfKWgVwnyqlErW75AkEfU5/OZootkMFoNQv6Yp+YYhoGLFy/i0qVLUv8lCIIgZAXWWhgyHshAJBlHDlFuFPLRCjyrhiKK/DuAaSOGDJP//d//RU9Pj6qho88TAzFz+BBw4OYxnpycxKc+9Sncd999ang4DQkng0fmCJshxwdd/3yYvKZp8Pl88Hg8eOyxx9RYg0yaMwlCPlDQRiIXfCTMeDEyPU/pOCTAEokEdF031S7S9mR40t/Nzc04efIkhoaG1HPiwRMEQRCWEh7hA246QAFzC/rZ/pFzFQDcbjfi8Tii0eiMhh78s3Rdx4ULF3Ds2DHoug6PxwNd11UnTjES5weP7iaTSfj9fjz++OOqv4LL5TI5tuPxuBiJFsg4pGZNFO2me4NGiKxbtw4f/ehHMTY2Bp/PZwoICEK+UtDWCi0APPWCR/vIS8pbgANQgz+tXjnDMJRATCQSGBkZwYsvvoh33nnHlLojCMLSYXcPzve+tM4qsmuxLUwz3+Nj3Z6nhMlxXhiopIKieSTvrHVXdljPA3U79fl8MAzDNIydttV1HQMDA3jmmWcQDodVlMvr9arZafk2xH0xofNFBmAsFsO2bduwevVqZcQQpLvQIHO5h6ah40e6IDca6XXS+Xbt2oVAIIBIJAJAajsLmUK5hwr6CucGHl84KeWGz8Kx1m7wbQnugRofH8fx48fxP//zPyp1lSiUi0sQshVrW2y7+zvdP0ojp/fT8zyLoNBJt8ZlGsGwa3oiLCzWWkTeQCadI8X6ul17eZ6Oyu+N4eFh/OAHP0B1dbWpLl/GX9waPIpIa9KOHTvgdrtVdJbOMS+hkXtqJrzkiEfC+Rw/p9OJDRs2oLy8XPpKCAAw63qZLxR04xprMT7/nzqdWov1AfvZclRPMTk5iVAohBdffBFPPvmk7ecIgrB0UJodb2dOjamsM0/t3ut2u5VHnhp1SD3VTChNnzf7Ii89MLtgJUWXlDEyOtKNVRDmjzU7hp7jpRfpsDpX6Vxb5RylmF6/fh3//d//jddeew2xWEwiMAsEd2A7nU4UFxebjENhYaDrOxgMwu/3i1NDKBgK2kgEZg6ipbQXu7EW1vxzLhCj0SgcDgc6Ojrw/PPP49ixY3A4HPB4PCaFVBZvQVh6SOhTSlEikUAikYCmabPWmVB9Sjweh8PhgKZpkr6VBh7F4Ib5XJEMSk0k450ab/D0f2Fh4OeCDwi31ttz7NKr+TkhR0AymUQkEkFjYyOee+45nD17dsa4DeHWsRrjAFBUVLSUu5SX8LVK0zS15tNrsvYL+UxBG4k8QkiPKV3UzqDjhiNFCA3DwMjICLq7u3HhwgUcP34c169fV8YhT8eRaKIgZAfkbdd1HcB0E6u5GhHQdrzhFTmYxLNshtY5flwzaZpB0VprEzD6X9bQhcHanZtHE8kgp7/ttudRXd7RO5lMYnh4GG1tbXj77bfx6quvore3V9V18c/knyvcOtasBrk/Fh5r2QE9Jwj5TEEbiSTsIpEIYrGYiiJyZc8aSTQMA/F4HFNTUxgcHERfXx9aW1tRXV2Njo4OADeLwwFzQTSls4kiKQjZARl3AExK8Ww4nU7VIZDuZ15/JdwkXToiT3Gc7XhRZ0Frrdxc7xMyx3ocuayamppSqdfWiBVXkOk8xeNxjI2Nob+/HwMDA2hoaMCVK1dw48YNGIZhyqiRmriFwXr+eMaSHN+Fw5rmLtewUEgUtJEIALqu4+zZs6ivr0csFlOeTooCWj2k1OabBOLo6CgmJiYQjUbh9/uhaRqi0ajq1EapqzxaKYu4ICwdyWRStezn97nX61WzxGZ7L6WoAjPT1ecyYPLpvs/EWKNjSwYIHyU027EgJYwUXzo/lO4rKYvvHR4RpHNENaQnTpxAa2urSX6RssxlYiqVQiwWw+TkJEZHRzEwMIBwOIyxsTFl4FP9Lr1HWHj4eZSaxIWHr2O8E740sBHynYI3EgGgtrYWL7zwghphQQae1YNNiwKPOpDSEwgETCkftJiQ0AVmbwQgCMLtgRqoeDwe7N27F3fffbeKdtB9nw4yEpcvX25aH0RRSA8dm2AwiMOHD2Pbtm0Ze+ITiQT6+/tx8eJFDA4Oigd/AbGm7XLj+/z58zhz5gw8Ho8pUm4XVeRRXzo3NJuP6kmFxYOndVOKtjhSFg7ehZeQdV8oFAraSKTaFzL+uJcpvg5PAAAgAElEQVSUe7v5gsBbJVtTqbhHlgQqT7Oy65AqCMLthZTaRx55BEeOHMGWLVtUBHGu7pkUEaMGEdxZRFjrVSgCY+2SbB25ka7eLt1akWldFx9mnu4z+GvpnrPuY7r0K6uCSs+XlZXhIx/5CD70oQ/Nuf7xbItQKIStW7fi6aefxvDw8IyRQsKtwc8BP6e8Lp87NnldKH+Oag15OjHdJ9Y6RmHh4HqGXd2osHBYe1TI8RUKBZG2sJ+VZvc6hy/K6QSh3WMRlIKw9JSXl+Pw4cOoqqpCKpVSw6czGbHA72HrepFKpTA6OorR0VHccccdCAQCM+rz7AytTI28dNtbDUY7A3K+NTXcc86/nzf2on0zDANtbW3weDyorKxUddnW9/t8vhn7O9v3p1IprF69GocOHcKFCxdw/vx5MTgWkHQGhtXRye+NdMeep6Hy/62PhcWDjyERFhY7x5cg5DtiJAqCUFDE43EUFRWhvLwcbrcbsVgsbRRvPlBXyLa2NvzkJz9BRUUF3v/+92PPnj2oqKhQIzYcDofqqsozGbhiPldEwBqtnE1pmc15Zf08u+NAf1O0lXdQHB4extWrV1FdXY2zZ8/i6NGjePzxxxGLxeD1etPu01zHmmd0JJNJFBcXqxRfUdAEQRAEYfERI1EQhIKC0krJ2KCo10KkglMdVnt7O9544w28/PLLqKiowI4dO7B//37cfffd2LJly4wRDzz11C6CZ635su5rOqPLzjjkafLW7+BRI5obS9+raRp0XUdHRwcuXbqES5cuoampCd3d3UilUpiamkI0GkUqlYLH45mX4WqF/1bx4AuCIAjC7UeMREEQCgqqo+Jd6shoonrjdMyW7klGltvthsfjUf96e3vR09ODkydPoqioCJs2bcLOnTuxc+dObNmyBatXr0YgEFDjB9LVvvAW97wzpV39F3+/pmmq4Za1HpJHLa3jJsiI7OjoQFNTE5qamtDY2Ij29naEw2EAMDXporo0u+Njdw5mO8Z254TPshRjURAEQRAWFzESBUEoKBKJhOo4TN1MyQDhdYLpSFcPSM/ruq46JUejUTidTtXtUdd11NXV4eLFiwBudvxcvXo11q9fj+3bt2PDhg3YtGkT1qxZg+LiYtWkhQwx/p18X9M1c+EGJd+G1xbSfk5MTGB4eBhdXV1oaWlBd3c3GhsbMTIygrGxMdXIxO12q9pCXdfVsTMMQ/0djUbVNun2a7bXyDjk82Vp/IUgCIIgCIuPGImCIBQUHo9HGYRkIPLo2a2OquHdknnkiww1mp8aDAZVo5xUKoWenh50dnbid7/7nZorRzWTK1euxLJly7BixQoEg0EsW7YMZWVlKCkpQSAQgNfrhaZppvmDBEUP4/E4dF3H1NQUJiYmEA6HMTo6inA4jJGREQwNDWFoaAjDw8OYmJhQBi5FIT0eD4qLi9VvBKCiktYOqBQBnKsD6WyRQGvjDTKQ6ffIKCFBEARBWHzESBQEoaBIJBIIh8MIh8NYu3atilKRMTJbp1CO3dgI3ok0kUio2kMyuMho4yNzNE0zNXlJJpOIxWK4fv06Ojs7Z8yh40YoRShnMxLpn67rM1JWASjD1O12w+v1wuv1KoOPaix5Oiv//dx4o4gpHU8+Rogfo3RYt+PNfOh8SeMaQRCE3CYfR4jka9dtMRIFQSgofD4f+vr6cPbsWWzcuFFF46xzx2YzEHVdVwYRbx5jNTJ5/ZzdrC16zZpGSamWhHWmIn9MnVLTQcYe1fZZjVtrDSN/TGm56QZzc0OTjENusFo/z9q91TrD0Tqmg1JMGxsb0dbWlpfKhSAIQiHA13e7WeS5SKZO0FzFXvILgiDkKclkEh6PBy+88ALeeustU40ij7RZ575xIaBpGgCo9y22oOM1hAQZVxSVTPfPahRSZNL6eYsJRUL5wHXA3MWU7xMZj8lkElevXsWxY8cwODg4Y/6iIAiCIAiLg0QSBUEoONxuNwYHB/HP//zP+NznPofdu3dj7dq1KCsrMxkwgNlA4+meNBaCDJrFrJezjsW4VeYak7FYWI1DMgDpMb1GxzwWi6GnpwdXr17Fiy++iJqaGjVfUoaFC4Ig5Db5FnmbaxZxriJGoiAIBQWlumiahomJCXz/+99HVVUV9u7di82bN2PFihWqWUxJSYkpLcZab8g/L9fTZhYa67Hg6abW5yORCIaGhjAwMIBQKITu7m5cuXIFDQ0NGB0dBWA22gVBEARBWFzESBQEoeCgKJbb7YZhGKirq0NLSwsCgQCWL1+OiooKrFu3DpWVlVi1ahVWr16NiooKLFu2TKWa0mdQd9TFNF7Sjd1I93qmn7PY8FpFMrCTySTC4TCGhobQ19eH3t5e9Pb2oru7Gz09PQiFQhgbG0MsFlMpqgBMkVxBEAQhd8nHdTwff5MYiYIgFBR8IU8mk6ZxDaFQCKFQCB0dHaiurobX60VJSQkqKipQUVGByspKrF69GocPH0ZJSYkpMpav3c1uFR5ZdTgciEQiqK6uRn19Pfr6+tDf34+BgQGMjo4iGo2q0RvAzZpPt9sNl8ul0nh5/acgCIKQe/BGb/m4lufbbxIjURCEgoJHpGiEAz3n8XhUtCuVSiEWi6G/vx/9/f2qS+jy5ctx3333oaSkZMnqEHJFEPE6w3A4jJdeeglnzpxRnVP5rEqK0BI0usPpdCpDkZ8rQRAEIfewy4zJpzU9n35Lznc3tTaZ4I/pNbvaGP6YPN6ksPAGC4Ig5BfWSCLd99b1goxIt9utolq6riMcDquoVrrPpxpFYDrlMp9r6WjNpNRb7i0mDMPA5OQkYrEYHA4H3G63mvNIn8H/5bsicbuwdo8FZo5S4dvZHWc+FkYQBGG+UIM3kp3Lli1DPB7PWblIzmTeEZ2aq5WWlqptcn3NzPlIotUg5IJwrk6DVoWEK4xcaRQEIX+xW8TTLezW0RJ2Ao5mLtL2iURiYXc4S6B1k46H2+1GaWmpqj8EzKlFFDHMtMFPOqMl14Xu7YTkGh8/Yh2JQn/TdWo3yzNXFTlBELILWpNWrVplcqbmGtYaeafTCcMw4Ha7sXr1agDz0y2ylZyPJALT0QCqY6GTwIdMc4OQsHr83W43kskkDMNANBq9vT9CEIScJ5lMori4GMuXLzfNJMwHj6IVMh4oLdTr9aKysjKnBX++Qc7ORCKBZDIJXdfV9WidvWlnxKc7j2I0CoIwH7gxBQCbN2+eEeTJNaxOtFQqBY/Hg61bty7xni0ceWEkkgJGdS6ZXnB0Yg3DgK7rSCQSSKVScLvd8Pl8i7nLgiDkCdwATKVSWLFiBdatW2cSivloNPGRIPF4XHWBzUeDOFehUS1Ua+tyuVR02y5CO5f8zPe0aUEQFgc+PsrhcGDHjh3QNM2UeZJL8NI0cpa6XC4Eg0HceeedS717C0bOG4nkqSePBAlCAPB4PLO+lwSex+NBIBBQaWJSkygIwnyhOrvS0lLceeedCAaD6rl8VK4Nw1DNfnRdx4EDB1BWVmbK4BCWFsMwlBOUK2LWtGkAynB0Op0znKS5qMQJgpA98L4fAFBZWYl169YhFovNqatnIzwTkdbSSCSCrVu3oqKiYql3b8HIeSPR6XQq446EnK7riMfjiEajKhWKjElKvaH6C9ouFoshHo+rxgv5WkckCMJ7ZzaDz+VyYffu3di0aRMikYhac/INcqhNTU0hEAjg0KFDKCoqyjtjOJfx+/2mrrHUsZdnz1CJBcnSRCKBiYkJMQwFQVgwKOPE6XRC13W43W7s3btXrUO5Bh/JRCn8sVgM999//xLv2cKS841reN0PeUCdTidisRi8Xi8ikcis7yevt9vtRiwWg6ZpqkufIAjCfKDUk23btuGjH/0ourq6MDExYWoGki/wRigf//jHUVVVBZfLpSKnwtLDlbLx8XHben3eIZyMRpF/giAsJKlUSq0r1OTlgx/8IE6cOIGpqakZI5ByBVo/DcPAunXrsH///rzqBJ3zRiJBRfeRSAS1tbV48sknVWQwHclkEpqm4cqVK8qTSnWNIiQFQZgvtIY4nU4cPHgQtbW1OH/+vGmbdOMdAHNan9XQWkyhM1ujEmuzL+vYoI0bN+Lo0aNYtmyZ6u4mZAculwvxeBw1NTX40Y9+hGg0qq5RYNowpHSpeDyO0tJStLW1mbYTBEF4L5CRSLV7qVQKVVVVqKqqwsWLF2dsCyx9mru1MQ1/TI5fkvexWAy7d+/G+vXrl3y/F5K8kOZ0Ig3DgNfrRXNzMxoaGjKqK6S8YrfbrTrB2bUKFwRBIObq+uhwOLB582Z85jOfwdDQEFpaWkz1zrxOkdYd3vBlqYbGW7+TPL70mAvJZDKJiooKfO5zn8OWLVuU4Je1M3ug66qxsRH19fUmmcgNfes4E6lLFARhIbE6GF0uF0pLS/HQQw+hrq7O1FsEMMuipZIp1MhS13U1QYE3/eL7HAgE8Pu///vwer2qYVg+kB+/AmblTNM01c0tk/fZDRYWBEG4FbghtXfvXnzhC1/Aj3/8YzQ2Ns5IOyUhQwo6dXrj8wUXc04dNw544xISgIlEwtSBjgvH1atX40//9E/x4Q9/GMFgUO0vnzcrLD0ul0tlxljnVwLpZZ7IQkEQFhIaNu/xeJBMJuH1erFv3z7s378f586dUzKGOySX2ulImRbW/eGyOZFI4MiRI7j77rvV78wXct5ITCfs3ks3wXw6wYIg3B6415P+TqVSOHDgADweD5566inU1taqbXj6jdvtNgkj2sbqXV0MSOhRJJCiTbRv9DdFpZLJJKqqqnD06FEcOnQIwWDQFAlNJBLweDxiZGQB1gg1l4vW8RdWR6nIQUEQFhIq8SK5lkwmUV5ejoceeghtbW3o7e1VTkmXy7XkM4Z5ViEfd0FyjlL0t23bhj/4gz+A3+/Pu3Uzr1y9VmE4V7opNbyxegYEQRDmC89K4Aaey+XCvn378KUvfQmf+MQnEAwGZ8yp47OiaF2iCB8feL7Q0Hfy+XjcO0pGKwlFTdPwoQ99CH/5l3+Jj370oygqKjJ5VCk9R0YIZQeUOmqH1alKiBwUBGGhsatnp47Ke/fuxcMPP4yioiKTM5KPtFuqfeb7C9xsckn7ZRgGli1bhj/+4z9GZWWlWjfzqadJzkcS0zV3yETQWYXn7WwUIQhCfkL10dZIzbZt2/DFL34RO3bswIsvvoimpibVUZl7JoHptYhHFhcDLoh5mihvWhKLxeB0OlXH1gceeAAbN25Uv4v/T/WWuTogOd+wy6iZrTmRnDNBEBYDypzh2TG8NvHw4cPo6enBqVOnVFdmLkuXYm3iMhmAqRRD13V4vV4cOXIE999/P/x+v3Lq5hM5byRa02i4dz7Ti8oqSMWTKgjCrUARRBqya20OsmrVKjzyyCPYunUrqqurce7cOdTX16v0GmDaeUU1gYuZbsrXOdpn6vAcj8fhdruxadMmHDp0CAcOHMD27dtV/SEZkrR28n2VesTswC4F2opdRFHknyAIC4ldxh4fubNmzRocPXoUoVAIFy5cAHAzw8Xj8WTFHEXaZxof5Pf78eCDD+Lhhx9GSUmJKtewNrTJdXLeSExn3GWansUvXP73UhfLCoKQm/DoH08b5evKPffcg82bN2P//v24fPkyXn/9dTQ1NWFkZASJRAI+n89Uk7FY6aa8I2kqlUIkEoGu61ixYgXe97734cMf/jB27dqFzZs3o7i4WG0PmA0K3oCHd4gWlpZMjUORdYIgLCZc/lGE0BpR3LZtGz7/+c/D7XarRjZLGZmzjrmgxz6fDw888AA++9nPqpEXtxKgygVy3kgkrCcl05N0q+8TBEGwYvUe2nUpJWOqqKgI27dvx4YNG3DgwAF0d3fj0qVLqKmpQWdnJ0KhkIrOUTttPqyej6aYzSDjAozPgk2lUtB1XQnrYDCILVu2YNeuXdizZw82bdqEFStWqLpD/nlWw1XWzdxCDHhBEG4nVhlBZQ1cPmmahh07duAv/uIvoGkaXnnlFTV6giJ4PGIHwFRLP185xNdBko30edaOpi6XC7FYDH6/H48++iiOHj2KtWvXztiffMtEzHkjcbFORj6dZEEQFp9M1gw7p5Tf78f69etRWVmJ3bt3Y3JyEn19fWhpaUFdXR3a29vR09ODcDiM8fFxU90gF7RW4UQCkGY8cYHo8XhQXFyMVatW4c4778S9996Lqqoq3HHHHQgGg2qEEDd6xaGWe6Q7R3LuBEG43fB1h2SLNYvP7XZj+/bt+Pu//3vcddddePLJJzE6OopgMAhN0xCPx02GoV1vEZ5BkUlvEupSSmM5HA4HotGoqdPq2NgYNm7ciM9//vP42Mc+hmAwOOM35OO6mvNGoiAIQi5hl85Of3u9Xvh8PpSXl6Oqqgqf/OQnYRgGQqEQent7ce3aNfT09GBgYACDg4MYGxvD5OQkotEoEomEqt2g2XhutxtlZWUIBAIoLy/HqlWrsHr1aqxfvx7r16/HsmXL4Ha71fZcYFOqq93+C4IgCMJCwbNTdF1HaWkp/uiP/gj33nsvfvjDH+Kdd97B0NAQVqxYYYosWjNa5mMgAlCZNB6PBwCUDPX7/YjH48pIfPTRR/H4449j48aNi95QLpsQI1EQBOE2YxeV46MzAKg0U5/Ph2AwiLVr12Lv3r0zUj2p05phGCpq6Ha7oWkaNE1T6akE97RSNzYyMLnwoxRXQRAEQVgsqPaQ6tn9fj+Am87OXbt24Xvf+x7OnDmDp59+GjU1NQAATdPgcrnUTF6rYzPTzB5KFyXjMJVKIRaLIRqNIhgMYt++ffjCF76APXv2qBIPq0zN9PtyEdECBEEQsgBryigZb/w1YKaRR15Q8oRajUjrEGBeU0hClWY/0faCIAiCcDsgmUMGG8klqp13u934yEc+gg996ENoaGjAb37zG1y+fBlDQ0OYmpoyzV2kjJhEIgHDMEwZMlb4OAuSgV6vFzt37sTOnTtx+PBh3H333WpfaJtCamwpRqIgCEIWwjuJErxbKmHdJl3U0K75DG1Dcw2tKaeFIggFQRCEpcXaGVvTNOUsdblc8Hq9uOeee7B7925MTEygsbERLS0t6O3tRSgUQjgcRjQaVY5Pl8s16/iMVCoFj8eDkpISlJeXY/369dixYwc2bNgAn8+ntqH5vwDU3MZCybQpjF8pCIKwxGQyg87OwLMaa+kayFjbhVujhun2xVpfMdd+SldTQRAEYaGwyjcux8hAi8ViqoQimUzC7/dj37592Ldvn63MouyZ+cwrtDpOAahRVLquw+PxqHnGheJEFSNRyGnsUuMkXe69wY0OOZb22A0gBxbeaLITcOkK9e22t9vPdEX3fEzGQmOttxQEQRByEz5PfCEhuUSGGT12OBwqsseNNzLm7GTafOSY1SFL4ziAm010NE2b9bvmC581nM6Rmy2IkSjkLdl602Uj1kU/n1s6vxeo1kHXdVNdH6XIzHa8bmVERibbZPKdc3V6m89sp1uZRUUClgr/s1koCoIgCPbY1byTUWeVh3z7+crHdEYeRfLoPe9VR5nrM8hYXMgUU65vWY3EbNO5Ft5lLAi3EWuzj3SRxXR1WsI0fOGS42OP0+mEYRiIx+OmIbtA9i3uSw03UJ1Op+rACogDRxAEIVexy2bhHbKt28p6b4Yb0YZhmDqaZ9uxkkiikPNk4oUplPzx9wot8Nm2UGULDocDsVgM4+PjAKYL7YX0kACMx+OIRqNLvDeCIAjCQsCzaXRdV85T/tpi6125qtdRvaSu6ybjOtt0VdFuhJzFzpDhoftsutFygdmaowjTJBIJDA4OAjDXFgjTcO8xPSbjeiFShARBEITbj1Xmkb6l6zpisZht7XkhDZ/PBK4vTE5Oqo6p2eh0zq69EYR5wguOAXPqgzTJyAxuUOu6vsR7k/04HA50d3erkRH8eWEaawfVqakpTExMyHESBEHIM+LxOMLhMACzTiHppjPhtYhDQ0NqBFU2BjfESBRyGmstIh+Oak194O/JthsxG6BUytnmCgk3vaIdHR2mFBG5ntLjcDig6zoGBgYwNTUlTWsEQRByEG7ccBwOB6LRKPr7+5VTMBsNnmyCjk1PT09Wd/4WI1HIWewMRPqbmouQh4Yjni0z/FjQMZMFPj0OhwM3btxQTVhowL1ghterTE1NoaenB7FYTI6VIAhCDmKna9HjWCyGwcHBtN06ReeahstAMqwp5TTbECNRyHmcTiecTieSySSSySR8Ph/GxsYwODgIl8ulImOySNnDF/FwOKwiZGQsCmY0TcO1a9fQ1dUFYHpob6bOB7vB9tnqReT3Du1jMpnMONpMxyQcDqOzsxOGYWRdzYUgCIIwN3ztthqKqVQK3d3diMfjJmNH9Ah7HA4HRkdHce3aNQA3j6OmaVmXySXSWshpuPLKF6Z4PI6RkRFpxjIPSJmnDpRut1uOmQW61mKxGGprawHcPE6ZGnm86D+ZTJrmBmYjlDZEgn4+UXgqwnc6nQiFQrh27ZoagCxKgyAIQu5hHX9B/xuGgZ6eHvT29kLXdeVMtI4pE6Bkf3d3N/r7++F0OuF2uxGNRrPOiZpdeyMItwjPlU8mk4jH47h27doM5T1bB5YuJXTcYrEYhoeHYRiGOp7ZGuFaSsjwOX36tGl4cCbwa5SG85IRlo2QkHe5XGrfXS6XqWFPOuiYGIaBzs5OXL9+Xf1eQRAEIbewc/CRXEgkEujt7UVHRwc0TYPL5YLb7YbL5VLZNsJNyChsbGxEKBRSOkQqlYLbnV2TCcVIFHIevvjw1Ifm5mbVelmMnZnQgk8L+ODgIPr6+tRr2Zojv5SQQPR6vaitrUVfXx9isRiA9OnMdJxpaG4qlVJGFl2v2SYYCIr8AdM1hnxwcjroukkkEgiHw6itrUU0GhWvsiAIQo5it3aTTHA6nRgfH0dLS4uKIkqqqRmucyUSCVy+fBkAVKmUpmkquyhbECNRyHl4oTR5ZNxuN9rb25ViyrcVzAYNLVDXr1/HjRs3bJv9CNNQFDAcDuPVV1+F3+8HMHfNK3lUueDMhdRLcrDQLCyqOZktesoNy76+PtTW1s4rLVcQBEHIDchIjEajqK+vR29vr6k8gTJRChlrmm5bWxsaGxtNGUXZmFUkRqKQ81D6H91klBLX29uL5ubmGQXWhb5YcWhxp9l/oVAIiUQCLpdLHVNhGh6p9vl8ePnllxGJREzjMKzbcyhVkwxzaye4bIR+VzKZhNvtVsX1XAmw/gNuRhGj0Sjq6urQ3d1tSlHN5t8rCIIgzA9a+zs6OlBfX28yDHPBGXq7oGDG5cuXVXkPHadkMgmPx7PEe2hGjEQh50m3AI2NjeGdd96ZMdhVmEkoFEJrayui0ahS5udTa1cokFEN3Oxy2tLSgjfeeMNUwJ+O/v5+tLW1oa2tDaOjo6YIXTaTSCSQTCYRDodx/fp1tLa2oq+vD/F4PO176DcNDAzgzJkzWecdFQRBEBYGcnY6nU4MDw+jtrYWoVDI5LwXphkYGMDFixfVSCgyFLPRMZ+dhTCCcAtYDcFEIoHa2lqMj48jGAyqbQq1eY3dPD86Hl1dXWhubkY8HoemaSrSJY1GzPBrR9d1AMCxY8fw/ve/H8XFxTPmS9Lf169fx49+9CO0t7fDMAzs2LEDe/fuxT333IM1a9aY6mbTXaOLdb3Sd9lFNlOpFMbHx9HY2Ijq6mo0NDRgaGgIlZWVOHr0KPbt26c8n7zZEY1QuXTpEq5cuQKv12tKNS20e08QBCHfcTgciEajqKmpQVNTE/bv32+qQ7fWt/P35RtchvLfm0wmUVNTg4aGBpW1xWWvrusZNYa7XYiRKOQ0dkNd6Xm3243W1lbU1dVh//79ajv+vkKBGqbwtAZauOLxOBoaGnDjxg1TcxJS9CWaOA03ghwOBzRNQ21tLd58800cPnzYtpuurut48cUX8corryAWi6mmSmfOnMHBgwfx8Y9/HLt374bP51PvoeuUGscstoFIj621ve3t7Xj55Zfx6quv4tq1a9B1HQ6HA++++y58Ph/WrVuHyspKU6Ma+qzBwUEcO3YM0WgUgUBAXVOL+XsEQRCE2w+t65qmoaurC2+++Sa2b9+OsrKyGdtwvYLrG/kGb1RDMq+/vx9vvPEGRkZGlHznDeKy7Thk194IwgLicDgQCoXw+uuvIxaLqZuvEOsS+ULEu20CQG9vL2pqajA+Pg6n06kWtGxbrLIBbkR5PB4YhoFIJIIXX3wRfX196nWefjowMIB33nlH1c76fD54vV6MjY3h5MmT+N73vocXXngBoVDItj5xsa9Va3MB8m6+9dZb+P73v48nn3xS1RR6vV74/X643W5cvnwZXV1dyjDm14thGDh79izq6+vh8XhUyqqkfQuCkKvIujU7ZOwZhoFz586htrbWFEGzpp5Sk7x8PK7WGn3g5nzlt99+GzU1NaorOi/vyUYHqmiBQl5CijwAvPPOO2hsbFTP5+OCNBdOp9NUQ0ZGoGEYqK+vR319vSnlIV8X7oWAFnWaJ0kG08mTJ01Cj67BwcFBDA4OIhaLweVyqdbgJAza29vx9NNP49e//jWGh4cBTJ8fnoK6GHCHCaUYO51OvPbaa/jOd76Dc+fOmVJfaP+dTicmJiYQCoXUa2RcAkBHRwd++ctfqvdQMylCri1BEIT8gcssl8uFGzdu4NSpUxgYGDDV31tlDpB90bOFgutTyWQS165dw6uvvoqhoSFomgZg2jik7bON/DwzgsDo7e3F6dOnMTk5CSA7b8TFhncxtUa5zp07h5GREWiaNiMlNV8X7/cCF3SUPjk1NYWTJ0/i6tWrAGAy7vgQej4TkSKLdB5+9atf4dSpU4hGowBwW2ZMcQFFv6uurg5PPPEEWltb4XQ6bY07a50FPTYMAy6XCz//+c/R1dWljErahh8TQRCEXEacXdPwjBRyOL/55pt49dVXMTk5acTONxAAABT0SURBVGpeRllMfNt8g/+mZDKJ0dFRvPLKK6itrTU9T3oW6QfZNiZKNEAhL+GGTiKRwJtvvomGhgZTHnwhQco7X5Ti8TguX76M6upqAOb0iGxMe8g2+GgIl8uF9vZ2PPfccxgeHjYZQmvXrkVFRQUAQNd1tT3VK5KACIVC+O1vf4uGhgZlgFLns8W6Xq01qsPDw/jxj3+Mrq4ueL1eU02kYRgqAmoYBsrKylBeXm6q03Q6nTh+/DheeuklU7Mabozy7xUEQchm7NbeQtMfMoXX3yWTSUQiERw7dgxNTU0zau2B/I0gAmZnsq7reOutt3DixAlEIhEAM6Oo2ap35e8ZEgoauuHcbjecTid6enpw8uRJ9Pf3z1BYCwHepdThcCAWi6G/vx+//e1vMTY2NqNJjbWYWpiGomPUtprXFLz99ts4ceKEMqiSySSWL1+OAwcOwOl0qmitYRgq3YRH5FpaWvDmm29idHRUdU9dzE5nPCIKABcuXEBdXR2A6dEX9NvoXiJBdu+992LTpk1q/3VdR2trK77//e8jFoshkUhA07QZKTeFmvItCELuw7MphGnIScgjhqlUCq2trXj22WcxNDQEl8ulunfSdrysIp+g68MwDDQ0NOD5559HX1+fcgrTP8Asa7OpsykgRqKQp5DyTsp6KpXC2bNncf78+bxNb5gNa31bJBLB888/j+rqanUsePojbZePi/d7gUda6XhRx1KHw4GRkRH88pe/xJtvvqnSR1KpFD796U/j/vvvV6mkbrdb1Shy4aDrOm7cuIHJyUnTaInFhKLLDocDTU1NalYmNx65IavrOu666y4cOXIEq1atUlHEsbEx/Md//Af6+vrg9/vhcDhUHaxVESi0+08QBCGfoawtkotk7Hi9Xpw9exbf+c53MDY2Bk3TlOwjh2k+ygPq+dDd3Y0f/OAHuHz5snKaWp2ldMwAZN1MYTEShbwklUohkUjA7XYrZXd4eBjPPfccLl++rBYnull56/5cNIy48UK/yVpv5nK5EI/HEY/HUVNTg+eee06lPhLckJTxFzOhBZ5HD6nGkJ7v7+/HT3/6U1y9elVde0VFRfjKV76CBx98ECMjIyrKzSN0hmHA7/fjnnvuwYoVK9T3LfY5IO9vMpnEoUOH4Pf7VRosCXv6jVNTU9i0aRP++q//Gvfdd58S7rqu47vf/S5qamqgaZpKS+WRaalFFISFhUfoKV08mUyqtHYAJvlGirxEwTKH6ueSySRisRgmJydNa6IwDW96x7uaapqGl19+GU888YRygEYiEVWjz/UUrreQAzMbr1f6jXQ/8X2le3BiYgL/9m//hosXL8Lv92fl75gL0QCFvMThcMDr9SIej6ubNhAIoKGhAc888wyuXbtmUvRJSc9lSNGnaCD9JvpdhmHA5/Ohv78f3/zmN5UHj/7nCjyPJgrT2B0Xnk4J3BQely9fxn/913+ho6NDReVKSkrwr//6r/inf/onBINBjI6OYmxsDKFQCOFwGG63G5///Odx5MgR+Hw+FaVczMg3pc1qmgbDMHDffffhG9/4BioqKjA4OIjx8XH09PRgdHQUmqbh6NGj+Pa3v433v//9yhDUNA1PPPEETp06pY6H3bgZuaYEYWGhNZ/S97q7uxGPx+H3+033IHcEirPGHruRBQCgaZoaTzQwMIDx8XEAUCn1wk3sriu+5nu9XjzzzDP41re+hUQiAb/frxz1AGboX9yxaHe9pjtftwvekI6PDaPsGV3X8Y1vfAPnz5+H1+tFLBZTYy9mu/+y7d4UV4iQt8TjcWiapiIlkUgEPp8P58+fx7p16/DYY49h9erVSoCSByzbbtJM4aMZgJsRIopW0RD00dFRfP3rX0d3dzfKysoQj8el9nCBoGPodruRSCTwxhtvoKioCF/84hexfv16lf78yCOP4MEHH0RDQwOuXLmCSCSCVatWYf/+/diyZQuAm46LeDwOr9e7qNcl1Rgmk0l4vV4YhoGDBw/i5z//OS5cuICGhgZ4vV6Ul5fj4MGDWLlyJVwul1JAo9EofvrTn+L5559Xn0n3Xa7eR4KQK/BIvd/vR21tLSYmJuD1emfUofNuzLks5xaDdPIvlUohGo2irKwMuq6jtrYWoVAIwWBQyc1czDxaCjweD9xuN371q18hEongq1/9KoLBoLqGuR4GmLPBrNfrUusrvN6Q9t8wDLjdbmiahpGREfzDP/wDzpw5g2AwCE3TkEwm4ff7s3YeYjrESBTyFl5Tl0qlVI2XYRh49tlnUVJSgkceeQTBYFAp41yI8s/JBSiKSIsqzePTNE15Q7/2ta+hurraZCAWYo3mYsAbuDidTni9Xhw/fhzJZBJf/OIXsXHjRpWmpGkaPvCBD+CDH/ygKT2HDHzeJIbPH1xorGmgdO0UFxfj0KFDeOCBB5QyRNtS2lUkEsGzzz6LX/ziF4hEIkilUtA0DYFAQFLaBGGRoRICygbwer0YHBzEq6++ij/5kz+xHWHEZZus+fZYj4vP50M0GkUkEsFrr70Gn89n6hIuZEY0GkUymURZWRl++9vfYnBwEF//+tdxxx13KMcjb4zGU1HTRShvB+nuF7r/uBN3amoKTU1N+Jd/+Rc0NDSguLgYTqcTuq4rQzHX9C25woW8hZpl8MWc1yn+8Ic/xHPPPYfx8XEYhqFSU63kirJLRgZvQ011Ezdu3MDXv/51nD9/HoFAQEUWrTWJwnuHhJ2u6/D7/Thx4gS+853voK6uTrW/JqFChjwZVXxWEj1Pzy0G3EC1emo9Ho8pHZnuJQAYGhrCj370I/zyl79EJBKBy+WC3+8HAFM9lCAIiwe/J3VdRzAYxDPPPIO+vj6Tg5T+56NqhGns0hp5zZnH48Hx48fR1NSk1kV6n5AZHo8HPp8PqVQKpaWlqK6uxt/+7d/itddew8TEhKk5Gskbu1KYpcLa1ZbXA0ejUQwPD+P48eP48pe/jObmZpSWlqrsIV67yJsD5gISSRTyFlJ8yRul67pKqaMU1Keeegq6ruPo0aO44447TJ0rcwnaZ24g0qLU2dmJ//zP/8SpU6dQUlJiMgwoHVVYGLjgIOOOursNDAzgb/7mb7B79244nU4lMAGYonUkWKyD7BcLElp07VD0mdJn6LqieovW1lb87Gc/w5kzZ1Q9IwlK+s1c4AuCsPDQPUbrRCwWg6Zp6O7uxhNPPIEvf/nLKC4uNq1FQO44PZcablRfvnwZzzzzzIy1WWRn5lD9rNvtRjQaRTAYRG9vL77xjW/gkUcewUMPPYQNGzYgGAyanNzprtfbHU3kMo1H5MfHx9HW1obnnnsOp0+fhq7rKCoqQiKRgK7rCAQCiMfjSq7m2v0nRqKQl3BjjxZyUnwBqAhNKpXCT37yE/T29uIzn/kM7rrrLjW/LpfgKQ8UUZyYmMClS5fws5/9DLW1tSgtLVUKA6U/UGpkLnm2sh06poTD4UAwGERLSwu+9rWv4bHHHsPhw4exfv16eL1e03YAlPFOj62vLwb8e+i+4F0TdV3H8PAwzp8/jxdeeAFXr141dfijGZDUyEE64wrC4sPXBOpe7fP58NJLL6GiogKPPvoo1q1bBwAzIouy5ttj7RR+8eJFfOtb38LAwIBKNeWlAbLOZQZ3TtNxpCjbr3/9a1RXV+OBBx7A/v37sXHjRhQXFwOwd2pYnZCLdS3z68DanG5sbAxtbW04d+4cXnnlFdy4cQOapsHv9yMajSrnKZ+nzOsRc+X+EyNRyFtI2eZzeKzdFqmW4+TJk+js7MSf/dmfYd++fVi+fLkpOscNTr5QWKMm7+XG559htwBaFyr+PmvN2PXr1/G73/0Ox44dw40bN0xjDchAptbU4g1dGOgckJOBt+42DAMejwfxeBw/+clPUF9fj4cffhj33nsv1qxZM2NUBP3PnRzphOV7hX8fXT/82p+cnERNTQ1+97vf4Y033sDQ0JCq7wWmR2jQ9UXeYrmuBGHx4GsFRbxojXA6nfjFL36BiYkJPPzww9i2bZup4ZRgxiq/HQ4H+vv7cenSJTz77LNobW2F3+83Ob8kY2L+UFM3qqWlazKRSKCtrQ3d3d04f/48Dhw4gD179mDjxo1Yvny5bRrwQhtZ6UqNeCpyIpHAwMAAWltbceXKFbz11ltoa2tDIpFQEcNoNGr6nYD5uso1uShGopCXcIXXrnjfmjrg8XhQV1eH7373u3jggQfwsY99DNu2bUNRUZH6DKrjs6YAWhvdZLJv84F/PnkwrYPviZGREdTW1uLUqVM4f/48pqamlMJubYMOIOcWrGxmLocBT3++ePEiOjo6sGfPHhw6dAjve9/7sHr16hndB+fqbJrJdcc9uHbPExQFJAEeiURw5coVvP3223j99dfR3d2NRCIxI/ppdV5ww1YQhMXBri7O6gD9zW9+g87OTtx///3YsWMH1q1bh9LS0pzMlnmvzLWGJhIJxGIx9Pf3o62tDRcuXMDp06cRDofh8Xhsy1ByrQlJNkB6CB9BRnIxHo+jvr4era2tOH36NHbu3Imqqips2bIFq1evxsqVKwHAJBMXItJo19CJ632Dg4O4du0aOjo60NTUhIaGBvT09EDXdbjdbmUUWoMQdt+Ta9eLGIlCwWKNFBYVFWFoaAjPP/886uvrceDAAXz4wx/G1q1bTd5D7k1c6A5ns32eXZoCLUyk0J87dw4XLlzAtWvXVH2bpBdlB/zaoTbZp06dQkNDA7Zt24Y9e/bg3nvvxcaNG1U6Do8wcqwCMFNj0foZXGhRWmlvby/q6upw5coV1NTUoL293TQiwy6qLghC9uFyuXDp0iU0Nzdj06ZNWLduHVatWoVgMCj3LoPSAsPhMDo6OtDZ2YnR0VEVFbJbO4WFhWQRlS20trais7MTZ86cwapVq1BZWYnNmzejoqICK1aswPLlyxEIBODz+VR3ervmQ7Nd51wGUt+KqakphMNhjI+Po7e3FwMDA+jo6EB3dzf6+/sxMTGhdCvrqKd8vKfESBQKFlJ2yVsEQEXdGhoacP36dVy8eBEf+MAHcODAAWzZsmVGFIV3rKLoyVxG42wChnvHrN4ySuPjxfOTk5O4fPkyLl68qIxDGlBLnjqehiQsLWS067qumkn09fWhv78ftbW1WLduHbZu3YqtW7di48aNWLt2LUpLS+H1eme0255vbQOP+NF7EokEwuEwent70dXVhfb2drS0tKC9vR1DQ0PqOnI6naqRTS6mzAhCoUHRRKfTiampKdTX16OpqUndw/mo0KZjtt9K6xkdq3g8rhpyWY0AkaOLAy/poWuTmryEQiGMjo6iubkZr7/+OoLBIAKBAAKBAIqLi1FUVGRqmDaf65pHDXVdV+mik5OTmJqawsTEBCKRCGKxGIDpzuX0XmuWzmzRzVxFjEShYOHKLqXf8JudDLB3330Xp0+fRlVVFXbt2oWdO3di1apV8Pl8pkgdXzxuBWtKIDc2KQKVTCYxNTWFzs5O1NXV4fLly2hubsbAwIBp7iE3fqm5iLC00HnhwoyEWyKRwPj4OOrq6tDY2IhAIICysjKsXLkSK1aswIoVK+Dz+eD3+6Fp2ryi1/x7KV05Go0qj+nAwAAGBwcRDoeVcEylUsohwiPu3GgUQ1EQshdyCvHOySQTJAtgGl7/bRgGXC6XSrnntdX5pPhnG7zmz1pKQ87uVCqFeDyO4eFhjIyMqOfo/db/rWVFs303fRYv66HHdD1YS0D4P/459P58ub9EexQKEorKkdJM86ao2Q0XFBMTE2hpaUFHRwfOnj2L8vJybNiwAVu3bsXmzZuxdu1aLFu2DH6/H16v19TUw8pcHk2+YMXjcUQiEYyNjSEcDqOrqwudnZ1oaWnBtWvXVDqMVRmg//l4gnxatHIVut54RI/SN/k2ADA5OYnJyUn09PQow0zTNJOBRlFsUnDSYVcnSe/n1z19Dl0z8Xhc7TMvwqcoqESoBSF7oYYgfNYq3buF5jicbZ3itYa0NtPalm5On8jShYXkj8fjMc3+BGCq9bNzxFuNO/55c8knu+wv+h5r3wq+Pd+HfI/KF9ZKIQj/DynoANQsOPpb0zQ114aUZuDmQjE+Po7x8XFcv34db7zxBtxuN4qLi1FSUoKioiIEAoFZjcRMSSQSiMfjpvz4aDQKXdfVfvGudtxzZteuWVh6KNJLHlMAM4wtOn88GkzOCkp54R5NrtykY7bGNdzBQCk31ESA1x3SPvCZaxKNEITshVL2aL3h926hyYS5SjxofaQxWdTMjhxxtJ2weJDjkhvpAJQMtJbR8G2J+V7bpDtxfYobhPTZXM6SIx4oDN1KjEShIOENa1KpFGKxmKrVoKHgND6Dp3paawQNw0A8Hkd/f79aVMgAuBWsHdSsbcutCyjvWErb8dbSVGchLD08qsuVNavXlKKGhmGodGE7byX3dM92jrl33BpVpGuJBC735NK23IFCEQjaXhCE7ITuUWt0LN0opXxmrt/KO5xSJk48HpcZwrcJXoLBRzCRM5+yoshZCUzL03RdRTPpbkr6H8/K4V1XueOdv26dd2jngM0XxEgUChKrd5APL6fH1k6j/DF/Pyn91tbOt2O/7V7jXi4xELMHa8qv3bnkAooXydvBBdps2F231sfWiCTtEymW1i6rcl0JQnZD96h19FE+KbALhV1N22LKccEea7M+3lzQ2syPjMV0siiT65xvYzUura/x1633UT7fUyLpBUEQBEEQBEEQBIUYiYIgCIIgCIIgCIJCjERBEARBEARBEARBIUaiIAiCIAiCIAiCoBAjURAEQRAEQRAEQVCIkSgIgiAIgiAIgiAoxEgUBEEQBEEQBEEQFGIkCoIgCIIgCIIgCAoxEgVBEARBEARBEASFGImCIAiCIAiCIAiCQoxEQRAEQRAEQRAEQeG2e/LP//zPb/d+CDmA0+lELBbDPffcAwBwOBwZve+Tn/wkdu3aBY/Hg1QqtZi7KOQgDocD8XgcO3fuhMfjyei6cjgcOHDgAEpLS5FMJjO+FoXCIplMYtOmTSgtLc3oGnE6nbjzzjvx2c9+Frquy3UlzMDhcCCVSiEYDGLVqlUZv2/FihV4/PHHYRiGXFeCLQ6HA7quY82aNervuQgGg3jssccwOTm52LsnFACBQMD0tyMlWrsgCIIgCIIgCILw//wfVHr3N+aeJOYAAAAASUVORK5CYII=;" parent="BQqJ0CVYMRjZI5g4xNkV-2" vertex="1">
          <mxGeometry x="27.416666666666668" y="77.4" width="151.73166666666665" height="101.83333333333333" as="geometry" />
        </mxCell>
        <mxCell id="_mz8Om-OODLQYlZUzOBS-72" value="" style="shape=image;html=1;verticalAlign=top;verticalLabelPosition=bottom;labelBackgroundColor=#ffffff;imageAspect=0;aspect=fixed;image=https://cdn1.iconfinder.com/data/icons/social-media-vol-3/24/_video-128.png;rotation=-90;" parent="BQqJ0CVYMRjZI5g4xNkV-2" vertex="1">
          <mxGeometry x="81.34916666666669" y="203.82" width="43.86666666666667" height="43.86666666666667" as="geometry" />
        </mxCell>
        <mxCell id="_mz8Om-OODLQYlZUzOBS-73" value="" style="shape=image;html=1;verticalAlign=top;verticalLabelPosition=bottom;labelBackgroundColor=#ffffff;imageAspect=0;aspect=fixed;image=https://cdn1.iconfinder.com/data/icons/social-media-vol-3/24/_video-128.png;rotation=90;fontColor=#FF7221;" parent="BQqJ0CVYMRjZI5g4xNkV-2" vertex="1">
          <mxGeometry x="81.34916666666669" width="43.86666666666667" height="43.86666666666667" as="geometry" />
        </mxCell>
        <mxCell id="_mz8Om-OODLQYlZUzOBS-74" value="" style="endArrow=none;dashed=1;html=1;dashPattern=1 3;strokeWidth=2;rounded=0;exitX=0;exitY=0;exitDx=0;exitDy=0;" parent="BQqJ0CVYMRjZI5g4xNkV-2" source="_mz8Om-OODLQYlZUzOBS-69" edge="1">
          <mxGeometry width="50" height="50" relative="1" as="geometry">
            <mxPoint x="58.75" y="86" as="sourcePoint" />
            <mxPoint x="97.91666666666667" y="43" as="targetPoint" />
          </mxGeometry>
        </mxCell>
        <mxCell id="_mz8Om-OODLQYlZUzOBS-75" value="" style="endArrow=none;dashed=1;html=1;dashPattern=1 3;strokeWidth=2;rounded=0;exitX=1;exitY=0;exitDx=0;exitDy=0;entryX=0.982;entryY=0.122;entryDx=0;entryDy=0;entryPerimeter=0;" parent="BQqJ0CVYMRjZI5g4xNkV-2" source="_mz8Om-OODLQYlZUzOBS-69" target="_mz8Om-OODLQYlZUzOBS-73" edge="1">
          <mxGeometry width="50" height="50" relative="1" as="geometry">
            <mxPoint x="35.25" y="86" as="sourcePoint" />
            <mxPoint x="105.75" y="51.6" as="targetPoint" />
          </mxGeometry>
        </mxCell>
        <mxCell id="_mz8Om-OODLQYlZUzOBS-76" value="" style="endArrow=none;dashed=1;html=1;dashPattern=1 3;strokeWidth=2;rounded=0;exitX=0;exitY=1;exitDx=0;exitDy=0;entryX=1;entryY=0.25;entryDx=0;entryDy=0;" parent="BQqJ0CVYMRjZI5g4xNkV-2" source="_mz8Om-OODLQYlZUzOBS-69" target="_mz8Om-OODLQYlZUzOBS-72" edge="1">
          <mxGeometry width="50" height="50" relative="1" as="geometry">
            <mxPoint x="35.25" y="86" as="sourcePoint" />
            <mxPoint x="105.75" y="51.6" as="targetPoint" />
          </mxGeometry>
        </mxCell>
        <mxCell id="_mz8Om-OODLQYlZUzOBS-77" value="" style="endArrow=none;dashed=1;html=1;dashPattern=1 3;strokeWidth=2;rounded=0;exitX=0.971;exitY=0.992;exitDx=0;exitDy=0;entryX=1;entryY=1;entryDx=0;entryDy=0;exitPerimeter=0;" parent="BQqJ0CVYMRjZI5g4xNkV-2" source="_mz8Om-OODLQYlZUzOBS-69" target="_mz8Om-OODLQYlZUzOBS-72" edge="1">
          <mxGeometry width="50" height="50" relative="1" as="geometry">
            <mxPoint x="186.9816666666667" y="86" as="sourcePoint" />
            <mxPoint x="127.69743333333318" y="55.89311999999997" as="targetPoint" />
          </mxGeometry>
        </mxCell>
        <mxCell id="_mz8Om-OODLQYlZUzOBS-78" value="" style="rounded=1;whiteSpace=wrap;html=1;fillColor=#D5E8D4;strokeColor=none;gradientColor=none;glass=0;opacity=40;" parent="BQqJ0CVYMRjZI5g4xNkV-2" vertex="1">
          <mxGeometry x="27.416666666666668" y="136.31" width="150.2825" height="51.6" as="geometry" />
        </mxCell>
        <mxCell id="_mz8Om-OODLQYlZUzOBS-79" value="" style="rounded=1;whiteSpace=wrap;html=1;fillColor=#f8cecc;strokeColor=#b85450;glass=0;opacity=40;" parent="BQqJ0CVYMRjZI5g4xNkV-2" vertex="1">
          <mxGeometry x="26.303333333333335" y="71" width="152.515" height="51.6" as="geometry" />
        </mxCell>
        <mxCell id="BQqJ0CVYMRjZI5g4xNkV-15" value="" style="rounded=0;whiteSpace=wrap;html=1;" vertex="1" parent="_mz8Om-OODLQYlZUzOBS-80">
          <mxGeometry x="307.25" y="145" width="14.75" height="15" as="geometry" />
        </mxCell>
        <mxCell id="_mz8Om-OODLQYlZUzOBS-52" value="" style="edgeStyle=orthogonalEdgeStyle;rounded=0;orthogonalLoop=1;jettySize=auto;html=1;" parent="1" source="g9vQ7g-nkQoQMRCDzfDm-40" target="g9vQ7g-nkQoQMRCDzfDm-43" edge="1">
          <mxGeometry relative="1" as="geometry" />
        </mxCell>
        <mxCell id="g9vQ7g-nkQoQMRCDzfDm-40" value="" style="shape=cube;whiteSpace=wrap;html=1;boundedLbl=1;backgroundOutline=1;darkOpacity=0.05;darkOpacity2=0.1;rotation=0;size=30;fillColor=#d5e8d4;strokeColor=#82b366;fontFamily=Verdana;direction=east;" parent="1" vertex="1">
          <mxGeometry x="-610" y="803" width="60" height="110" as="geometry" />
        </mxCell>
        <mxCell id="_mz8Om-OODLQYlZUzOBS-53" value="" style="edgeStyle=orthogonalEdgeStyle;rounded=0;orthogonalLoop=1;jettySize=auto;html=1;" parent="1" source="g9vQ7g-nkQoQMRCDzfDm-43" target="g9vQ7g-nkQoQMRCDzfDm-52" edge="1">
          <mxGeometry relative="1" as="geometry" />
        </mxCell>
        <mxCell id="g9vQ7g-nkQoQMRCDzfDm-43" value="" style="shape=cube;whiteSpace=wrap;html=1;boundedLbl=1;backgroundOutline=1;darkOpacity=0.05;darkOpacity2=0.1;rotation=0;size=30;fillColor=#d5e8d4;strokeColor=#82b366;fontFamily=Verdana;direction=east;" parent="1" vertex="1">
          <mxGeometry x="-510" y="803" width="60" height="110" as="geometry" />
        </mxCell>
        <mxCell id="_mz8Om-OODLQYlZUzOBS-56" value="" style="edgeStyle=orthogonalEdgeStyle;rounded=0;orthogonalLoop=1;jettySize=auto;html=1;" parent="1" source="g9vQ7g-nkQoQMRCDzfDm-46" target="g9vQ7g-nkQoQMRCDzfDm-5" edge="1">
          <mxGeometry relative="1" as="geometry" />
        </mxCell>
        <mxCell id="g9vQ7g-nkQoQMRCDzfDm-46" value="" style="shape=cube;whiteSpace=wrap;html=1;boundedLbl=1;backgroundOutline=1;darkOpacity=0.05;darkOpacity2=0.1;rotation=0;size=30;fillColor=#d5e8d4;strokeColor=#82b366;fontFamily=Verdana;direction=east;" parent="1" vertex="1">
          <mxGeometry x="-354" y="803" width="60.5" height="110" as="geometry" />
        </mxCell>
        <mxCell id="_mz8Om-OODLQYlZUzOBS-54" value="" style="edgeStyle=orthogonalEdgeStyle;rounded=0;orthogonalLoop=1;jettySize=auto;html=1;" parent="1" source="g9vQ7g-nkQoQMRCDzfDm-52" target="g9vQ7g-nkQoQMRCDzfDm-46" edge="1">
          <mxGeometry relative="1" as="geometry">
            <mxPoint x="-350" y="860" as="targetPoint" />
          </mxGeometry>
        </mxCell>
        <mxCell id="g9vQ7g-nkQoQMRCDzfDm-52" value="&lt;font style=&quot;font-size: 21px&quot;&gt;. . .&lt;/font&gt;" style="text;html=1;strokeColor=none;fillColor=none;align=center;verticalAlign=middle;whiteSpace=wrap;rounded=0;fontFamily=Verdana;direction=east;" parent="1" vertex="1">
          <mxGeometry x="-425.5" y="843" width="45.5" height="30" as="geometry" />
        </mxCell>
        <mxCell id="_mz8Om-OODLQYlZUzOBS-2" value="" style="shape=cube;whiteSpace=wrap;html=1;boundedLbl=1;backgroundOutline=1;darkOpacity=0.05;darkOpacity2=0.1;rotation=0;size=30;fillColor=#ffe6cc;strokeColor=#d79b00;fontFamily=Verdana;direction=east;" parent="1" vertex="1">
          <mxGeometry x="-540" y="670" width="36" height="120" as="geometry" />
        </mxCell>
        <mxCell id="_mz8Om-OODLQYlZUzOBS-17" value="" style="edgeStyle=orthogonalEdgeStyle;rounded=0;orthogonalLoop=1;jettySize=auto;html=1;" parent="1" source="_mz8Om-OODLQYlZUzOBS-1" edge="1">
          <mxGeometry relative="1" as="geometry">
            <mxPoint x="-354" y="730" as="targetPoint" />
          </mxGeometry>
        </mxCell>
        <mxCell id="_mz8Om-OODLQYlZUzOBS-1" value="" style="shape=cube;whiteSpace=wrap;html=1;boundedLbl=1;backgroundOutline=1;darkOpacity=0.05;darkOpacity2=0.1;rotation=0;size=30;fillColor=#ffe6cc;strokeColor=#d79b00;fontFamily=Verdana;direction=east;" parent="1" vertex="1">
          <mxGeometry x="-310" y="670" width="35" height="120" as="geometry" />
        </mxCell>
        <mxCell id="_mz8Om-OODLQYlZUzOBS-9" style="edgeStyle=orthogonalEdgeStyle;rounded=0;orthogonalLoop=1;jettySize=auto;html=1;exitX=0;exitY=0;exitDx=15;exitDy=15;exitPerimeter=0;" parent="1" source="g9vQ7g-nkQoQMRCDzfDm-5" target="_mz8Om-OODLQYlZUzOBS-1" edge="1">
          <mxGeometry relative="1" as="geometry">
            <Array as="points">
              <mxPoint x="-245" y="730" />
            </Array>
          </mxGeometry>
        </mxCell>
        <mxCell id="_mz8Om-OODLQYlZUzOBS-13" value="+" style="ellipse;whiteSpace=wrap;html=1;aspect=fixed;direction=east;" parent="1" vertex="1">
          <mxGeometry x="-334" y="721.5" width="17" height="17" as="geometry" />
        </mxCell>
        <mxCell id="_mz8Om-OODLQYlZUzOBS-14" style="edgeStyle=orthogonalEdgeStyle;rounded=0;orthogonalLoop=1;jettySize=auto;html=1;entryX=0.5;entryY=1;entryDx=0;entryDy=0;" parent="1" target="_mz8Om-OODLQYlZUzOBS-13" edge="1">
          <mxGeometry relative="1" as="geometry">
            <mxPoint x="-325" y="820" as="sourcePoint" />
            <Array as="points">
              <mxPoint x="-325" y="818" />
              <mxPoint x="-325" y="775" />
              <mxPoint x="-325" y="775" />
            </Array>
          </mxGeometry>
        </mxCell>
        <mxCell id="_mz8Om-OODLQYlZUzOBS-37" style="edgeStyle=orthogonalEdgeStyle;rounded=0;orthogonalLoop=1;jettySize=auto;html=1;" parent="1" source="_mz8Om-OODLQYlZUzOBS-18" edge="1">
          <mxGeometry relative="1" as="geometry">
            <mxPoint x="-410" y="730" as="targetPoint" />
          </mxGeometry>
        </mxCell>
        <mxCell id="_mz8Om-OODLQYlZUzOBS-46" style="edgeStyle=orthogonalEdgeStyle;rounded=0;orthogonalLoop=1;jettySize=auto;html=1;exitX=0;exitY=0;exitDx=20;exitDy=15;exitPerimeter=0;entryX=0.5;entryY=0;entryDx=0;entryDy=0;" parent="1" source="_mz8Om-OODLQYlZUzOBS-18" target="_mz8Om-OODLQYlZUzOBS-45" edge="1">
          <mxGeometry relative="1" as="geometry" />
        </mxCell>
        <mxCell id="_mz8Om-OODLQYlZUzOBS-18" value="" style="shape=cube;whiteSpace=wrap;html=1;boundedLbl=1;backgroundOutline=1;darkOpacity=0.05;darkOpacity2=0.1;rotation=0;size=30;fillColor=#ffe6cc;strokeColor=#d79b00;fontFamily=Verdana;direction=east;" parent="1" vertex="1">
          <mxGeometry x="-390" y="670" width="35" height="120" as="geometry" />
        </mxCell>
        <mxCell id="_mz8Om-OODLQYlZUzOBS-20" style="edgeStyle=orthogonalEdgeStyle;rounded=0;orthogonalLoop=1;jettySize=auto;html=1;exitX=0;exitY=0;exitDx=25;exitDy=15;entryX=0.5;entryY=1;entryDx=0;entryDy=0;exitPerimeter=0;" parent="1" target="_mz8Om-OODLQYlZUzOBS-21" edge="1">
          <mxGeometry relative="1" as="geometry">
            <mxPoint x="-479" y="818" as="sourcePoint" />
            <Array as="points">
              <mxPoint x="-479" y="775" />
              <mxPoint x="-479" y="775" />
            </Array>
          </mxGeometry>
        </mxCell>
        <mxCell id="_mz8Om-OODLQYlZUzOBS-25" value="" style="whiteSpace=wrap;html=1;fontFamily=Verdana;fillColor=#ffe6cc;strokeColor=#d79b00;direction=east;" parent="1" vertex="1">
          <mxGeometry x="-481" y="510" width="171" height="140" as="geometry" />
        </mxCell>
        <mxCell id="_mz8Om-OODLQYlZUzOBS-34" style="edgeStyle=orthogonalEdgeStyle;rounded=0;orthogonalLoop=1;jettySize=auto;html=1;exitX=0;exitY=0;exitDx=15;exitDy=15;exitPerimeter=0;entryX=0.201;entryY=1.009;entryDx=0;entryDy=0;entryPerimeter=0;" parent="1" source="_mz8Om-OODLQYlZUzOBS-2" target="_mz8Om-OODLQYlZUzOBS-25" edge="1">
          <mxGeometry relative="1" as="geometry" />
        </mxCell>
        <mxCell id="_mz8Om-OODLQYlZUzOBS-35" style="edgeStyle=orthogonalEdgeStyle;rounded=0;orthogonalLoop=1;jettySize=auto;html=1;exitX=0;exitY=0;exitDx=12.5;exitDy=12.5;exitPerimeter=0;entryX=0.5;entryY=0;entryDx=0;entryDy=0;" parent="1" source="_mz8Om-OODLQYlZUzOBS-1" target="_mz8Om-OODLQYlZUzOBS-47" edge="1">
          <mxGeometry relative="1" as="geometry">
            <Array as="points">
              <mxPoint x="-339" y="683" />
            </Array>
          </mxGeometry>
        </mxCell>
        <mxCell id="_mz8Om-OODLQYlZUzOBS-38" style="edgeStyle=orthogonalEdgeStyle;rounded=0;orthogonalLoop=1;jettySize=auto;html=1;" parent="1" source="_mz8Om-OODLQYlZUzOBS-36" edge="1">
          <mxGeometry relative="1" as="geometry">
            <mxPoint x="-503" y="730" as="targetPoint" />
            <Array as="points">
              <mxPoint x="-503" y="730" />
            </Array>
          </mxGeometry>
        </mxCell>
        <mxCell id="_mz8Om-OODLQYlZUzOBS-36" value="&lt;font style=&quot;font-size: 21px&quot;&gt;. . .&lt;br&gt;&lt;/font&gt;" style="text;html=1;strokeColor=none;fillColor=none;align=center;verticalAlign=middle;whiteSpace=wrap;rounded=0;fontFamily=Verdana;direction=east;" parent="1" vertex="1">
          <mxGeometry x="-464" y="708.5" width="54" height="30" as="geometry" />
        </mxCell>
        <mxCell id="_mz8Om-OODLQYlZUzOBS-21" value="+" style="ellipse;whiteSpace=wrap;html=1;aspect=fixed;direction=east;" parent="1" vertex="1">
          <mxGeometry x="-488" y="721.5" width="17" height="17" as="geometry" />
        </mxCell>
        <mxCell id="_mz8Om-OODLQYlZUzOBS-102" style="edgeStyle=orthogonalEdgeStyle;rounded=0;orthogonalLoop=1;jettySize=auto;html=1;entryX=-0.007;entryY=0.795;entryDx=0;entryDy=0;fontColor=#FF7221;entryPerimeter=0;fillColor=#1ba1e2;strokeColor=#006EAF;strokeWidth=3;" parent="1" source="_mz8Om-OODLQYlZUzOBS-42" target="_mz8Om-OODLQYlZUzOBS-97" edge="1">
          <mxGeometry relative="1" as="geometry">
            <Array as="points" />
          </mxGeometry>
        </mxCell>
        <mxCell id="_mz8Om-OODLQYlZUzOBS-42" value="Spatial " style="rounded=1;whiteSpace=wrap;html=1;direction=east;fillColor=#dae8fc;strokeColor=#6c8ebf;" parent="1" vertex="1">
          <mxGeometry x="-464" y="590" width="140" height="30" as="geometry" />
        </mxCell>
        <mxCell id="g9vQ7g-nkQoQMRCDzfDm-88" value="" style="ellipse;whiteSpace=wrap;html=1;fontSize=21;fillColor=#dae8fc;strokeColor=#6c8ebf;rotation=-180;fontFamily=Verdana;" parent="1" vertex="1">
          <mxGeometry x="-464" y="620" width="30" height="30" as="geometry" />
        </mxCell>
        <mxCell id="_mz8Om-OODLQYlZUzOBS-45" value="" style="ellipse;whiteSpace=wrap;html=1;fontSize=21;fillColor=#dae8fc;strokeColor=#6c8ebf;rotation=-180;fontFamily=Verdana;" parent="1" vertex="1">
          <mxGeometry x="-385" y="620" width="30" height="30" as="geometry" />
        </mxCell>
        <mxCell id="_mz8Om-OODLQYlZUzOBS-47" value="" style="ellipse;whiteSpace=wrap;html=1;fontSize=21;fillColor=#dae8fc;strokeColor=#6c8ebf;rotation=-180;fontFamily=Verdana;" parent="1" vertex="1">
          <mxGeometry x="-354" y="620" width="30" height="30" as="geometry" />
        </mxCell>
        <mxCell id="_mz8Om-OODLQYlZUzOBS-48" value="&lt;font style=&quot;font-size: 21px&quot;&gt;. . .&lt;br&gt;&lt;/font&gt;" style="text;html=1;strokeColor=none;fillColor=none;align=center;verticalAlign=middle;whiteSpace=wrap;rounded=0;fontFamily=Verdana;direction=east;" parent="1" vertex="1">
          <mxGeometry x="-431" y="620" width="44" height="20" as="geometry" />
        </mxCell>
        <mxCell id="_mz8Om-OODLQYlZUzOBS-101" style="edgeStyle=orthogonalEdgeStyle;rounded=0;orthogonalLoop=1;jettySize=auto;html=1;fontColor=#FF7221;fillColor=#e51400;strokeColor=#B20000;strokeWidth=3;" parent="1" source="_mz8Om-OODLQYlZUzOBS-49" target="_mz8Om-OODLQYlZUzOBS-97" edge="1">
          <mxGeometry relative="1" as="geometry">
            <Array as="points">
              <mxPoint x="-200" y="575" />
              <mxPoint x="-200" y="575" />
            </Array>
          </mxGeometry>
        </mxCell>
        <mxCell id="_mz8Om-OODLQYlZUzOBS-49" value="Training Error" style="rounded=1;whiteSpace=wrap;html=1;direction=east;fillColor=#f8cecc;strokeColor=#b85450;" parent="1" vertex="1">
          <mxGeometry x="-464" y="560" width="140" height="30" as="geometry" />
        </mxCell>
        <mxCell id="_mz8Om-OODLQYlZUzOBS-99" style="edgeStyle=orthogonalEdgeStyle;rounded=0;orthogonalLoop=1;jettySize=auto;html=1;fontColor=#FF7221;fillColor=#76608a;strokeColor=#B266FF;strokeWidth=2;entryX=0.5;entryY=0;entryDx=0;entryDy=0;" parent="1" source="_mz8Om-OODLQYlZUzOBS-50" target="_mz8Om-OODLQYlZUzOBS-104" edge="1">
          <mxGeometry relative="1" as="geometry">
            <mxPoint x="-122" y="560" as="targetPoint" />
            <Array as="points">
              <mxPoint x="-394" y="500" />
              <mxPoint x="-105" y="500" />
            </Array>
          </mxGeometry>
        </mxCell>
        <mxCell id="_mz8Om-OODLQYlZUzOBS-50" value="Box keypoints + Class" style="rounded=1;whiteSpace=wrap;html=1;direction=east;fillColor=#e1d5e7;strokeColor=#9673a6;" parent="1" vertex="1">
          <mxGeometry x="-464" y="530" width="140" height="30" as="geometry" />
        </mxCell>
        <mxCell id="_mz8Om-OODLQYlZUzOBS-82" style="edgeStyle=orthogonalEdgeStyle;rounded=0;orthogonalLoop=1;jettySize=auto;html=1;entryX=0.017;entryY=0.526;entryDx=0;entryDy=0;entryPerimeter=0;fontColor=#FF7221;" parent="1" source="_mz8Om-OODLQYlZUzOBS-81" target="g9vQ7g-nkQoQMRCDzfDm-40" edge="1">
          <mxGeometry relative="1" as="geometry">
            <Array as="points">
              <mxPoint x="-730" y="861" />
            </Array>
          </mxGeometry>
        </mxCell>
        <mxCell id="_mz8Om-OODLQYlZUzOBS-104" value="" style="shape=image;html=1;verticalAlign=top;verticalLabelPosition=bottom;labelBackgroundColor=none;imageAspect=0;aspect=fixed;image=https://cdn2.iconfinder.com/data/icons/font-awesome/1792/filter-128.png;rounded=1;glass=0;fontColor=none;fillColor=#9AC7BF;gradientColor=none;imageBackground=none;noLabel=1;opacity=50;" parent="1" vertex="1">
          <mxGeometry x="-128.75" y="562.5" width="47.5" height="47.5" as="geometry" />
        </mxCell>
        <mxCell id="_mz8Om-OODLQYlZUzOBS-106" value="Collection Layer" style="rounded=1;whiteSpace=wrap;html=1;rotation=0;" parent="1" vertex="1">
          <mxGeometry x="-810" y="928" width="120" height="30" as="geometry" />
        </mxCell>
        <mxCell id="_mz8Om-OODLQYlZUzOBS-109" value="" style="edgeStyle=orthogonalEdgeStyle;rounded=0;orthogonalLoop=1;jettySize=auto;html=1;fontColor=none;strokeColor=#B266FF;strokeWidth=2;" parent="1" source="_mz8Om-OODLQYlZUzOBS-107" target="_mz8Om-OODLQYlZUzOBS-108" edge="1">
          <mxGeometry relative="1" as="geometry" />
        </mxCell>
        <mxCell id="_mz8Om-OODLQYlZUzOBS-107" value="Filter Layer" style="rounded=1;whiteSpace=wrap;html=1;rotation=0;" parent="1" vertex="1">
          <mxGeometry x="-165" y="610" width="120" height="30" as="geometry" />
        </mxCell>
        <mxCell id="_mz8Om-OODLQYlZUzOBS-113" value="" style="edgeStyle=orthogonalEdgeStyle;rounded=0;orthogonalLoop=1;jettySize=auto;html=1;fontColor=none;strokeColor=#B266FF;strokeWidth=2;" parent="1" source="_mz8Om-OODLQYlZUzOBS-108" target="_mz8Om-OODLQYlZUzOBS-112" edge="1">
          <mxGeometry relative="1" as="geometry" />
        </mxCell>
        <mxCell id="_mz8Om-OODLQYlZUzOBS-108" value="" style="whiteSpace=wrap;html=1;rounded=1;fillColor=#cce5ff;strokeColor=#36393d;" parent="1" vertex="1">
          <mxGeometry x="-165" y="705" width="120" height="60" as="geometry" />
        </mxCell>
        <mxCell id="_mz8Om-OODLQYlZUzOBS-110" value="" style="html=1;verticalLabelPosition=bottom;align=center;labelBackgroundColor=#ffffff;verticalAlign=top;strokeWidth=2;strokeColor=#0080F0;shadow=0;dashed=0;shape=mxgraph.ios7.icons.data;rounded=1;glass=0;fontColor=none;fillColor=default;gradientColor=none;opacity=50;" parent="1" vertex="1">
          <mxGeometry x="-159" y="720.45" width="24" height="29.099999999999998" as="geometry" />
        </mxCell>
        <mxCell id="_mz8Om-OODLQYlZUzOBS-111" value="&lt;div&gt;Aggregation &lt;br&gt;&lt;/div&gt;&lt;div&gt;Layer&lt;/div&gt;" style="rounded=1;whiteSpace=wrap;html=1;rotation=0;" parent="1" vertex="1">
          <mxGeometry x="-131" y="720.45" width="80" height="30" as="geometry" />
        </mxCell>
        <mxCell id="_mz8Om-OODLQYlZUzOBS-112" value="" style="whiteSpace=wrap;html=1;rounded=1;fillColor=#cce5ff;strokeColor=#36393d;" parent="1" vertex="1">
          <mxGeometry x="-160" y="800" width="110" height="60" as="geometry" />
        </mxCell>
        <mxCell id="_mz8Om-OODLQYlZUzOBS-114" value="&lt;div&gt;Application &lt;br&gt;&lt;/div&gt;&lt;div&gt;Layer&lt;/div&gt;" style="rounded=1;whiteSpace=wrap;html=1;rotation=0;" parent="1" vertex="1">
          <mxGeometry x="-145" y="813" width="80" height="30" as="geometry" />
        </mxCell>
        <mxCell id="_mz8Om-OODLQYlZUzOBS-118" value="" style="ellipse;whiteSpace=wrap;html=1;fontSize=21;fillColor=#dae8fc;strokeColor=#6c8ebf;rotation=-180;fontFamily=Verdana;" parent="1" vertex="1">
          <mxGeometry x="-185" y="938" width="20" height="20" as="geometry" />
        </mxCell>
        <mxCell id="_mz8Om-OODLQYlZUzOBS-119" value="&lt;div align=&quot;center&quot;&gt;Residual Block&lt;/div&gt;&lt;div align=&quot;center&quot;&gt;&amp;nbsp;for Spatial Module&lt;br&gt;&lt;/div&gt;" style="text;whiteSpace=wrap;html=1;fontColor=none;align=center;" parent="1" vertex="1">
          <mxGeometry x="-165" y="928" width="135" height="30" as="geometry" />
        </mxCell>
        <mxCell id="_mz8Om-OODLQYlZUzOBS-120" value="" style="shape=cube;whiteSpace=wrap;html=1;boundedLbl=1;backgroundOutline=1;darkOpacity=0.05;darkOpacity2=0.1;rotation=0;size=30;fillColor=#d5e8d4;strokeColor=#82b366;fontFamily=Verdana;direction=east;" parent="1" vertex="1">
          <mxGeometry x="-190" y="878" width="20" height="50" as="geometry" />
        </mxCell>
        <mxCell id="_mz8Om-OODLQYlZUzOBS-121" value="CNN block" style="text;whiteSpace=wrap;html=1;fontColor=none;align=center;" parent="1" vertex="1">
          <mxGeometry x="-170" y="888" width="79" height="30" as="geometry" />
        </mxCell>
        <mxCell id="_mz8Om-OODLQYlZUzOBS-122" value="" style="shape=cube;whiteSpace=wrap;html=1;boundedLbl=1;backgroundOutline=1;darkOpacity=0.05;darkOpacity2=0.1;rotation=0;size=30;fillColor=#ffe6cc;strokeColor=#d79b00;fontFamily=Verdana;direction=east;" parent="1" vertex="1">
          <mxGeometry x="-91" y="878" width="20" height="50" as="geometry" />
        </mxCell>
        <mxCell id="_mz8Om-OODLQYlZUzOBS-123" value="Features" style="text;whiteSpace=wrap;html=1;fontColor=none;align=center;" parent="1" vertex="1">
          <mxGeometry x="-75" y="888" width="79" height="30" as="geometry" />
        </mxCell>
        <mxCell id="_mz8Om-OODLQYlZUzOBS-126" value="OcpDet" style="rounded=1;whiteSpace=wrap;html=1;rotation=0;fillColor=#fad7ac;strokeColor=#b46504;" parent="1" vertex="1">
          <mxGeometry x="-454" y="925" width="120" height="30" as="geometry" />
        </mxCell>
        <mxCell id="BQqJ0CVYMRjZI5g4xNkV-7" value="" style="edgeStyle=orthogonalEdgeStyle;rounded=0;orthogonalLoop=1;jettySize=auto;html=1;startArrow=none;" edge="1" parent="1" source="BQqJ0CVYMRjZI5g4xNkV-53" target="BQqJ0CVYMRjZI5g4xNkV-6">
          <mxGeometry relative="1" as="geometry" />
        </mxCell>
        <mxCell id="BQqJ0CVYMRjZI5g4xNkV-5" value="" style="rounded=0;whiteSpace=wrap;html=1;" vertex="1" parent="1">
          <mxGeometry x="-552" y="590" width="59" height="60" as="geometry" />
        </mxCell>
        <mxCell id="BQqJ0CVYMRjZI5g4xNkV-6" value="" style="rounded=0;whiteSpace=wrap;html=1;" vertex="1" parent="1">
          <mxGeometry x="-552" y="498" width="59" height="60" as="geometry" />
        </mxCell>
        <mxCell id="BQqJ0CVYMRjZI5g4xNkV-8" value="" style="rounded=0;whiteSpace=wrap;html=1;" vertex="1" parent="1">
          <mxGeometry x="-552" y="590" width="14.75" height="15" as="geometry" />
        </mxCell>
        <mxCell id="BQqJ0CVYMRjZI5g4xNkV-9" value="" style="rounded=0;whiteSpace=wrap;html=1;" vertex="1" parent="1">
          <mxGeometry x="-537.25" y="590" width="14.75" height="15" as="geometry" />
        </mxCell>
        <mxCell id="BQqJ0CVYMRjZI5g4xNkV-10" value="" style="rounded=0;whiteSpace=wrap;html=1;" vertex="1" parent="1">
          <mxGeometry x="-522.5" y="590" width="14.75" height="15" as="geometry" />
        </mxCell>
        <mxCell id="BQqJ0CVYMRjZI5g4xNkV-12" value="" style="rounded=0;whiteSpace=wrap;html=1;" vertex="1" parent="1">
          <mxGeometry x="-507.75" y="590" width="14.75" height="15" as="geometry" />
        </mxCell>
        <mxCell id="BQqJ0CVYMRjZI5g4xNkV-13" value="" style="rounded=0;whiteSpace=wrap;html=1;fillColor=#fa6800;fontColor=#000000;strokeColor=#000000;" vertex="1" parent="1">
          <mxGeometry x="-507.75" y="605" width="14.75" height="15" as="geometry" />
        </mxCell>
        <mxCell id="BQqJ0CVYMRjZI5g4xNkV-14" value="" style="rounded=0;whiteSpace=wrap;html=1;fillColor=#fa6800;fontColor=#000000;strokeColor=#000000;" vertex="1" parent="1">
          <mxGeometry x="-507.75" y="620" width="14.75" height="15" as="geometry" />
        </mxCell>
        <mxCell id="BQqJ0CVYMRjZI5g4xNkV-17" value="" style="rounded=0;whiteSpace=wrap;html=1;" vertex="1" parent="1">
          <mxGeometry x="-507.75" y="635" width="14.75" height="15" as="geometry" />
        </mxCell>
        <mxCell id="BQqJ0CVYMRjZI5g4xNkV-20" value="" style="rounded=0;whiteSpace=wrap;html=1;fillColor=#e3c800;strokeColor=#000000;fontColor=#000000;" vertex="1" parent="1">
          <mxGeometry x="-552" y="635" width="14.75" height="15" as="geometry" />
        </mxCell>
        <mxCell id="BQqJ0CVYMRjZI5g4xNkV-22" value="" style="rounded=0;whiteSpace=wrap;html=1;fillColor=#e51400;fontColor=#ffffff;strokeColor=#000000;" vertex="1" parent="1">
          <mxGeometry x="-552" y="605" width="14.75" height="15" as="geometry" />
        </mxCell>
        <mxCell id="BQqJ0CVYMRjZI5g4xNkV-24" value="" style="rounded=0;whiteSpace=wrap;html=1;" vertex="1" parent="1">
          <mxGeometry x="-552" y="620" width="14.75" height="15" as="geometry" />
        </mxCell>
        <mxCell id="BQqJ0CVYMRjZI5g4xNkV-25" value="" style="rounded=0;whiteSpace=wrap;html=1;" vertex="1" parent="1">
          <mxGeometry x="-537.25" y="635" width="14.75" height="15" as="geometry" />
        </mxCell>
        <mxCell id="BQqJ0CVYMRjZI5g4xNkV-26" value="" style="rounded=0;whiteSpace=wrap;html=1;fillColor=#e51400;fontColor=#ffffff;strokeColor=#000000;" vertex="1" parent="1">
          <mxGeometry x="-522.5" y="635" width="14.75" height="15" as="geometry" />
        </mxCell>
        <mxCell id="BQqJ0CVYMRjZI5g4xNkV-27" value="" style="rounded=0;whiteSpace=wrap;html=1;fillColor=#e3c800;strokeColor=#000000;fontColor=#000000;" vertex="1" parent="1">
          <mxGeometry x="-537.25" y="620" width="14.75" height="15" as="geometry" />
        </mxCell>
        <mxCell id="BQqJ0CVYMRjZI5g4xNkV-28" value="" style="rounded=0;whiteSpace=wrap;html=1;fillColor=#e51400;fontColor=#ffffff;strokeColor=#000000;" vertex="1" parent="1">
          <mxGeometry x="-522.5" y="620" width="14.75" height="15" as="geometry" />
        </mxCell>
        <mxCell id="BQqJ0CVYMRjZI5g4xNkV-29" value="" style="rounded=0;whiteSpace=wrap;html=1;fillColor=#e51400;fontColor=#ffffff;strokeColor=#000000;" vertex="1" parent="1">
          <mxGeometry x="-537.25" y="605" width="14.75" height="15" as="geometry" />
        </mxCell>
        <mxCell id="BQqJ0CVYMRjZI5g4xNkV-30" value="" style="rounded=0;whiteSpace=wrap;html=1;fillColor=#fa6800;fontColor=#000000;strokeColor=#000000;" vertex="1" parent="1">
          <mxGeometry x="-522.5" y="605" width="14.75" height="15" as="geometry" />
        </mxCell>
        <mxCell id="BQqJ0CVYMRjZI5g4xNkV-32" value="" style="rounded=0;whiteSpace=wrap;html=1;" vertex="1" parent="1">
          <mxGeometry x="-552" y="498" width="14.75" height="15" as="geometry" />
        </mxCell>
        <mxCell id="BQqJ0CVYMRjZI5g4xNkV-33" value="" style="rounded=0;whiteSpace=wrap;html=1;" vertex="1" parent="1">
          <mxGeometry x="-537.25" y="498" width="14.75" height="15" as="geometry" />
        </mxCell>
        <mxCell id="BQqJ0CVYMRjZI5g4xNkV-34" value="" style="rounded=0;whiteSpace=wrap;html=1;" vertex="1" parent="1">
          <mxGeometry x="-522.5" y="498" width="14.75" height="15" as="geometry" />
        </mxCell>
        <mxCell id="BQqJ0CVYMRjZI5g4xNkV-35" value="" style="rounded=0;whiteSpace=wrap;html=1;" vertex="1" parent="1">
          <mxGeometry x="-507.75" y="498" width="14.75" height="15" as="geometry" />
        </mxCell>
        <mxCell id="BQqJ0CVYMRjZI5g4xNkV-36" value="" style="rounded=0;whiteSpace=wrap;html=1;fillColor=#e51400;fontColor=#ffffff;strokeColor=#000000;" vertex="1" parent="1">
          <mxGeometry x="-507.75" y="513" width="14.75" height="15" as="geometry" />
        </mxCell>
        <mxCell id="BQqJ0CVYMRjZI5g4xNkV-37" value="" style="rounded=0;whiteSpace=wrap;html=1;fillColor=#f0a30a;fontColor=#000000;strokeColor=#000000;" vertex="1" parent="1">
          <mxGeometry x="-507.75" y="528" width="14.75" height="15" as="geometry" />
        </mxCell>
        <mxCell id="BQqJ0CVYMRjZI5g4xNkV-38" value="" style="rounded=0;whiteSpace=wrap;html=1;" vertex="1" parent="1">
          <mxGeometry x="-507.75" y="543" width="14.75" height="15" as="geometry" />
        </mxCell>
        <mxCell id="BQqJ0CVYMRjZI5g4xNkV-40" value="" style="rounded=0;whiteSpace=wrap;html=1;fillColor=#e51400;fontColor=#ffffff;strokeColor=#000000;" vertex="1" parent="1">
          <mxGeometry x="-552" y="513" width="14.75" height="15" as="geometry" />
        </mxCell>
        <mxCell id="BQqJ0CVYMRjZI5g4xNkV-41" value="" style="rounded=0;whiteSpace=wrap;html=1;fillColor=#0050ef;fontColor=#ffffff;strokeColor=#000000;" vertex="1" parent="1">
          <mxGeometry x="-552" y="528" width="14.75" height="15" as="geometry" />
        </mxCell>
        <mxCell id="BQqJ0CVYMRjZI5g4xNkV-42" value="" style="rounded=0;whiteSpace=wrap;html=1;" vertex="1" parent="1">
          <mxGeometry x="-537.25" y="543" width="14.75" height="15" as="geometry" />
        </mxCell>
        <mxCell id="BQqJ0CVYMRjZI5g4xNkV-44" value="" style="rounded=0;whiteSpace=wrap;html=1;fillColor=#0050ef;strokeColor=#000000;fontColor=#ffffff;" vertex="1" parent="1">
          <mxGeometry x="-537.25" y="528" width="14.75" height="15" as="geometry" />
        </mxCell>
        <mxCell id="BQqJ0CVYMRjZI5g4xNkV-45" value="" style="rounded=0;whiteSpace=wrap;html=1;fillColor=#f0a30a;fontColor=#000000;strokeColor=#000000;" vertex="1" parent="1">
          <mxGeometry x="-522.5" y="528" width="14.75" height="15" as="geometry" />
        </mxCell>
        <mxCell id="BQqJ0CVYMRjZI5g4xNkV-46" value="" style="rounded=0;whiteSpace=wrap;html=1;fillColor=#0050ef;fontColor=#ffffff;strokeColor=#000000;" vertex="1" parent="1">
          <mxGeometry x="-537.25" y="513" width="14.75" height="15" as="geometry" />
        </mxCell>
        <mxCell id="BQqJ0CVYMRjZI5g4xNkV-47" value="" style="rounded=0;whiteSpace=wrap;html=1;fillColor=#0050ef;fontColor=#ffffff;strokeColor=#000000;" vertex="1" parent="1">
          <mxGeometry x="-522.5" y="513" width="14.75" height="15" as="geometry" />
        </mxCell>
        <mxCell id="BQqJ0CVYMRjZI5g4xNkV-49" value="" style="endArrow=classic;startArrow=classic;html=1;rounded=0;exitX=1;exitY=1;exitDx=0;exitDy=0;entryX=0.003;entryY=0.444;entryDx=0;entryDy=0;entryPerimeter=0;" edge="1" parent="1" source="BQqJ0CVYMRjZI5g4xNkV-37" target="_mz8Om-OODLQYlZUzOBS-50">
          <mxGeometry width="50" height="50" relative="1" as="geometry">
            <mxPoint x="-581" y="571" as="sourcePoint" />
            <mxPoint x="-531" y="521" as="targetPoint" />
          </mxGeometry>
        </mxCell>
        <mxCell id="BQqJ0CVYMRjZI5g4xNkV-50" value="" style="endArrow=classic;startArrow=classic;html=1;rounded=0;exitX=1;exitY=0.5;exitDx=0;exitDy=0;entryX=0.003;entryY=0.444;entryDx=0;entryDy=0;entryPerimeter=0;" edge="1" parent="1">
          <mxGeometry width="50" height="50" relative="1" as="geometry">
            <mxPoint x="-493.42" y="605.18" as="sourcePoint" />
            <mxPoint x="-463.99999999999994" y="604.9999999999999" as="targetPoint" />
          </mxGeometry>
        </mxCell>
        <mxCell id="BQqJ0CVYMRjZI5g4xNkV-51" value="&lt;div&gt;&lt;font style=&quot;font-size: 7px;&quot;&gt;Classification&lt;/font&gt;&lt;/div&gt;&lt;div&gt;&lt;font style=&quot;font-size: 7px;&quot;&gt;activation&lt;/font&gt;&lt;/div&gt;" style="text;html=1;strokeColor=none;fillColor=none;align=center;verticalAlign=middle;whiteSpace=wrap;rounded=0;" vertex="1" parent="1">
          <mxGeometry x="-591.5" y="526" width="23" height="20" as="geometry" />
        </mxCell>
        <mxCell id="BQqJ0CVYMRjZI5g4xNkV-52" value="&lt;font style=&quot;font-size: 7px;&quot;&gt;Spatial activation&lt;br&gt;&lt;/font&gt;" style="text;html=1;strokeColor=none;fillColor=none;align=center;verticalAlign=middle;whiteSpace=wrap;rounded=0;" vertex="1" parent="1">
          <mxGeometry x="-603.75" y="602.5" width="47.5" height="20" as="geometry" />
        </mxCell>
        <mxCell id="BQqJ0CVYMRjZI5g4xNkV-54" value="" style="edgeStyle=orthogonalEdgeStyle;rounded=0;orthogonalLoop=1;jettySize=auto;html=1;endArrow=none;" edge="1" parent="1" source="BQqJ0CVYMRjZI5g4xNkV-5" target="BQqJ0CVYMRjZI5g4xNkV-53">
          <mxGeometry relative="1" as="geometry">
            <mxPoint x="-522.5" y="590" as="sourcePoint" />
            <mxPoint x="-522.5" y="566" as="targetPoint" />
          </mxGeometry>
        </mxCell>
        <mxCell id="BQqJ0CVYMRjZI5g4xNkV-53" value="+" style="ellipse;whiteSpace=wrap;html=1;aspect=fixed;direction=east;" vertex="1" parent="1">
          <mxGeometry x="-531" y="570" width="17" height="17" as="geometry" />
        </mxCell>
      </root>
    </mxGraphModel>
  </diagram>
</mxfile>
